ISO-10303-21;
HEADER;
/* Generated by software containing ST-Developer
 * from STEP Tools, Inc. (www.steptools.com) 
 */
/* OPTION: using custom renumber hook */

FILE_DESCRIPTION(
/* description */ ('STEP AP242 Edition 2',
'CAx-IF Rec.Pracs.---Representation and Presentation of Product Manufa
cturing Information (PMI)---4.0---2014-10-13',
'CAx-IF Rec.Pracs.---3D Tessellated Geometry---0.4---2014-09-14','2;1',
'CAx-IF Rec.Pracs.---User Defined Attributes---1.5---2016-08-15'),
/* implementation_level */ '2;1');

FILE_NAME(
/* name */ 'arrow',
/* time_stamp */ '2026-08-11T22:56:51Z',
/* author */ (''),
/* organization */ (''),
/* preprocessor_version */ 'ST-DEVELOPER v20',
/* originating_system */ 'ONSHAPE BY PTC INC, 1.219',
/* authorisation */ '  ');

FILE_SCHEMA (('AP242_MANAGED_MODEL_BASED_3D_ENGINEERING_MIM_LF { 1 0 10303 442 3 1 4 }'));
ENDSEC;

DATA;
#10=SHAPE_REPRESENTATION_RELATIONSHIP('','',#184,#11);
#11=ADVANCED_BREP_SHAPE_REPRESENTATION('',(#182),#286);
#12=ORIENTED_EDGE('',*,*,#54,.F.);
#13=ORIENTED_EDGE('',*,*,#55,.F.);
#14=ORIENTED_EDGE('',*,*,#56,.T.);
#15=ORIENTED_EDGE('',*,*,#57,.T.);
#16=ORIENTED_EDGE('',*,*,#58,.T.);
#17=ORIENTED_EDGE('',*,*,#59,.F.);
#18=ORIENTED_EDGE('',*,*,#60,.F.);
#19=ORIENTED_EDGE('',*,*,#55,.T.);
#20=ORIENTED_EDGE('',*,*,#61,.T.);
#21=ORIENTED_EDGE('',*,*,#62,.F.);
#22=ORIENTED_EDGE('',*,*,#63,.F.);
#23=ORIENTED_EDGE('',*,*,#59,.T.);
#24=ORIENTED_EDGE('',*,*,#64,.F.);
#25=ORIENTED_EDGE('',*,*,#57,.F.);
#26=ORIENTED_EDGE('',*,*,#65,.T.);
#27=ORIENTED_EDGE('',*,*,#62,.T.);
#28=ORIENTED_EDGE('',*,*,#56,.F.);
#29=ORIENTED_EDGE('',*,*,#60,.T.);
#30=ORIENTED_EDGE('',*,*,#63,.T.);
#31=ORIENTED_EDGE('',*,*,#65,.F.);
#32=ORIENTED_EDGE('',*,*,#66,.F.);
#33=ORIENTED_EDGE('',*,*,#67,.F.);
#34=ORIENTED_EDGE('',*,*,#68,.F.);
#35=ORIENTED_EDGE('',*,*,#54,.T.);
#36=ORIENTED_EDGE('',*,*,#64,.T.);
#37=ORIENTED_EDGE('',*,*,#61,.F.);
#38=ORIENTED_EDGE('',*,*,#58,.F.);
#39=ORIENTED_EDGE('',*,*,#67,.T.);
#40=ORIENTED_EDGE('',*,*,#69,.F.);
#41=ORIENTED_EDGE('',*,*,#70,.F.);
#42=ORIENTED_EDGE('',*,*,#71,.T.);
#43=ORIENTED_EDGE('',*,*,#66,.T.);
#44=ORIENTED_EDGE('',*,*,#72,.F.);
#45=ORIENTED_EDGE('',*,*,#73,.F.);
#46=ORIENTED_EDGE('',*,*,#69,.T.);
#47=ORIENTED_EDGE('',*,*,#68,.T.);
#48=ORIENTED_EDGE('',*,*,#71,.F.);
#49=ORIENTED_EDGE('',*,*,#74,.F.);
#50=ORIENTED_EDGE('',*,*,#72,.T.);
#51=ORIENTED_EDGE('',*,*,#70,.T.);
#52=ORIENTED_EDGE('',*,*,#73,.T.);
#53=ORIENTED_EDGE('',*,*,#74,.T.);
#54=EDGE_CURVE('',#75,#76,#89,.T.);
#55=EDGE_CURVE('',#77,#75,#90,.T.);
#56=EDGE_CURVE('',#77,#78,#91,.T.);
#57=EDGE_CURVE('',#78,#76,#92,.T.);
#58=EDGE_CURVE('',#75,#79,#93,.T.);
#59=EDGE_CURVE('',#80,#79,#94,.T.);
#60=EDGE_CURVE('',#77,#80,#95,.T.);
#61=EDGE_CURVE('',#79,#81,#96,.T.);
#62=EDGE_CURVE('',#82,#81,#97,.T.);
#63=EDGE_CURVE('',#80,#82,#98,.T.);
#64=EDGE_CURVE('',#76,#81,#99,.T.);
#65=EDGE_CURVE('',#78,#82,#100,.T.);
#66=EDGE_CURVE('',#83,#84,#101,.T.);
#67=EDGE_CURVE('',#85,#83,#102,.T.);
#68=EDGE_CURVE('',#84,#85,#103,.T.);
#69=EDGE_CURVE('',#86,#83,#104,.T.);
#70=EDGE_CURVE('',#87,#86,#105,.T.);
#71=EDGE_CURVE('',#87,#85,#106,.T.);
#72=EDGE_CURVE('',#88,#84,#107,.T.);
#73=EDGE_CURVE('',#86,#88,#108,.T.);
#74=EDGE_CURVE('',#88,#87,#109,.T.);
#75=VERTEX_POINT('',#242);
#76=VERTEX_POINT('',#243);
#77=VERTEX_POINT('',#245);
#78=VERTEX_POINT('',#247);
#79=VERTEX_POINT('',#251);
#80=VERTEX_POINT('',#253);
#81=VERTEX_POINT('',#257);
#82=VERTEX_POINT('',#259);
#83=VERTEX_POINT('',#267);
#84=VERTEX_POINT('',#268);
#85=VERTEX_POINT('',#270);
#86=VERTEX_POINT('',#274);
#87=VERTEX_POINT('',#276);
#88=VERTEX_POINT('',#280);
#89=LINE('',#241,#110);
#90=LINE('',#244,#111);
#91=LINE('',#246,#112);
#92=LINE('',#248,#113);
#93=LINE('',#250,#114);
#94=LINE('',#252,#115);
#95=LINE('',#254,#116);
#96=LINE('',#256,#117);
#97=LINE('',#258,#118);
#98=LINE('',#260,#119);
#99=LINE('',#262,#120);
#100=LINE('',#263,#121);
#101=LINE('',#266,#122);
#102=LINE('',#269,#123);
#103=LINE('',#271,#124);
#104=LINE('',#273,#125);
#105=LINE('',#275,#126);
#106=LINE('',#277,#127);
#107=LINE('',#279,#128);
#108=LINE('',#281,#129);
#109=LINE('',#283,#130);
#110=VECTOR('',#200,1.);
#111=VECTOR('',#201,1.);
#112=VECTOR('',#202,1.);
#113=VECTOR('',#203,1.);
#114=VECTOR('',#206,1.);
#115=VECTOR('',#207,1.);
#116=VECTOR('',#208,1.);
#117=VECTOR('',#211,1.);
#118=VECTOR('',#212,1.);
#119=VECTOR('',#213,1.);
#120=VECTOR('',#216,1.);
#121=VECTOR('',#217,1.);
#122=VECTOR('',#222,1.);
#123=VECTOR('',#223,1.);
#124=VECTOR('',#224,1.);
#125=VECTOR('',#227,1.);
#126=VECTOR('',#228,1.);
#127=VECTOR('',#229,1.);
#128=VECTOR('',#232,1.);
#129=VECTOR('',#233,1.);
#130=VECTOR('',#236,1.);
#131=EDGE_LOOP('',(#12,#13,#14,#15));
#132=EDGE_LOOP('',(#16,#17,#18,#19));
#133=EDGE_LOOP('',(#20,#21,#22,#23));
#134=EDGE_LOOP('',(#24,#25,#26,#27));
#135=EDGE_LOOP('',(#28,#29,#30,#31));
#136=EDGE_LOOP('',(#32,#33,#34));
#137=EDGE_LOOP('',(#35,#36,#37,#38));
#138=EDGE_LOOP('',(#39,#40,#41,#42));
#139=EDGE_LOOP('',(#43,#44,#45,#46));
#140=EDGE_LOOP('',(#47,#48,#49,#50));
#141=EDGE_LOOP('',(#51,#52,#53));
#142=FACE_BOUND('',#131,.T.);
#143=FACE_BOUND('',#132,.T.);
#144=FACE_BOUND('',#133,.T.);
#145=FACE_BOUND('',#134,.T.);
#146=FACE_BOUND('',#135,.T.);
#147=FACE_BOUND('',#136,.T.);
#148=FACE_BOUND('',#137,.T.);
#149=FACE_BOUND('',#138,.T.);
#150=FACE_BOUND('',#139,.T.);
#151=FACE_BOUND('',#140,.T.);
#152=FACE_BOUND('',#141,.T.);
#153=PLANE('',#186);
#154=PLANE('',#187);
#155=PLANE('',#188);
#156=PLANE('',#189);
#157=PLANE('',#190);
#158=PLANE('',#191);
#159=PLANE('',#192);
#160=PLANE('',#193);
#161=PLANE('',#194);
#162=PLANE('',#195);
#163=ADVANCED_FACE('',(#142),#153,.T.);
#164=ADVANCED_FACE('',(#143),#154,.F.);
#165=ADVANCED_FACE('',(#144),#155,.F.);
#166=ADVANCED_FACE('',(#145),#156,.T.);
#167=ADVANCED_FACE('',(#146),#157,.T.);
#168=ADVANCED_FACE('',(#147,#148),#158,.F.);
#169=ADVANCED_FACE('',(#149),#159,.F.);
#170=ADVANCED_FACE('',(#150),#160,.F.);
#171=ADVANCED_FACE('',(#151),#161,.F.);
#172=ADVANCED_FACE('',(#152),#162,.T.);
#173=CLOSED_SHELL('',(#163,#164,#165,#166,#167,#168,#169,#170,#171,#172));
#174=STYLED_ITEM('',(#175),#182);
#175=PRESENTATION_STYLE_ASSIGNMENT((#176));
#176=SURFACE_STYLE_USAGE(.BOTH.,#177);
#177=SURFACE_SIDE_STYLE('',(#178));
#178=SURFACE_STYLE_FILL_AREA(#179);
#179=FILL_AREA_STYLE('',(#180));
#180=FILL_AREA_STYLE_COLOUR('',#181);
#181=COLOUR_RGB('',0.615686274509804,0.811764705882353,0.929411764705882);
#182=MANIFOLD_SOLID_BREP('Part 1',#173);
#183=SHAPE_DEFINITION_REPRESENTATION(#291,#184);
#184=SHAPE_REPRESENTATION('Part 1',(#185),#286);
#185=AXIS2_PLACEMENT_3D('',#239,#196,#197);
#186=AXIS2_PLACEMENT_3D('',#240,#198,#199);
#187=AXIS2_PLACEMENT_3D('',#249,#204,#205);
#188=AXIS2_PLACEMENT_3D('',#255,#209,#210);
#189=AXIS2_PLACEMENT_3D('',#261,#214,#215);
#190=AXIS2_PLACEMENT_3D('',#264,#218,#219);
#191=AXIS2_PLACEMENT_3D('',#265,#220,#221);
#192=AXIS2_PLACEMENT_3D('',#272,#225,#226);
#193=AXIS2_PLACEMENT_3D('',#278,#230,#231);
#194=AXIS2_PLACEMENT_3D('',#282,#234,#235);
#195=AXIS2_PLACEMENT_3D('',#284,#237,#238);
#196=DIRECTION('',(0.,0.,1.));
#197=DIRECTION('',(1.,0.,0.));
#198=DIRECTION('',(1.,0.,1.38777878078145E-16));
#199=DIRECTION('',(1.38777878078145E-16,0.,-1.));
#200=DIRECTION('',(1.38777878078145E-16,0.,-1.));
#201=DIRECTION('',(0.,1.,0.));
#202=DIRECTION('',(1.38777878078145E-16,0.,-1.));
#203=DIRECTION('',(0.,1.,0.));
#204=DIRECTION('',(0.,0.,-1.));
#205=DIRECTION('',(-1.,0.,0.));
#206=DIRECTION('',(-1.,0.,0.));
#207=DIRECTION('',(0.,1.,0.));
#208=DIRECTION('',(-1.,0.,0.));
#209=DIRECTION('',(1.,0.,1.38777878078145E-16));
#210=DIRECTION('',(1.38777878078145E-16,0.,-1.));
#211=DIRECTION('',(1.38777878078145E-16,0.,-1.));
#212=DIRECTION('',(0.,1.,0.));
#213=DIRECTION('',(1.38777878078145E-16,0.,-1.));
#214=DIRECTION('',(0.,0.,-1.));
#215=DIRECTION('',(-1.,0.,0.));
#216=DIRECTION('',(-1.,0.,0.));
#217=DIRECTION('',(-1.,0.,0.));
#218=DIRECTION('',(0.,-1.,0.));
#219=DIRECTION('',(1.,0.,0.));
#220=DIRECTION('',(0.,-1.,0.));
#221=DIRECTION('',(1.,0.,0.));
#222=DIRECTION('',(1.,0.,0.));
#223=DIRECTION('',(-0.5,0.,0.866025403784438));
#224=DIRECTION('',(-0.5,0.,-0.866025403784439));
#225=DIRECTION('',(-0.866025403784438,0.,-0.5));
#226=DIRECTION('',(-0.5,0.,0.866025403784438));
#227=DIRECTION('',(0.,1.,0.));
#228=DIRECTION('',(-0.5,0.,0.866025403784438));
#229=DIRECTION('',(0.,1.,0.));
#230=DIRECTION('',(0.,0.,1.));
#231=DIRECTION('',(1.,0.,0.));
#232=DIRECTION('',(0.,1.,0.));
#233=DIRECTION('',(1.,0.,0.));
#234=DIRECTION('',(0.866025403784439,0.,-0.5));
#235=DIRECTION('',(-0.5,0.,-0.866025403784439));
#236=DIRECTION('',(-0.5,0.,-0.866025403784439));
#237=DIRECTION('',(0.,1.,0.));
#238=DIRECTION('',(-1.,0.,0.));
#239=CARTESIAN_POINT('',(0.,0.,0.));
#240=CARTESIAN_POINT('',(0.00625,-0.005,0.));
#241=CARTESIAN_POINT('',(0.00625,0.,0.));
#242=CARTESIAN_POINT('',(0.00625,0.,0.00625));
#243=CARTESIAN_POINT('',(0.00625,0.,-0.00625));
#244=CARTESIAN_POINT('',(0.00625,-0.005,0.00625));
#245=CARTESIAN_POINT('',(0.00625,-0.005,0.00625));
#246=CARTESIAN_POINT('',(0.00625,-0.005,0.));
#247=CARTESIAN_POINT('',(0.00625,-0.005,-0.00625));
#248=CARTESIAN_POINT('',(0.00625,-0.005,-0.00625));
#249=CARTESIAN_POINT('',(-8.67361737988404E-19,-0.005,0.00625));
#250=CARTESIAN_POINT('',(-8.67361737988404E-19,0.,0.00625));
#251=CARTESIAN_POINT('',(-0.00625,0.,0.00625));
#252=CARTESIAN_POINT('',(-0.00625,-0.005,0.00625));
#253=CARTESIAN_POINT('',(-0.00625,-0.005,0.00625));
#254=CARTESIAN_POINT('',(-8.67361737988404E-19,-0.005,0.00625));
#255=CARTESIAN_POINT('',(-0.00625,-0.005,0.));
#256=CARTESIAN_POINT('',(-0.00625,0.,0.));
#257=CARTESIAN_POINT('',(-0.00625,0.,-0.00625));
#258=CARTESIAN_POINT('',(-0.00625,-0.005,-0.00625));
#259=CARTESIAN_POINT('',(-0.00625,-0.005,-0.00625));
#260=CARTESIAN_POINT('',(-0.00625,-0.005,0.));
#261=CARTESIAN_POINT('',(8.67361737988404E-19,-0.005,-0.00625));
#262=CARTESIAN_POINT('',(8.67361737988404E-19,0.,-0.00625));
#263=CARTESIAN_POINT('',(8.67361737988404E-19,-0.005,-0.00625));
#264=CARTESIAN_POINT('',(0.,-0.005,0.));
#265=CARTESIAN_POINT('',(0.,0.,0.));
#266=CARTESIAN_POINT('',(0.,0.,0.0032645982478863));
#267=CARTESIAN_POINT('',(-0.0042688093855843,0.,0.00326459824788629));
#268=CARTESIAN_POINT('',(0.0042688093855843,0.,0.0032645982478863));
#269=CARTESIAN_POINT('',(-0.00213440469279215,0.,-0.000432299123943151));
#270=CARTESIAN_POINT('',(1.3010426069826E-18,0.,-0.00412919649577259));
#271=CARTESIAN_POINT('',(0.00213440469279215,0.,-0.000432299123943149));
#272=CARTESIAN_POINT('',(-0.00213440469279215,-0.001,-0.000432299123943151));
#273=CARTESIAN_POINT('',(-0.0042688093855843,-0.001,0.00326459824788629));
#274=CARTESIAN_POINT('',(-0.0042688093855843,-0.001,0.00326459824788629));
#275=CARTESIAN_POINT('',(-0.00213440469279215,-0.001,-0.000432299123943151));
#276=CARTESIAN_POINT('',(1.3010426069826E-18,-0.001,-0.00412919649577259));
#277=CARTESIAN_POINT('',(1.3010426069826E-18,-0.001,-0.00412919649577259));
#278=CARTESIAN_POINT('',(0.,-0.001,0.0032645982478863));
#279=CARTESIAN_POINT('',(0.0042688093855843,-0.001,0.0032645982478863));
#280=CARTESIAN_POINT('',(0.0042688093855843,-0.001,0.0032645982478863));
#281=CARTESIAN_POINT('',(0.,-0.001,0.0032645982478863));
#282=CARTESIAN_POINT('',(0.00213440469279215,-0.001,-0.000432299123943149));
#283=CARTESIAN_POINT('',(0.00213440469279215,-0.001,-0.000432299123943149));
#284=CARTESIAN_POINT('',(0.,-0.001,0.));
#285=MECHANICAL_DESIGN_GEOMETRIC_PRESENTATION_REPRESENTATION('',(#174),
#286);
#286=(
GEOMETRIC_REPRESENTATION_CONTEXT(3)
GLOBAL_UNCERTAINTY_ASSIGNED_CONTEXT((#287))
GLOBAL_UNIT_ASSIGNED_CONTEXT((#290,#289,#288))
REPRESENTATION_CONTEXT('Part 1','TOP_LEVEL_ASSEMBLY_PART')
);
#287=UNCERTAINTY_MEASURE_WITH_UNIT(LENGTH_MEASURE(1.E-8),#290,
'DISTANCE_ACCURACY_VALUE','Maximum Tolerance applied to model');
#288=(
NAMED_UNIT(*)
SI_UNIT($,.STERADIAN.)
SOLID_ANGLE_UNIT()
);
#289=(
NAMED_UNIT(*)
PLANE_ANGLE_UNIT()
SI_UNIT($,.RADIAN.)
);
#290=(
LENGTH_UNIT()
NAMED_UNIT(*)
SI_UNIT($,.METRE.)
);
#291=PRODUCT_DEFINITION_SHAPE('','',#292);
#292=PRODUCT_DEFINITION('','',#294,#293);
#293=PRODUCT_DEFINITION_CONTEXT('',#300,'design');
#294=PRODUCT_DEFINITION_FORMATION_WITH_SPECIFIED_SOURCE('','',#296,
 .NOT_KNOWN.);
#295=PRODUCT_RELATED_PRODUCT_CATEGORY('','',(#296));
#296=PRODUCT('Part 1','Part 1','Part 1',(#298));
#297=PRODUCT_CATEGORY('','');
#298=PRODUCT_CONTEXT('',#300,'mechanical');
#299=APPLICATION_PROTOCOL_DEFINITION('international standard',
'ap242_managed_model_based_3d_engineering',2020,#300);
#300=APPLICATION_CONTEXT('managed model based 3d engineering');
ENDSEC;
END-ISO-10303-21;
