ISO-10303-21;
HEADER;
/* Generated by software containing ST-Developer
 * from STEP Tools, Inc. (www.steptools.com) 
 */
/* OPTION: using custom renumber hook */

FILE_DESCRIPTION(
/* description */ ('STEP AP242 Edition 2',
'CAx-IF Rec.Pracs.---Representation and Presentation of Product Manufa
cturing Information (PMI)---4.0---2014-10-13',
'CAx-IF Rec.Pracs.---3D Tessellated Geometry---0.4---2014-09-14','2;1',
'CAx-IF Rec.Pracs.---User Defined Attributes---1.5---2016-08-15'),
/* implementation_level */ '2;1');

FILE_NAME(
/* name */ 'centerKey',
/* time_stamp */ '2026-08-09T03:10:56Z',
/* author */ (''),
/* organization */ (''),
/* preprocessor_version */ 'ST-DEVELOPER v20',
/* originating_system */ 'ONSHAPE BY PTC INC, 1.219',
/* authorisation */ '  ');

FILE_SCHEMA (('AP242_MANAGED_MODEL_BASED_3D_ENGINEERING_MIM_LF { 1 0 10303 442 3 1 4 }'));
ENDSEC;

DATA;
#10=SHAPE_REPRESENTATION_RELATIONSHIP('','',#327,#11);
#11=ADVANCED_BREP_SHAPE_REPRESENTATION('',(#325),#521);
#12=CYLINDRICAL_SURFACE('',#344,0.0023875);
#13=CYLINDRICAL_SURFACE('',#347,0.0023875);
#14=CIRCLE('',#331,0.0023875);
#15=CIRCLE('',#332,0.0023875);
#16=CIRCLE('',#345,0.0023875);
#17=CIRCLE('',#348,0.0023875);
#18=ORIENTED_EDGE('',*,*,#98,.F.);
#19=ORIENTED_EDGE('',*,*,#99,.F.);
#20=ORIENTED_EDGE('',*,*,#100,.T.);
#21=ORIENTED_EDGE('',*,*,#101,.T.);
#22=ORIENTED_EDGE('',*,*,#102,.F.);
#23=ORIENTED_EDGE('',*,*,#103,.F.);
#24=ORIENTED_EDGE('',*,*,#104,.T.);
#25=ORIENTED_EDGE('',*,*,#105,.T.);
#26=ORIENTED_EDGE('',*,*,#106,.F.);
#27=ORIENTED_EDGE('',*,*,#107,.F.);
#28=ORIENTED_EDGE('',*,*,#108,.F.);
#29=ORIENTED_EDGE('',*,*,#102,.T.);
#30=ORIENTED_EDGE('',*,*,#109,.T.);
#31=ORIENTED_EDGE('',*,*,#110,.T.);
#32=ORIENTED_EDGE('',*,*,#111,.T.);
#33=ORIENTED_EDGE('',*,*,#112,.F.);
#34=ORIENTED_EDGE('',*,*,#113,.F.);
#35=ORIENTED_EDGE('',*,*,#114,.F.);
#36=ORIENTED_EDGE('',*,*,#115,.T.);
#37=ORIENTED_EDGE('',*,*,#116,.T.);
#38=ORIENTED_EDGE('',*,*,#117,.F.);
#39=ORIENTED_EDGE('',*,*,#118,.F.);
#40=ORIENTED_EDGE('',*,*,#119,.T.);
#41=ORIENTED_EDGE('',*,*,#114,.T.);
#42=ORIENTED_EDGE('',*,*,#120,.F.);
#43=ORIENTED_EDGE('',*,*,#121,.F.);
#44=ORIENTED_EDGE('',*,*,#113,.T.);
#45=ORIENTED_EDGE('',*,*,#122,.F.);
#46=ORIENTED_EDGE('',*,*,#123,.F.);
#47=ORIENTED_EDGE('',*,*,#120,.T.);
#48=ORIENTED_EDGE('',*,*,#112,.T.);
#49=ORIENTED_EDGE('',*,*,#124,.F.);
#50=ORIENTED_EDGE('',*,*,#125,.F.);
#51=ORIENTED_EDGE('',*,*,#122,.T.);
#52=ORIENTED_EDGE('',*,*,#111,.F.);
#53=ORIENTED_EDGE('',*,*,#126,.F.);
#54=ORIENTED_EDGE('',*,*,#127,.T.);
#55=ORIENTED_EDGE('',*,*,#124,.T.);
#56=ORIENTED_EDGE('',*,*,#110,.F.);
#57=ORIENTED_EDGE('',*,*,#128,.F.);
#58=ORIENTED_EDGE('',*,*,#129,.T.);
#59=ORIENTED_EDGE('',*,*,#126,.T.);
#60=ORIENTED_EDGE('',*,*,#109,.F.);
#61=ORIENTED_EDGE('',*,*,#101,.F.);
#62=ORIENTED_EDGE('',*,*,#130,.T.);
#63=ORIENTED_EDGE('',*,*,#128,.T.);
#64=ORIENTED_EDGE('',*,*,#99,.T.);
#65=ORIENTED_EDGE('',*,*,#131,.T.);
#66=ORIENTED_EDGE('',*,*,#115,.F.);
#67=ORIENTED_EDGE('',*,*,#132,.F.);
#68=ORIENTED_EDGE('',*,*,#121,.T.);
#69=ORIENTED_EDGE('',*,*,#123,.T.);
#70=ORIENTED_EDGE('',*,*,#125,.T.);
#71=ORIENTED_EDGE('',*,*,#127,.F.);
#72=ORIENTED_EDGE('',*,*,#129,.F.);
#73=ORIENTED_EDGE('',*,*,#130,.F.);
#74=ORIENTED_EDGE('',*,*,#100,.F.);
#75=ORIENTED_EDGE('',*,*,#132,.T.);
#76=ORIENTED_EDGE('',*,*,#108,.T.);
#77=ORIENTED_EDGE('',*,*,#119,.F.);
#78=ORIENTED_EDGE('',*,*,#133,.F.);
#79=ORIENTED_EDGE('',*,*,#103,.T.);
#80=ORIENTED_EDGE('',*,*,#134,.F.);
#81=ORIENTED_EDGE('',*,*,#105,.F.);
#82=ORIENTED_EDGE('',*,*,#135,.T.);
#83=ORIENTED_EDGE('',*,*,#117,.T.);
#84=ORIENTED_EDGE('',*,*,#133,.T.);
#85=ORIENTED_EDGE('',*,*,#118,.T.);
#86=ORIENTED_EDGE('',*,*,#135,.F.);
#87=ORIENTED_EDGE('',*,*,#104,.F.);
#88=ORIENTED_EDGE('',*,*,#136,.F.);
#89=ORIENTED_EDGE('',*,*,#107,.T.);
#90=ORIENTED_EDGE('',*,*,#136,.T.);
#91=ORIENTED_EDGE('',*,*,#137,.F.);
#92=ORIENTED_EDGE('',*,*,#106,.T.);
#93=ORIENTED_EDGE('',*,*,#137,.T.);
#94=ORIENTED_EDGE('',*,*,#131,.F.);
#95=ORIENTED_EDGE('',*,*,#98,.T.);
#96=ORIENTED_EDGE('',*,*,#134,.T.);
#97=ORIENTED_EDGE('',*,*,#116,.F.);
#98=EDGE_CURVE('',#138,#139,#166,.T.);
#99=EDGE_CURVE('',#140,#138,#167,.T.);
#100=EDGE_CURVE('',#140,#141,#168,.T.);
#101=EDGE_CURVE('',#141,#142,#169,.T.);
#102=EDGE_CURVE('',#143,#142,#170,.T.);
#103=EDGE_CURVE('',#144,#143,#171,.T.);
#104=EDGE_CURVE('',#144,#145,#172,.T.);
#105=EDGE_CURVE('',#145,#139,#173,.T.);
#106=EDGE_CURVE('',#146,#146,#14,.T.);
#107=EDGE_CURVE('',#147,#147,#15,.T.);
#108=EDGE_CURVE('',#143,#148,#174,.T.);
#109=EDGE_CURVE('',#142,#149,#175,.T.);
#110=EDGE_CURVE('',#149,#150,#176,.T.);
#111=EDGE_CURVE('',#150,#151,#177,.T.);
#112=EDGE_CURVE('',#152,#151,#178,.T.);
#113=EDGE_CURVE('',#153,#152,#179,.T.);
#114=EDGE_CURVE('',#148,#153,#180,.T.);
#115=EDGE_CURVE('',#154,#155,#181,.T.);
#116=EDGE_CURVE('',#155,#156,#182,.T.);
#117=EDGE_CURVE('',#157,#156,#183,.T.);
#118=EDGE_CURVE('',#158,#157,#184,.T.);
#119=EDGE_CURVE('',#158,#148,#185,.T.);
#120=EDGE_CURVE('',#159,#153,#186,.T.);
#121=EDGE_CURVE('',#154,#159,#187,.T.);
#122=EDGE_CURVE('',#160,#152,#188,.T.);
#123=EDGE_CURVE('',#159,#160,#189,.T.);
#124=EDGE_CURVE('',#161,#151,#190,.T.);
#125=EDGE_CURVE('',#160,#161,#191,.T.);
#126=EDGE_CURVE('',#162,#150,#192,.T.);
#127=EDGE_CURVE('',#162,#161,#193,.T.);
#128=EDGE_CURVE('',#163,#149,#194,.T.);
#129=EDGE_CURVE('',#163,#162,#195,.T.);
#130=EDGE_CURVE('',#141,#163,#196,.T.);
#131=EDGE_CURVE('',#138,#155,#197,.T.);
#132=EDGE_CURVE('',#140,#154,#198,.T.);
#133=EDGE_CURVE('',#144,#158,#199,.T.);
#134=EDGE_CURVE('',#139,#156,#200,.T.);
#135=EDGE_CURVE('',#145,#157,#201,.T.);
#136=EDGE_CURVE('',#164,#164,#16,.T.);
#137=EDGE_CURVE('',#165,#165,#17,.T.);
#138=VERTEX_POINT('',#436);
#139=VERTEX_POINT('',#437);
#140=VERTEX_POINT('',#439);
#141=VERTEX_POINT('',#441);
#142=VERTEX_POINT('',#443);
#143=VERTEX_POINT('',#445);
#144=VERTEX_POINT('',#447);
#145=VERTEX_POINT('',#449);
#146=VERTEX_POINT('',#453);
#147=VERTEX_POINT('',#455);
#148=VERTEX_POINT('',#457);
#149=VERTEX_POINT('',#459);
#150=VERTEX_POINT('',#461);
#151=VERTEX_POINT('',#463);
#152=VERTEX_POINT('',#465);
#153=VERTEX_POINT('',#467);
#154=VERTEX_POINT('',#471);
#155=VERTEX_POINT('',#472);
#156=VERTEX_POINT('',#474);
#157=VERTEX_POINT('',#476);
#158=VERTEX_POINT('',#478);
#159=VERTEX_POINT('',#481);
#160=VERTEX_POINT('',#485);
#161=VERTEX_POINT('',#489);
#162=VERTEX_POINT('',#493);
#163=VERTEX_POINT('',#497);
#164=VERTEX_POINT('',#513);
#165=VERTEX_POINT('',#517);
#166=LINE('',#435,#202);
#167=LINE('',#438,#203);
#168=LINE('',#440,#204);
#169=LINE('',#442,#205);
#170=LINE('',#444,#206);
#171=LINE('',#446,#207);
#172=LINE('',#448,#208);
#173=LINE('',#450,#209);
#174=LINE('',#456,#210);
#175=LINE('',#458,#211);
#176=LINE('',#460,#212);
#177=LINE('',#462,#213);
#178=LINE('',#464,#214);
#179=LINE('',#466,#215);
#180=LINE('',#468,#216);
#181=LINE('',#470,#217);
#182=LINE('',#473,#218);
#183=LINE('',#475,#219);
#184=LINE('',#477,#220);
#185=LINE('',#479,#221);
#186=LINE('',#480,#222);
#187=LINE('',#482,#223);
#188=LINE('',#484,#224);
#189=LINE('',#486,#225);
#190=LINE('',#488,#226);
#191=LINE('',#490,#227);
#192=LINE('',#492,#228);
#193=LINE('',#494,#229);
#194=LINE('',#496,#230);
#195=LINE('',#498,#231);
#196=LINE('',#500,#232);
#197=LINE('',#502,#233);
#198=LINE('',#503,#234);
#199=LINE('',#506,#235);
#200=LINE('',#508,#236);
#201=LINE('',#509,#237);
#202=VECTOR('',#355,1.);
#203=VECTOR('',#356,1.);
#204=VECTOR('',#357,1.);
#205=VECTOR('',#358,1.);
#206=VECTOR('',#359,1.);
#207=VECTOR('',#360,1.);
#208=VECTOR('',#361,1.);
#209=VECTOR('',#362,1.);
#210=VECTOR('',#369,1.);
#211=VECTOR('',#370,1.);
#212=VECTOR('',#371,1.);
#213=VECTOR('',#372,1.);
#214=VECTOR('',#373,1.);
#215=VECTOR('',#374,1.);
#216=VECTOR('',#375,1.);
#217=VECTOR('',#378,1.);
#218=VECTOR('',#379,1.);
#219=VECTOR('',#380,1.);
#220=VECTOR('',#381,1.);
#221=VECTOR('',#382,1.);
#222=VECTOR('',#383,1.);
#223=VECTOR('',#384,1.);
#224=VECTOR('',#387,1.);
#225=VECTOR('',#388,1.);
#226=VECTOR('',#391,1.);
#227=VECTOR('',#392,1.);
#228=VECTOR('',#395,1.);
#229=VECTOR('',#396,1.);
#230=VECTOR('',#399,1.);
#231=VECTOR('',#400,1.);
#232=VECTOR('',#403,1.);
#233=VECTOR('',#406,1.);
#234=VECTOR('',#407,1.);
#235=VECTOR('',#412,1.);
#236=VECTOR('',#415,1.);
#237=VECTOR('',#416,1.);
#238=EDGE_LOOP('',(#18,#19,#20,#21,#22,#23,#24,#25));
#239=EDGE_LOOP('',(#26));
#240=EDGE_LOOP('',(#27));
#241=EDGE_LOOP('',(#28,#29,#30,#31,#32,#33,#34,#35));
#242=EDGE_LOOP('',(#36,#37,#38,#39,#40,#41,#42,#43));
#243=EDGE_LOOP('',(#44,#45,#46,#47));
#244=EDGE_LOOP('',(#48,#49,#50,#51));
#245=EDGE_LOOP('',(#52,#53,#54,#55));
#246=EDGE_LOOP('',(#56,#57,#58,#59));
#247=EDGE_LOOP('',(#60,#61,#62,#63));
#248=EDGE_LOOP('',(#64,#65,#66,#67));
#249=EDGE_LOOP('',(#68,#69,#70,#71,#72,#73,#74,#75));
#250=EDGE_LOOP('',(#76,#77,#78,#79));
#251=EDGE_LOOP('',(#80,#81,#82,#83));
#252=EDGE_LOOP('',(#84,#85,#86,#87));
#253=EDGE_LOOP('',(#88));
#254=EDGE_LOOP('',(#89));
#255=EDGE_LOOP('',(#90));
#256=EDGE_LOOP('',(#91));
#257=EDGE_LOOP('',(#92));
#258=EDGE_LOOP('',(#93));
#259=EDGE_LOOP('',(#94,#95,#96,#97));
#260=FACE_BOUND('',#238,.T.);
#261=FACE_BOUND('',#239,.T.);
#262=FACE_BOUND('',#240,.T.);
#263=FACE_BOUND('',#241,.T.);
#264=FACE_BOUND('',#242,.T.);
#265=FACE_BOUND('',#243,.T.);
#266=FACE_BOUND('',#244,.T.);
#267=FACE_BOUND('',#245,.T.);
#268=FACE_BOUND('',#246,.T.);
#269=FACE_BOUND('',#247,.T.);
#270=FACE_BOUND('',#248,.T.);
#271=FACE_BOUND('',#249,.T.);
#272=FACE_BOUND('',#250,.T.);
#273=FACE_BOUND('',#251,.T.);
#274=FACE_BOUND('',#252,.T.);
#275=FACE_BOUND('',#253,.T.);
#276=FACE_BOUND('',#254,.T.);
#277=FACE_BOUND('',#255,.T.);
#278=FACE_BOUND('',#256,.T.);
#279=FACE_BOUND('',#257,.T.);
#280=FACE_BOUND('',#258,.T.);
#281=FACE_BOUND('',#259,.T.);
#282=PLANE('',#329);
#283=PLANE('',#330);
#284=PLANE('',#333);
#285=PLANE('',#334);
#286=PLANE('',#335);
#287=PLANE('',#336);
#288=PLANE('',#337);
#289=PLANE('',#338);
#290=PLANE('',#339);
#291=PLANE('',#340);
#292=PLANE('',#341);
#293=PLANE('',#342);
#294=PLANE('',#343);
#295=PLANE('',#346);
#296=PLANE('',#349);
#297=PLANE('',#350);
#298=ADVANCED_FACE('',(#260),#282,.T.);
#299=ADVANCED_FACE('',(#261,#262,#263),#283,.F.);
#300=ADVANCED_FACE('',(#264),#284,.F.);
#301=ADVANCED_FACE('',(#265),#285,.F.);
#302=ADVANCED_FACE('',(#266),#286,.F.);
#303=ADVANCED_FACE('',(#267),#287,.T.);
#304=ADVANCED_FACE('',(#268),#288,.T.);
#305=ADVANCED_FACE('',(#269),#289,.T.);
#306=ADVANCED_FACE('',(#270),#290,.F.);
#307=ADVANCED_FACE('',(#271),#291,.T.);
#308=ADVANCED_FACE('',(#272),#292,.F.);
#309=ADVANCED_FACE('',(#273),#293,.T.);
#310=ADVANCED_FACE('',(#274),#294,.F.);
#311=ADVANCED_FACE('',(#275,#276),#12,.F.);
#312=ADVANCED_FACE('',(#277),#295,.T.);
#313=ADVANCED_FACE('',(#278,#279),#13,.F.);
#314=ADVANCED_FACE('',(#280),#296,.T.);
#315=ADVANCED_FACE('',(#281),#297,.T.);
#316=CLOSED_SHELL('',(#298,#299,#300,#301,#302,#303,#304,#305,#306,#307,
#308,#309,#310,#311,#312,#313,#314,#315));
#317=STYLED_ITEM('',(#318),#325);
#318=PRESENTATION_STYLE_ASSIGNMENT((#319));
#319=SURFACE_STYLE_USAGE(.BOTH.,#320);
#320=SURFACE_SIDE_STYLE('',(#321));
#321=SURFACE_STYLE_FILL_AREA(#322);
#322=FILL_AREA_STYLE('',(#323));
#323=FILL_AREA_STYLE_COLOUR('',#324);
#324=COLOUR_RGB('',0.615686274509804,0.811764705882353,0.929411764705882);
#325=MANIFOLD_SOLID_BREP('Part 1',#316);
#326=SHAPE_DEFINITION_REPRESENTATION(#526,#327);
#327=SHAPE_REPRESENTATION('Part 1',(#328),#521);
#328=AXIS2_PLACEMENT_3D('',#433,#351,#352);
#329=AXIS2_PLACEMENT_3D('',#434,#353,#354);
#330=AXIS2_PLACEMENT_3D('',#451,#363,#364);
#331=AXIS2_PLACEMENT_3D('',#452,#365,#366);
#332=AXIS2_PLACEMENT_3D('',#454,#367,#368);
#333=AXIS2_PLACEMENT_3D('',#469,#376,#377);
#334=AXIS2_PLACEMENT_3D('',#483,#385,#386);
#335=AXIS2_PLACEMENT_3D('',#487,#389,#390);
#336=AXIS2_PLACEMENT_3D('',#491,#393,#394);
#337=AXIS2_PLACEMENT_3D('',#495,#397,#398);
#338=AXIS2_PLACEMENT_3D('',#499,#401,#402);
#339=AXIS2_PLACEMENT_3D('',#501,#404,#405);
#340=AXIS2_PLACEMENT_3D('',#504,#408,#409);
#341=AXIS2_PLACEMENT_3D('',#505,#410,#411);
#342=AXIS2_PLACEMENT_3D('',#507,#413,#414);
#343=AXIS2_PLACEMENT_3D('',#510,#417,#418);
#344=AXIS2_PLACEMENT_3D('',#511,#419,#420);
#345=AXIS2_PLACEMENT_3D('',#512,#421,#422);
#346=AXIS2_PLACEMENT_3D('',#514,#423,#424);
#347=AXIS2_PLACEMENT_3D('',#515,#425,#426);
#348=AXIS2_PLACEMENT_3D('',#516,#427,#428);
#349=AXIS2_PLACEMENT_3D('',#518,#429,#430);
#350=AXIS2_PLACEMENT_3D('',#519,#431,#432);
#351=DIRECTION('',(0.,0.,1.));
#352=DIRECTION('',(1.,0.,0.));
#353=DIRECTION('',(1.,0.,-1.24174908802921E-16));
#354=DIRECTION('',(-1.24174908802921E-16,0.,-1.));
#355=DIRECTION('',(-1.7347234759768E-16,0.,1.));
#356=DIRECTION('',(0.,1.,0.));
#357=DIRECTION('',(-1.24174908802921E-16,0.,-1.));
#358=DIRECTION('',(0.,1.,0.));
#359=DIRECTION('',(-1.24174908802921E-16,0.,-1.));
#360=DIRECTION('',(0.,-1.,0.));
#361=DIRECTION('',(-1.7347234759768E-16,0.,1.));
#362=DIRECTION('',(0.,-1.,0.));
#363=DIRECTION('',(0.,-1.,0.));
#364=DIRECTION('',(1.,0.,0.));
#365=DIRECTION('',(0.,1.,0.));
#366=DIRECTION('',(0.,0.,1.));
#367=DIRECTION('',(0.,1.,0.));
#368=DIRECTION('',(0.,0.,1.));
#369=DIRECTION('',(-1.,0.,0.));
#370=DIRECTION('',(1.,0.,0.));
#371=DIRECTION('',(4.33351521837605E-17,0.,-1.));
#372=DIRECTION('',(-1.,0.,0.));
#373=DIRECTION('',(4.33351521837605E-17,0.,-1.));
#374=DIRECTION('',(-1.,0.,0.));
#375=DIRECTION('',(1.24174908802921E-16,0.,-1.));
#376=DIRECTION('',(1.,0.,1.24174908802921E-16));
#377=DIRECTION('',(1.24174908802921E-16,0.,-1.));
#378=DIRECTION('',(0.,1.,0.));
#379=DIRECTION('',(-1.7347234759768E-16,0.,1.));
#380=DIRECTION('',(0.,-1.,0.));
#381=DIRECTION('',(-1.7347234759768E-16,0.,1.));
#382=DIRECTION('',(0.,-1.,0.));
#383=DIRECTION('',(0.,1.,0.));
#384=DIRECTION('',(1.24174908802921E-16,0.,-1.));
#385=DIRECTION('',(0.,0.,-1.));
#386=DIRECTION('',(-1.,0.,0.));
#387=DIRECTION('',(0.,1.,0.));
#388=DIRECTION('',(-1.,0.,0.));
#389=DIRECTION('',(1.,0.,4.33351521837605E-17));
#390=DIRECTION('',(4.33351521837605E-17,0.,-1.));
#391=DIRECTION('',(0.,1.,0.));
#392=DIRECTION('',(4.33351521837605E-17,0.,-1.));
#393=DIRECTION('',(0.,0.,-1.));
#394=DIRECTION('',(-1.,0.,0.));
#395=DIRECTION('',(0.,1.,0.));
#396=DIRECTION('',(-1.,0.,0.));
#397=DIRECTION('',(1.,0.,4.33351521837605E-17));
#398=DIRECTION('',(4.33351521837605E-17,0.,-1.));
#399=DIRECTION('',(0.,1.,0.));
#400=DIRECTION('',(4.33351521837605E-17,0.,-1.));
#401=DIRECTION('',(0.,0.,1.));
#402=DIRECTION('',(1.,0.,0.));
#403=DIRECTION('',(1.,0.,0.));
#404=DIRECTION('',(0.,0.,-1.));
#405=DIRECTION('',(-1.,0.,0.));
#406=DIRECTION('',(-1.,0.,0.));
#407=DIRECTION('',(-1.,0.,0.));
#408=DIRECTION('',(0.,-1.,0.));
#409=DIRECTION('',(1.,0.,0.));
#410=DIRECTION('',(0.,0.,1.));
#411=DIRECTION('',(1.,0.,0.));
#412=DIRECTION('',(-1.,0.,0.));
#413=DIRECTION('',(0.,0.,1.));
#414=DIRECTION('',(1.,0.,0.));
#415=DIRECTION('',(-1.,0.,0.));
#416=DIRECTION('',(-1.,0.,0.));
#417=DIRECTION('',(0.,-1.,0.));
#418=DIRECTION('',(1.,0.,0.));
#419=DIRECTION('',(0.,1.,0.));
#420=DIRECTION('',(0.,0.,1.));
#421=DIRECTION('',(0.,1.,0.));
#422=DIRECTION('',(0.,0.,1.));
#423=DIRECTION('',(0.,1.,0.));
#424=DIRECTION('',(-1.,0.,0.));
#425=DIRECTION('',(0.,1.,0.));
#426=DIRECTION('',(0.,0.,1.));
#427=DIRECTION('',(0.,1.,0.));
#428=DIRECTION('',(0.,0.,1.));
#429=DIRECTION('',(0.,1.,0.));
#430=DIRECTION('',(-1.,0.,0.));
#431=DIRECTION('',(0.,-1.,0.));
#432=DIRECTION('',(1.,0.,0.));
#433=CARTESIAN_POINT('',(0.,0.,0.));
#434=CARTESIAN_POINT('',(0.00315,-0.004,0.0200152));
#435=CARTESIAN_POINT('',(0.00315,0.001,0.0329852));
#436=CARTESIAN_POINT('',(0.00315,0.001,0.0339852));
#437=CARTESIAN_POINT('',(0.00315,0.001,0.0479852));
#438=CARTESIAN_POINT('',(0.00315,-0.004,0.0339852));
#439=CARTESIAN_POINT('',(0.00315,-0.004,0.0339852));
#440=CARTESIAN_POINT('',(0.00315,-0.004,0.0200152));
#441=CARTESIAN_POINT('',(0.00315,-0.004,0.0060452));
#442=CARTESIAN_POINT('',(0.00315,-0.004,0.0060452));
#443=CARTESIAN_POINT('',(0.00315,0.,0.0060452));
#444=CARTESIAN_POINT('',(0.00315,0.,0.0200152));
#445=CARTESIAN_POINT('',(0.00315,0.,0.0179852));
#446=CARTESIAN_POINT('',(0.00315,0.003,0.0179852));
#447=CARTESIAN_POINT('',(0.00315,0.003,0.0179852));
#448=CARTESIAN_POINT('',(0.00315,0.003,0.0329852));
#449=CARTESIAN_POINT('',(0.00315,0.003,0.0479852));
#450=CARTESIAN_POINT('',(0.00315,0.003,0.0479852));
#451=CARTESIAN_POINT('',(0.,0.,-6.93889390390723E-18));
#452=CARTESIAN_POINT('',(0.,0.,-0.0159992));
#453=CARTESIAN_POINT('',(0.,0.,-0.0136117));
#454=CARTESIAN_POINT('',(0.,0.,-0.0274292));
#455=CARTESIAN_POINT('',(0.,0.,-0.0250417));
#456=CARTESIAN_POINT('',(8.23993651088983E-18,0.,0.0179852));
#457=CARTESIAN_POINT('',(-0.00315,0.,0.0179852));
#458=CARTESIAN_POINT('',(0.0057,0.,0.0060452));
#459=CARTESIAN_POINT('',(0.00825,0.,0.0060452));
#460=CARTESIAN_POINT('',(0.00825,0.,-0.01397));
#461=CARTESIAN_POINT('',(0.00825,0.,-0.0339852));
#462=CARTESIAN_POINT('',(0.,0.,-0.0339852));
#463=CARTESIAN_POINT('',(-0.00825,0.,-0.0339852));
#464=CARTESIAN_POINT('',(-0.00825,0.,-0.01397));
#465=CARTESIAN_POINT('',(-0.00825,0.,0.0060452));
#466=CARTESIAN_POINT('',(-0.0057,0.,0.0060452));
#467=CARTESIAN_POINT('',(-0.00315,0.,0.0060452));
#468=CARTESIAN_POINT('',(-0.00315,0.,0.0200152));
#469=CARTESIAN_POINT('',(-0.00315,-0.004,0.0200152));
#470=CARTESIAN_POINT('',(-0.00315,-0.004,0.0339852));
#471=CARTESIAN_POINT('',(-0.00315,-0.004,0.0339852));
#472=CARTESIAN_POINT('',(-0.00315,0.001,0.0339852));
#473=CARTESIAN_POINT('',(-0.00315,0.001,0.0329852));
#474=CARTESIAN_POINT('',(-0.00315,0.001,0.0479852));
#475=CARTESIAN_POINT('',(-0.00315,0.003,0.0479852));
#476=CARTESIAN_POINT('',(-0.00315,0.003,0.0479852));
#477=CARTESIAN_POINT('',(-0.00315,0.003,0.0329852));
#478=CARTESIAN_POINT('',(-0.00315,0.003,0.0179852));
#479=CARTESIAN_POINT('',(-0.00315,0.003,0.0179852));
#480=CARTESIAN_POINT('',(-0.00315,-0.004,0.0060452));
#481=CARTESIAN_POINT('',(-0.00315,-0.004,0.0060452));
#482=CARTESIAN_POINT('',(-0.00315,-0.004,0.0200152));
#483=CARTESIAN_POINT('',(-0.0057,-0.004,0.0060452));
#484=CARTESIAN_POINT('',(-0.00825,-0.004,0.0060452));
#485=CARTESIAN_POINT('',(-0.00825,-0.004,0.0060452));
#486=CARTESIAN_POINT('',(-0.0057,-0.004,0.0060452));
#487=CARTESIAN_POINT('',(-0.00825,-0.004,-0.01397));
#488=CARTESIAN_POINT('',(-0.00825,-0.004,-0.0339852));
#489=CARTESIAN_POINT('',(-0.00825,-0.004,-0.0339852));
#490=CARTESIAN_POINT('',(-0.00825,-0.004,-0.01397));
#491=CARTESIAN_POINT('',(0.,-0.004,-0.0339852));
#492=CARTESIAN_POINT('',(0.00825,-0.004,-0.0339852));
#493=CARTESIAN_POINT('',(0.00825,-0.004,-0.0339852));
#494=CARTESIAN_POINT('',(0.,-0.004,-0.0339852));
#495=CARTESIAN_POINT('',(0.00825,-0.004,-0.01397));
#496=CARTESIAN_POINT('',(0.00825,-0.004,0.0060452));
#497=CARTESIAN_POINT('',(0.00825,-0.004,0.0060452));
#498=CARTESIAN_POINT('',(0.00825,-0.004,-0.01397));
#499=CARTESIAN_POINT('',(0.0057,-0.004,0.0060452));
#500=CARTESIAN_POINT('',(0.0057,-0.004,0.0060452));
#501=CARTESIAN_POINT('',(0.,-0.004,0.0339852));
#502=CARTESIAN_POINT('',(0.,0.001,0.0339852));
#503=CARTESIAN_POINT('',(0.,-0.004,0.0339852));
#504=CARTESIAN_POINT('',(0.,-0.004,-6.93889390390723E-18));
#505=CARTESIAN_POINT('',(8.23993651088983E-18,0.003,0.0179852));
#506=CARTESIAN_POINT('',(8.23993651088983E-18,0.003,0.0179852));
#507=CARTESIAN_POINT('',(5.63785129692462E-18,0.003,0.0479852));
#508=CARTESIAN_POINT('',(5.63785129692462E-18,0.001,0.0479852));
#509=CARTESIAN_POINT('',(5.63785129692462E-18,0.003,0.0479852));
#510=CARTESIAN_POINT('',(6.93889390390723E-18,0.003,0.0329852));
#511=CARTESIAN_POINT('',(0.,-0.0025,-0.0274292));
#512=CARTESIAN_POINT('',(0.,-0.0025,-0.0274292));
#513=CARTESIAN_POINT('',(0.,-0.0025,-0.0250417));
#514=CARTESIAN_POINT('',(0.,-0.0025,-0.008));
#515=CARTESIAN_POINT('',(0.,-0.0025,-0.0159992));
#516=CARTESIAN_POINT('',(0.,-0.0025,-0.0159992));
#517=CARTESIAN_POINT('',(0.,-0.0025,-0.0136117));
#518=CARTESIAN_POINT('',(0.,-0.0025,-0.008));
#519=CARTESIAN_POINT('',(5.20417042793042E-18,0.001,0.0409852));
#520=MECHANICAL_DESIGN_GEOMETRIC_PRESENTATION_REPRESENTATION('',(#317),
#521);
#521=(
GEOMETRIC_REPRESENTATION_CONTEXT(3)
GLOBAL_UNCERTAINTY_ASSIGNED_CONTEXT((#522))
GLOBAL_UNIT_ASSIGNED_CONTEXT((#525,#524,#523))
REPRESENTATION_CONTEXT('Part 1','TOP_LEVEL_ASSEMBLY_PART')
);
#522=UNCERTAINTY_MEASURE_WITH_UNIT(LENGTH_MEASURE(1.E-8),#525,
'DISTANCE_ACCURACY_VALUE','Maximum Tolerance applied to model');
#523=(
NAMED_UNIT(*)
SI_UNIT($,.STERADIAN.)
SOLID_ANGLE_UNIT()
);
#524=(
NAMED_UNIT(*)
PLANE_ANGLE_UNIT()
SI_UNIT($,.RADIAN.)
);
#525=(
LENGTH_UNIT()
NAMED_UNIT(*)
SI_UNIT($,.METRE.)
);
#526=PRODUCT_DEFINITION_SHAPE('','',#527);
#527=PRODUCT_DEFINITION('','',#529,#528);
#528=PRODUCT_DEFINITION_CONTEXT('',#535,'design');
#529=PRODUCT_DEFINITION_FORMATION_WITH_SPECIFIED_SOURCE('','',#531,
 .NOT_KNOWN.);
#530=PRODUCT_RELATED_PRODUCT_CATEGORY('','',(#531));
#531=PRODUCT('Part 1','Part 1','Part 1',(#533));
#532=PRODUCT_CATEGORY('','');
#533=PRODUCT_CONTEXT('',#535,'mechanical');
#534=APPLICATION_PROTOCOL_DEFINITION('international standard',
'ap242_managed_model_based_3d_engineering',2020,#535);
#535=APPLICATION_CONTEXT('managed model based 3d engineering');
ENDSEC;
END-ISO-10303-21;
