ISO-10303-21;
HEADER;
/* Generated by software containing ST-Developer
 * from STEP Tools, Inc. (www.steptools.com) 
 */
/* OPTION: using custom renumber hook */

FILE_DESCRIPTION(
/* description */ ('STEP AP242 Edition 2',
'CAx-IF Rec.Pracs.---Representation and Presentation of Product Manufa
cturing Information (PMI)---4.0---2014-10-13',
'CAx-IF Rec.Pracs.---3D Tessellated Geometry---0.4---2014-09-14','2;1',
'CAx-IF Rec.Pracs.---User Defined Attributes---1.5---2016-08-15'),
/* implementation_level */ '2;1');

FILE_NAME(
/* name */ 'fullKey',
/* time_stamp */ '2026-08-09T05:40:54Z',
/* author */ (''),
/* organization */ (''),
/* preprocessor_version */ 'ST-DEVELOPER v20',
/* originating_system */ 'ONSHAPE BY PTC INC, 1.219',
/* authorisation */ '  ');

FILE_SCHEMA (('AP242_MANAGED_MODEL_BASED_3D_ENGINEERING_MIM_LF { 1 0 10303 442 3 1 4 }'));
ENDSEC;

DATA;
#10=SHAPE_REPRESENTATION_RELATIONSHIP('','',#243,#11);
#11=ADVANCED_BREP_SHAPE_REPRESENTATION('',(#241),#389);
#12=CYLINDRICAL_SURFACE('',#256,0.0023875);
#13=CYLINDRICAL_SURFACE('',#259,0.0023875);
#14=CIRCLE('',#251,0.0023875);
#15=CIRCLE('',#252,0.0023875);
#16=CIRCLE('',#257,0.0023875);
#17=CIRCLE('',#260,0.0023875);
#18=ORIENTED_EDGE('',*,*,#74,.T.);
#19=ORIENTED_EDGE('',*,*,#75,.F.);
#20=ORIENTED_EDGE('',*,*,#76,.T.);
#21=ORIENTED_EDGE('',*,*,#77,.T.);
#22=ORIENTED_EDGE('',*,*,#78,.F.);
#23=ORIENTED_EDGE('',*,*,#79,.F.);
#24=ORIENTED_EDGE('',*,*,#80,.F.);
#25=ORIENTED_EDGE('',*,*,#81,.T.);
#26=ORIENTED_EDGE('',*,*,#82,.F.);
#27=ORIENTED_EDGE('',*,*,#83,.F.);
#28=ORIENTED_EDGE('',*,*,#84,.T.);
#29=ORIENTED_EDGE('',*,*,#85,.T.);
#30=ORIENTED_EDGE('',*,*,#86,.T.);
#31=ORIENTED_EDGE('',*,*,#87,.F.);
#32=ORIENTED_EDGE('',*,*,#88,.F.);
#33=ORIENTED_EDGE('',*,*,#89,.T.);
#34=ORIENTED_EDGE('',*,*,#75,.T.);
#35=ORIENTED_EDGE('',*,*,#90,.T.);
#36=ORIENTED_EDGE('',*,*,#89,.F.);
#37=ORIENTED_EDGE('',*,*,#91,.F.);
#38=ORIENTED_EDGE('',*,*,#92,.F.);
#39=ORIENTED_EDGE('',*,*,#77,.F.);
#40=ORIENTED_EDGE('',*,*,#93,.T.);
#41=ORIENTED_EDGE('',*,*,#87,.T.);
#42=ORIENTED_EDGE('',*,*,#76,.F.);
#43=ORIENTED_EDGE('',*,*,#91,.T.);
#44=ORIENTED_EDGE('',*,*,#88,.T.);
#45=ORIENTED_EDGE('',*,*,#93,.F.);
#46=ORIENTED_EDGE('',*,*,#94,.F.);
#47=ORIENTED_EDGE('',*,*,#95,.F.);
#48=ORIENTED_EDGE('',*,*,#86,.F.);
#49=ORIENTED_EDGE('',*,*,#96,.T.);
#50=ORIENTED_EDGE('',*,*,#78,.T.);
#51=ORIENTED_EDGE('',*,*,#92,.T.);
#52=ORIENTED_EDGE('',*,*,#83,.T.);
#53=ORIENTED_EDGE('',*,*,#97,.T.);
#54=ORIENTED_EDGE('',*,*,#81,.F.);
#55=ORIENTED_EDGE('',*,*,#98,.F.);
#56=ORIENTED_EDGE('',*,*,#96,.F.);
#57=ORIENTED_EDGE('',*,*,#85,.F.);
#58=ORIENTED_EDGE('',*,*,#99,.T.);
#59=ORIENTED_EDGE('',*,*,#79,.T.);
#60=ORIENTED_EDGE('',*,*,#98,.T.);
#61=ORIENTED_EDGE('',*,*,#80,.T.);
#62=ORIENTED_EDGE('',*,*,#99,.F.);
#63=ORIENTED_EDGE('',*,*,#84,.F.);
#64=ORIENTED_EDGE('',*,*,#100,.F.);
#65=ORIENTED_EDGE('',*,*,#95,.T.);
#66=ORIENTED_EDGE('',*,*,#100,.T.);
#67=ORIENTED_EDGE('',*,*,#101,.F.);
#68=ORIENTED_EDGE('',*,*,#94,.T.);
#69=ORIENTED_EDGE('',*,*,#101,.T.);
#70=ORIENTED_EDGE('',*,*,#90,.F.);
#71=ORIENTED_EDGE('',*,*,#74,.F.);
#72=ORIENTED_EDGE('',*,*,#97,.F.);
#73=ORIENTED_EDGE('',*,*,#82,.T.);
#74=EDGE_CURVE('',#102,#103,#122,.T.);
#75=EDGE_CURVE('',#104,#103,#123,.T.);
#76=EDGE_CURVE('',#104,#105,#124,.T.);
#77=EDGE_CURVE('',#105,#106,#125,.T.);
#78=EDGE_CURVE('',#107,#106,#126,.T.);
#79=EDGE_CURVE('',#108,#107,#127,.T.);
#80=EDGE_CURVE('',#109,#108,#128,.T.);
#81=EDGE_CURVE('',#109,#102,#129,.T.);
#82=EDGE_CURVE('',#110,#111,#130,.T.);
#83=EDGE_CURVE('',#112,#110,#131,.T.);
#84=EDGE_CURVE('',#112,#113,#132,.T.);
#85=EDGE_CURVE('',#113,#114,#133,.T.);
#86=EDGE_CURVE('',#114,#115,#134,.T.);
#87=EDGE_CURVE('',#116,#115,#135,.T.);
#88=EDGE_CURVE('',#117,#116,#136,.T.);
#89=EDGE_CURVE('',#117,#111,#137,.T.);
#90=EDGE_CURVE('',#103,#111,#138,.T.);
#91=EDGE_CURVE('',#104,#117,#139,.T.);
#92=EDGE_CURVE('',#106,#115,#140,.T.);
#93=EDGE_CURVE('',#105,#116,#141,.T.);
#94=EDGE_CURVE('',#118,#118,#14,.T.);
#95=EDGE_CURVE('',#119,#119,#15,.T.);
#96=EDGE_CURVE('',#114,#107,#142,.T.);
#97=EDGE_CURVE('',#110,#102,#143,.T.);
#98=EDGE_CURVE('',#112,#109,#144,.T.);
#99=EDGE_CURVE('',#113,#108,#145,.T.);
#100=EDGE_CURVE('',#120,#120,#16,.T.);
#101=EDGE_CURVE('',#121,#121,#17,.T.);
#102=VERTEX_POINT('',#328);
#103=VERTEX_POINT('',#329);
#104=VERTEX_POINT('',#331);
#105=VERTEX_POINT('',#333);
#106=VERTEX_POINT('',#335);
#107=VERTEX_POINT('',#337);
#108=VERTEX_POINT('',#339);
#109=VERTEX_POINT('',#341);
#110=VERTEX_POINT('',#345);
#111=VERTEX_POINT('',#346);
#112=VERTEX_POINT('',#348);
#113=VERTEX_POINT('',#350);
#114=VERTEX_POINT('',#352);
#115=VERTEX_POINT('',#354);
#116=VERTEX_POINT('',#356);
#117=VERTEX_POINT('',#358);
#118=VERTEX_POINT('',#369);
#119=VERTEX_POINT('',#371);
#120=VERTEX_POINT('',#381);
#121=VERTEX_POINT('',#385);
#122=LINE('',#327,#146);
#123=LINE('',#330,#147);
#124=LINE('',#332,#148);
#125=LINE('',#334,#149);
#126=LINE('',#336,#150);
#127=LINE('',#338,#151);
#128=LINE('',#340,#152);
#129=LINE('',#342,#153);
#130=LINE('',#344,#154);
#131=LINE('',#347,#155);
#132=LINE('',#349,#156);
#133=LINE('',#351,#157);
#134=LINE('',#353,#158);
#135=LINE('',#355,#159);
#136=LINE('',#357,#160);
#137=LINE('',#359,#161);
#138=LINE('',#361,#162);
#139=LINE('',#362,#163);
#140=LINE('',#364,#164);
#141=LINE('',#365,#165);
#142=LINE('',#372,#166);
#143=LINE('',#374,#167);
#144=LINE('',#375,#168);
#145=LINE('',#377,#169);
#146=VECTOR('',#267,1.);
#147=VECTOR('',#268,1.);
#148=VECTOR('',#269,1.);
#149=VECTOR('',#270,1.);
#150=VECTOR('',#271,1.);
#151=VECTOR('',#272,1.);
#152=VECTOR('',#273,1.);
#153=VECTOR('',#274,1.);
#154=VECTOR('',#277,1.);
#155=VECTOR('',#278,1.);
#156=VECTOR('',#279,1.);
#157=VECTOR('',#280,1.);
#158=VECTOR('',#281,1.);
#159=VECTOR('',#282,1.);
#160=VECTOR('',#283,1.);
#161=VECTOR('',#284,1.);
#162=VECTOR('',#287,1.);
#163=VECTOR('',#288,1.);
#164=VECTOR('',#291,1.);
#165=VECTOR('',#292,1.);
#166=VECTOR('',#301,1.);
#167=VECTOR('',#304,1.);
#168=VECTOR('',#305,1.);
#169=VECTOR('',#308,1.);
#170=EDGE_LOOP('',(#18,#19,#20,#21,#22,#23,#24,#25));
#171=EDGE_LOOP('',(#26,#27,#28,#29,#30,#31,#32,#33));
#172=EDGE_LOOP('',(#34,#35,#36,#37));
#173=EDGE_LOOP('',(#38,#39,#40,#41));
#174=EDGE_LOOP('',(#42,#43,#44,#45));
#175=EDGE_LOOP('',(#46));
#176=EDGE_LOOP('',(#47));
#177=EDGE_LOOP('',(#48,#49,#50,#51));
#178=EDGE_LOOP('',(#52,#53,#54,#55));
#179=EDGE_LOOP('',(#56,#57,#58,#59));
#180=EDGE_LOOP('',(#60,#61,#62,#63));
#181=EDGE_LOOP('',(#64));
#182=EDGE_LOOP('',(#65));
#183=EDGE_LOOP('',(#66));
#184=EDGE_LOOP('',(#67));
#185=EDGE_LOOP('',(#68));
#186=EDGE_LOOP('',(#69));
#187=EDGE_LOOP('',(#70,#71,#72,#73));
#188=FACE_BOUND('',#170,.T.);
#189=FACE_BOUND('',#171,.T.);
#190=FACE_BOUND('',#172,.T.);
#191=FACE_BOUND('',#173,.T.);
#192=FACE_BOUND('',#174,.T.);
#193=FACE_BOUND('',#175,.T.);
#194=FACE_BOUND('',#176,.T.);
#195=FACE_BOUND('',#177,.T.);
#196=FACE_BOUND('',#178,.T.);
#197=FACE_BOUND('',#179,.T.);
#198=FACE_BOUND('',#180,.T.);
#199=FACE_BOUND('',#181,.T.);
#200=FACE_BOUND('',#182,.T.);
#201=FACE_BOUND('',#183,.T.);
#202=FACE_BOUND('',#184,.T.);
#203=FACE_BOUND('',#185,.T.);
#204=FACE_BOUND('',#186,.T.);
#205=FACE_BOUND('',#187,.T.);
#206=PLANE('',#245);
#207=PLANE('',#246);
#208=PLANE('',#247);
#209=PLANE('',#248);
#210=PLANE('',#249);
#211=PLANE('',#250);
#212=PLANE('',#253);
#213=PLANE('',#254);
#214=PLANE('',#255);
#215=PLANE('',#258);
#216=PLANE('',#261);
#217=PLANE('',#262);
#218=ADVANCED_FACE('',(#188),#206,.T.);
#219=ADVANCED_FACE('',(#189),#207,.F.);
#220=ADVANCED_FACE('',(#190),#208,.F.);
#221=ADVANCED_FACE('',(#191),#209,.T.);
#222=ADVANCED_FACE('',(#192),#210,.T.);
#223=ADVANCED_FACE('',(#193,#194,#195),#211,.F.);
#224=ADVANCED_FACE('',(#196),#212,.F.);
#225=ADVANCED_FACE('',(#197),#213,.T.);
#226=ADVANCED_FACE('',(#198),#214,.F.);
#227=ADVANCED_FACE('',(#199,#200),#12,.F.);
#228=ADVANCED_FACE('',(#201),#215,.T.);
#229=ADVANCED_FACE('',(#202,#203),#13,.F.);
#230=ADVANCED_FACE('',(#204),#216,.T.);
#231=ADVANCED_FACE('',(#205),#217,.T.);
#232=CLOSED_SHELL('',(#218,#219,#220,#221,#222,#223,#224,#225,#226,#227,
#228,#229,#230,#231));
#233=STYLED_ITEM('',(#234),#241);
#234=PRESENTATION_STYLE_ASSIGNMENT((#235));
#235=SURFACE_STYLE_USAGE(.BOTH.,#236);
#236=SURFACE_SIDE_STYLE('',(#237));
#237=SURFACE_STYLE_FILL_AREA(#238);
#238=FILL_AREA_STYLE('',(#239));
#239=FILL_AREA_STYLE_COLOUR('',#240);
#240=COLOUR_RGB('',0.615686274509804,0.811764705882353,0.929411764705882);
#241=MANIFOLD_SOLID_BREP('Part 1',#232);
#242=SHAPE_DEFINITION_REPRESENTATION(#394,#243);
#243=SHAPE_REPRESENTATION('Part 1',(#244),#389);
#244=AXIS2_PLACEMENT_3D('',#325,#263,#264);
#245=AXIS2_PLACEMENT_3D('',#326,#265,#266);
#246=AXIS2_PLACEMENT_3D('',#343,#275,#276);
#247=AXIS2_PLACEMENT_3D('',#360,#285,#286);
#248=AXIS2_PLACEMENT_3D('',#363,#289,#290);
#249=AXIS2_PLACEMENT_3D('',#366,#293,#294);
#250=AXIS2_PLACEMENT_3D('',#367,#295,#296);
#251=AXIS2_PLACEMENT_3D('',#368,#297,#298);
#252=AXIS2_PLACEMENT_3D('',#370,#299,#300);
#253=AXIS2_PLACEMENT_3D('',#373,#302,#303);
#254=AXIS2_PLACEMENT_3D('',#376,#306,#307);
#255=AXIS2_PLACEMENT_3D('',#378,#309,#310);
#256=AXIS2_PLACEMENT_3D('',#379,#311,#312);
#257=AXIS2_PLACEMENT_3D('',#380,#313,#314);
#258=AXIS2_PLACEMENT_3D('',#382,#315,#316);
#259=AXIS2_PLACEMENT_3D('',#383,#317,#318);
#260=AXIS2_PLACEMENT_3D('',#384,#319,#320);
#261=AXIS2_PLACEMENT_3D('',#386,#321,#322);
#262=AXIS2_PLACEMENT_3D('',#387,#323,#324);
#263=DIRECTION('',(0.,0.,1.));
#264=DIRECTION('',(1.,0.,0.));
#265=DIRECTION('',(1.,0.,2.04173990557867E-16));
#266=DIRECTION('',(2.04173990557867E-16,0.,-1.));
#267=DIRECTION('',(0.,0.,-1.));
#268=DIRECTION('',(0.,1.,0.));
#269=DIRECTION('',(2.04173990557867E-16,0.,-1.));
#270=DIRECTION('',(0.,1.,0.));
#271=DIRECTION('',(2.04173990557867E-16,0.,-1.));
#272=DIRECTION('',(0.,-1.,0.));
#273=DIRECTION('',(0.,0.,-1.));
#274=DIRECTION('',(0.,-1.,0.));
#275=DIRECTION('',(1.,0.,2.04173990557867E-16));
#276=DIRECTION('',(2.04173990557867E-16,0.,-1.));
#277=DIRECTION('',(0.,0.,-1.));
#278=DIRECTION('',(0.,-1.,0.));
#279=DIRECTION('',(0.,0.,-1.));
#280=DIRECTION('',(0.,-1.,0.));
#281=DIRECTION('',(2.04173990557867E-16,0.,-1.));
#282=DIRECTION('',(0.,1.,0.));
#283=DIRECTION('',(2.04173990557867E-16,0.,-1.));
#284=DIRECTION('',(0.,1.,0.));
#285=DIRECTION('',(0.,0.,-1.));
#286=DIRECTION('',(-1.,0.,0.));
#287=DIRECTION('',(-1.,0.,0.));
#288=DIRECTION('',(-1.,0.,0.));
#289=DIRECTION('',(0.,0.,-1.));
#290=DIRECTION('',(-1.,0.,0.));
#291=DIRECTION('',(-1.,0.,0.));
#292=DIRECTION('',(-1.,0.,0.));
#293=DIRECTION('',(0.,-1.,0.));
#294=DIRECTION('',(1.,0.,0.));
#295=DIRECTION('',(0.,-1.,0.));
#296=DIRECTION('',(1.,0.,0.));
#297=DIRECTION('',(0.,1.,0.));
#298=DIRECTION('',(0.,0.,1.));
#299=DIRECTION('',(0.,1.,0.));
#300=DIRECTION('',(0.,0.,1.));
#301=DIRECTION('',(1.,0.,0.));
#302=DIRECTION('',(0.,0.,-1.));
#303=DIRECTION('',(-1.,0.,0.));
#304=DIRECTION('',(1.,0.,0.));
#305=DIRECTION('',(1.,0.,0.));
#306=DIRECTION('',(0.,0.,-1.));
#307=DIRECTION('',(-1.,0.,0.));
#308=DIRECTION('',(1.,0.,0.));
#309=DIRECTION('',(0.,-1.,0.));
#310=DIRECTION('',(1.,0.,0.));
#311=DIRECTION('',(0.,1.,0.));
#312=DIRECTION('',(0.,0.,1.));
#313=DIRECTION('',(0.,1.,0.));
#314=DIRECTION('',(0.,0.,1.));
#315=DIRECTION('',(0.,1.,0.));
#316=DIRECTION('',(-1.,0.,0.));
#317=DIRECTION('',(0.,1.,0.));
#318=DIRECTION('',(0.,0.,1.));
#319=DIRECTION('',(0.,1.,0.));
#320=DIRECTION('',(0.,0.,1.));
#321=DIRECTION('',(0.,1.,0.));
#322=DIRECTION('',(-1.,0.,0.));
#323=DIRECTION('',(0.,-1.,0.));
#324=DIRECTION('',(1.,0.,0.));
#325=CARTESIAN_POINT('',(0.,0.,0.));
#326=CARTESIAN_POINT('',(0.00825,-0.004,-6.93889390390723E-18));
#327=CARTESIAN_POINT('',(0.00825,0.001,0.0329852));
#328=CARTESIAN_POINT('',(0.00825,0.001,0.0479852));
#329=CARTESIAN_POINT('',(0.00825,0.001,0.0339852));
#330=CARTESIAN_POINT('',(0.00825,-0.004,0.0339852));
#331=CARTESIAN_POINT('',(0.00825,-0.004,0.0339852));
#332=CARTESIAN_POINT('',(0.00825,-0.004,-6.93889390390723E-18));
#333=CARTESIAN_POINT('',(0.00825,-0.004,-0.0339852));
#334=CARTESIAN_POINT('',(0.00825,-0.004,-0.0339852));
#335=CARTESIAN_POINT('',(0.00825,0.,-0.0339852));
#336=CARTESIAN_POINT('',(0.00825,0.,-6.93889390390723E-18));
#337=CARTESIAN_POINT('',(0.00825,0.,0.0179852));
#338=CARTESIAN_POINT('',(0.00825,0.003,0.0179852));
#339=CARTESIAN_POINT('',(0.00825,0.003,0.0179852));
#340=CARTESIAN_POINT('',(0.00825,0.003,0.0329852));
#341=CARTESIAN_POINT('',(0.00825,0.003,0.0479852));
#342=CARTESIAN_POINT('',(0.00825,0.003,0.0479852));
#343=CARTESIAN_POINT('',(-0.00825,-0.004,-6.93889390390723E-18));
#344=CARTESIAN_POINT('',(-0.00825,0.001,0.0329852));
#345=CARTESIAN_POINT('',(-0.00825,0.001,0.0479852));
#346=CARTESIAN_POINT('',(-0.00825,0.001,0.0339852));
#347=CARTESIAN_POINT('',(-0.00825,0.003,0.0479852));
#348=CARTESIAN_POINT('',(-0.00825,0.003,0.0479852));
#349=CARTESIAN_POINT('',(-0.00825,0.003,0.0329852));
#350=CARTESIAN_POINT('',(-0.00825,0.003,0.0179852));
#351=CARTESIAN_POINT('',(-0.00825,0.003,0.0179852));
#352=CARTESIAN_POINT('',(-0.00825,0.,0.0179852));
#353=CARTESIAN_POINT('',(-0.00825,0.,-6.93889390390723E-18));
#354=CARTESIAN_POINT('',(-0.00825,0.,-0.0339852));
#355=CARTESIAN_POINT('',(-0.00825,-0.004,-0.0339852));
#356=CARTESIAN_POINT('',(-0.00825,-0.004,-0.0339852));
#357=CARTESIAN_POINT('',(-0.00825,-0.004,-6.93889390390723E-18));
#358=CARTESIAN_POINT('',(-0.00825,-0.004,0.0339852));
#359=CARTESIAN_POINT('',(-0.00825,-0.004,0.0339852));
#360=CARTESIAN_POINT('',(-8.67361737988404E-18,-0.004,0.0339852));
#361=CARTESIAN_POINT('',(-8.67361737988404E-18,0.001,0.0339852));
#362=CARTESIAN_POINT('',(-8.67361737988404E-18,-0.004,0.0339852));
#363=CARTESIAN_POINT('',(5.20417042793042E-18,-0.004,-0.0339852));
#364=CARTESIAN_POINT('',(5.20417042793042E-18,0.,-0.0339852));
#365=CARTESIAN_POINT('',(5.20417042793042E-18,-0.004,-0.0339852));
#366=CARTESIAN_POINT('',(-1.7347234759768E-18,-0.004,-6.93889390390723E-18));
#367=CARTESIAN_POINT('',(-1.7347234759768E-18,0.,-6.93889390390723E-18));
#368=CARTESIAN_POINT('',(0.,0.,-0.0159992));
#369=CARTESIAN_POINT('',(0.,0.,-0.0136117));
#370=CARTESIAN_POINT('',(0.,0.,-0.0274292));
#371=CARTESIAN_POINT('',(0.,0.,-0.0250417));
#372=CARTESIAN_POINT('',(-5.20417042793042E-18,0.,0.0179852));
#373=CARTESIAN_POINT('',(-8.67361737988404E-18,0.003,0.0479852));
#374=CARTESIAN_POINT('',(-8.67361737988404E-18,0.001,0.0479852));
#375=CARTESIAN_POINT('',(-8.67361737988404E-18,0.003,0.0479852));
#376=CARTESIAN_POINT('',(-5.20417042793042E-18,0.003,0.0179852));
#377=CARTESIAN_POINT('',(-5.20417042793042E-18,0.003,0.0179852));
#378=CARTESIAN_POINT('',(-6.93889390390723E-18,0.003,0.0329852));
#379=CARTESIAN_POINT('',(0.,-0.0025,-0.0274292));
#380=CARTESIAN_POINT('',(0.,-0.0025,-0.0274292));
#381=CARTESIAN_POINT('',(0.,-0.0025,-0.0250417));
#382=CARTESIAN_POINT('',(0.,-0.0025,-0.008));
#383=CARTESIAN_POINT('',(0.,-0.0025,-0.0159992));
#384=CARTESIAN_POINT('',(0.,-0.0025,-0.0159992));
#385=CARTESIAN_POINT('',(0.,-0.0025,-0.0136117));
#386=CARTESIAN_POINT('',(0.,-0.0025,-0.008));
#387=CARTESIAN_POINT('',(-6.93889390390723E-18,0.001,0.0409852));
#388=MECHANICAL_DESIGN_GEOMETRIC_PRESENTATION_REPRESENTATION('',(#233),
#389);
#389=(
GEOMETRIC_REPRESENTATION_CONTEXT(3)
GLOBAL_UNCERTAINTY_ASSIGNED_CONTEXT((#390))
GLOBAL_UNIT_ASSIGNED_CONTEXT((#393,#392,#391))
REPRESENTATION_CONTEXT('Part 1','TOP_LEVEL_ASSEMBLY_PART')
);
#390=UNCERTAINTY_MEASURE_WITH_UNIT(LENGTH_MEASURE(1.E-8),#393,
'DISTANCE_ACCURACY_VALUE','Maximum Tolerance applied to model');
#391=(
NAMED_UNIT(*)
SI_UNIT($,.STERADIAN.)
SOLID_ANGLE_UNIT()
);
#392=(
NAMED_UNIT(*)
PLANE_ANGLE_UNIT()
SI_UNIT($,.RADIAN.)
);
#393=(
LENGTH_UNIT()
NAMED_UNIT(*)
SI_UNIT($,.METRE.)
);
#394=PRODUCT_DEFINITION_SHAPE('','',#395);
#395=PRODUCT_DEFINITION('','',#397,#396);
#396=PRODUCT_DEFINITION_CONTEXT('',#403,'design');
#397=PRODUCT_DEFINITION_FORMATION_WITH_SPECIFIED_SOURCE('','',#399,
 .NOT_KNOWN.);
#398=PRODUCT_RELATED_PRODUCT_CATEGORY('','',(#399));
#399=PRODUCT('Part 1','Part 1','Part 1',(#401));
#400=PRODUCT_CATEGORY('','');
#401=PRODUCT_CONTEXT('',#403,'mechanical');
#402=APPLICATION_PROTOCOL_DEFINITION('international standard',
'ap242_managed_model_based_3d_engineering',2020,#403);
#403=APPLICATION_CONTEXT('managed model based 3d engineering');
ENDSEC;
END-ISO-10303-21;
