ISO-10303-21;
HEADER;
/* Generated by software containing ST-Developer
 * from STEP Tools, Inc. (www.steptools.com) 
 */
/* OPTION: using custom renumber hook */

FILE_DESCRIPTION(
/* description */ ('STEP AP242 Edition 2',
'CAx-IF Rec.Pracs.---Representation and Presentation of Product Manufa
cturing Information (PMI)---4.0---2014-10-13',
'CAx-IF Rec.Pracs.---3D Tessellated Geometry---0.4---2014-09-14','2;1',
'CAx-IF Rec.Pracs.---User Defined Attributes---1.5---2016-08-15'),
/* implementation_level */ '2;1');

FILE_NAME(
/* name */ 'leftKey',
/* time_stamp */ '2026-08-09T03:10:49Z',
/* author */ (''),
/* organization */ (''),
/* preprocessor_version */ 'ST-DEVELOPER v20',
/* originating_system */ 'ONSHAPE BY PTC INC, 1.219',
/* authorisation */ '  ');

FILE_SCHEMA (('AP242_MANAGED_MODEL_BASED_3D_ENGINEERING_MIM_LF { 1 0 10303 442 3 1 4 }'));
ENDSEC;

DATA;
#10=SHAPE_REPRESENTATION_RELATIONSHIP('','',#285,#11);
#11=ADVANCED_BREP_SHAPE_REPRESENTATION('',(#283),#455);
#12=CYLINDRICAL_SURFACE('',#300,0.0023875);
#13=CYLINDRICAL_SURFACE('',#303,0.0023875);
#14=CIRCLE('',#295,0.0023875);
#15=CIRCLE('',#296,0.0023875);
#16=CIRCLE('',#301,0.0023875);
#17=CIRCLE('',#304,0.0023875);
#18=ORIENTED_EDGE('',*,*,#86,.F.);
#19=ORIENTED_EDGE('',*,*,#87,.F.);
#20=ORIENTED_EDGE('',*,*,#88,.T.);
#21=ORIENTED_EDGE('',*,*,#89,.T.);
#22=ORIENTED_EDGE('',*,*,#90,.F.);
#23=ORIENTED_EDGE('',*,*,#91,.F.);
#24=ORIENTED_EDGE('',*,*,#92,.T.);
#25=ORIENTED_EDGE('',*,*,#93,.T.);
#26=ORIENTED_EDGE('',*,*,#94,.F.);
#27=ORIENTED_EDGE('',*,*,#95,.F.);
#28=ORIENTED_EDGE('',*,*,#96,.T.);
#29=ORIENTED_EDGE('',*,*,#97,.T.);
#30=ORIENTED_EDGE('',*,*,#98,.F.);
#31=ORIENTED_EDGE('',*,*,#89,.F.);
#32=ORIENTED_EDGE('',*,*,#99,.T.);
#33=ORIENTED_EDGE('',*,*,#95,.T.);
#34=ORIENTED_EDGE('',*,*,#87,.T.);
#35=ORIENTED_EDGE('',*,*,#100,.T.);
#36=ORIENTED_EDGE('',*,*,#101,.F.);
#37=ORIENTED_EDGE('',*,*,#102,.F.);
#38=ORIENTED_EDGE('',*,*,#101,.T.);
#39=ORIENTED_EDGE('',*,*,#103,.T.);
#40=ORIENTED_EDGE('',*,*,#104,.F.);
#41=ORIENTED_EDGE('',*,*,#105,.F.);
#42=ORIENTED_EDGE('',*,*,#106,.T.);
#43=ORIENTED_EDGE('',*,*,#107,.T.);
#44=ORIENTED_EDGE('',*,*,#108,.F.);
#45=ORIENTED_EDGE('',*,*,#109,.F.);
#46=ORIENTED_EDGE('',*,*,#110,.F.);
#47=ORIENTED_EDGE('',*,*,#97,.F.);
#48=ORIENTED_EDGE('',*,*,#111,.T.);
#49=ORIENTED_EDGE('',*,*,#108,.T.);
#50=ORIENTED_EDGE('',*,*,#96,.F.);
#51=ORIENTED_EDGE('',*,*,#99,.F.);
#52=ORIENTED_EDGE('',*,*,#88,.F.);
#53=ORIENTED_EDGE('',*,*,#102,.T.);
#54=ORIENTED_EDGE('',*,*,#109,.T.);
#55=ORIENTED_EDGE('',*,*,#111,.F.);
#56=ORIENTED_EDGE('',*,*,#112,.F.);
#57=ORIENTED_EDGE('',*,*,#113,.F.);
#58=ORIENTED_EDGE('',*,*,#107,.F.);
#59=ORIENTED_EDGE('',*,*,#114,.T.);
#60=ORIENTED_EDGE('',*,*,#90,.T.);
#61=ORIENTED_EDGE('',*,*,#98,.T.);
#62=ORIENTED_EDGE('',*,*,#94,.T.);
#63=ORIENTED_EDGE('',*,*,#110,.T.);
#64=ORIENTED_EDGE('',*,*,#114,.F.);
#65=ORIENTED_EDGE('',*,*,#106,.F.);
#66=ORIENTED_EDGE('',*,*,#115,.T.);
#67=ORIENTED_EDGE('',*,*,#91,.T.);
#68=ORIENTED_EDGE('',*,*,#104,.T.);
#69=ORIENTED_EDGE('',*,*,#116,.T.);
#70=ORIENTED_EDGE('',*,*,#93,.F.);
#71=ORIENTED_EDGE('',*,*,#117,.F.);
#72=ORIENTED_EDGE('',*,*,#105,.T.);
#73=ORIENTED_EDGE('',*,*,#117,.T.);
#74=ORIENTED_EDGE('',*,*,#92,.F.);
#75=ORIENTED_EDGE('',*,*,#115,.F.);
#76=ORIENTED_EDGE('',*,*,#118,.F.);
#77=ORIENTED_EDGE('',*,*,#113,.T.);
#78=ORIENTED_EDGE('',*,*,#118,.T.);
#79=ORIENTED_EDGE('',*,*,#119,.F.);
#80=ORIENTED_EDGE('',*,*,#112,.T.);
#81=ORIENTED_EDGE('',*,*,#119,.T.);
#82=ORIENTED_EDGE('',*,*,#100,.F.);
#83=ORIENTED_EDGE('',*,*,#86,.T.);
#84=ORIENTED_EDGE('',*,*,#116,.F.);
#85=ORIENTED_EDGE('',*,*,#103,.F.);
#86=EDGE_CURVE('',#120,#121,#144,.T.);
#87=EDGE_CURVE('',#122,#120,#145,.T.);
#88=EDGE_CURVE('',#122,#123,#146,.T.);
#89=EDGE_CURVE('',#123,#124,#147,.T.);
#90=EDGE_CURVE('',#125,#124,#148,.T.);
#91=EDGE_CURVE('',#126,#125,#149,.T.);
#92=EDGE_CURVE('',#126,#127,#150,.T.);
#93=EDGE_CURVE('',#127,#121,#151,.T.);
#94=EDGE_CURVE('',#128,#129,#152,.T.);
#95=EDGE_CURVE('',#130,#128,#153,.T.);
#96=EDGE_CURVE('',#130,#131,#154,.T.);
#97=EDGE_CURVE('',#131,#129,#155,.T.);
#98=EDGE_CURVE('',#124,#128,#156,.T.);
#99=EDGE_CURVE('',#123,#130,#157,.T.);
#100=EDGE_CURVE('',#120,#132,#158,.T.);
#101=EDGE_CURVE('',#133,#132,#159,.T.);
#102=EDGE_CURVE('',#122,#133,#160,.T.);
#103=EDGE_CURVE('',#132,#134,#161,.T.);
#104=EDGE_CURVE('',#135,#134,#162,.T.);
#105=EDGE_CURVE('',#136,#135,#163,.T.);
#106=EDGE_CURVE('',#136,#137,#164,.T.);
#107=EDGE_CURVE('',#137,#138,#165,.T.);
#108=EDGE_CURVE('',#139,#138,#166,.T.);
#109=EDGE_CURVE('',#133,#139,#167,.T.);
#110=EDGE_CURVE('',#129,#138,#168,.T.);
#111=EDGE_CURVE('',#131,#139,#169,.T.);
#112=EDGE_CURVE('',#140,#140,#14,.T.);
#113=EDGE_CURVE('',#141,#141,#15,.T.);
#114=EDGE_CURVE('',#137,#125,#170,.T.);
#115=EDGE_CURVE('',#136,#126,#171,.T.);
#116=EDGE_CURVE('',#134,#121,#172,.T.);
#117=EDGE_CURVE('',#135,#127,#173,.T.);
#118=EDGE_CURVE('',#142,#142,#16,.T.);
#119=EDGE_CURVE('',#143,#143,#17,.T.);
#120=VERTEX_POINT('',#382);
#121=VERTEX_POINT('',#383);
#122=VERTEX_POINT('',#385);
#123=VERTEX_POINT('',#387);
#124=VERTEX_POINT('',#389);
#125=VERTEX_POINT('',#391);
#126=VERTEX_POINT('',#393);
#127=VERTEX_POINT('',#395);
#128=VERTEX_POINT('',#399);
#129=VERTEX_POINT('',#400);
#130=VERTEX_POINT('',#402);
#131=VERTEX_POINT('',#404);
#132=VERTEX_POINT('',#411);
#133=VERTEX_POINT('',#413);
#134=VERTEX_POINT('',#417);
#135=VERTEX_POINT('',#419);
#136=VERTEX_POINT('',#421);
#137=VERTEX_POINT('',#423);
#138=VERTEX_POINT('',#425);
#139=VERTEX_POINT('',#427);
#140=VERTEX_POINT('',#435);
#141=VERTEX_POINT('',#437);
#142=VERTEX_POINT('',#447);
#143=VERTEX_POINT('',#451);
#144=LINE('',#381,#174);
#145=LINE('',#384,#175);
#146=LINE('',#386,#176);
#147=LINE('',#388,#177);
#148=LINE('',#390,#178);
#149=LINE('',#392,#179);
#150=LINE('',#394,#180);
#151=LINE('',#396,#181);
#152=LINE('',#398,#182);
#153=LINE('',#401,#183);
#154=LINE('',#403,#184);
#155=LINE('',#405,#185);
#156=LINE('',#407,#186);
#157=LINE('',#408,#187);
#158=LINE('',#410,#188);
#159=LINE('',#412,#189);
#160=LINE('',#414,#190);
#161=LINE('',#416,#191);
#162=LINE('',#418,#192);
#163=LINE('',#420,#193);
#164=LINE('',#422,#194);
#165=LINE('',#424,#195);
#166=LINE('',#426,#196);
#167=LINE('',#428,#197);
#168=LINE('',#430,#198);
#169=LINE('',#431,#199);
#170=LINE('',#438,#200);
#171=LINE('',#440,#201);
#172=LINE('',#442,#202);
#173=LINE('',#443,#203);
#174=VECTOR('',#311,1.);
#175=VECTOR('',#312,1.);
#176=VECTOR('',#313,1.);
#177=VECTOR('',#314,1.);
#178=VECTOR('',#315,1.);
#179=VECTOR('',#316,1.);
#180=VECTOR('',#317,1.);
#181=VECTOR('',#318,1.);
#182=VECTOR('',#321,1.);
#183=VECTOR('',#322,1.);
#184=VECTOR('',#323,1.);
#185=VECTOR('',#324,1.);
#186=VECTOR('',#327,1.);
#187=VECTOR('',#328,1.);
#188=VECTOR('',#331,1.);
#189=VECTOR('',#332,1.);
#190=VECTOR('',#333,1.);
#191=VECTOR('',#336,1.);
#192=VECTOR('',#337,1.);
#193=VECTOR('',#338,1.);
#194=VECTOR('',#339,1.);
#195=VECTOR('',#340,1.);
#196=VECTOR('',#341,1.);
#197=VECTOR('',#342,1.);
#198=VECTOR('',#345,1.);
#199=VECTOR('',#346,1.);
#200=VECTOR('',#355,1.);
#201=VECTOR('',#358,1.);
#202=VECTOR('',#361,1.);
#203=VECTOR('',#362,1.);
#204=EDGE_LOOP('',(#18,#19,#20,#21,#22,#23,#24,#25));
#205=EDGE_LOOP('',(#26,#27,#28,#29));
#206=EDGE_LOOP('',(#30,#31,#32,#33));
#207=EDGE_LOOP('',(#34,#35,#36,#37));
#208=EDGE_LOOP('',(#38,#39,#40,#41,#42,#43,#44,#45));
#209=EDGE_LOOP('',(#46,#47,#48,#49));
#210=EDGE_LOOP('',(#50,#51,#52,#53,#54,#55));
#211=EDGE_LOOP('',(#56));
#212=EDGE_LOOP('',(#57));
#213=EDGE_LOOP('',(#58,#59,#60,#61,#62,#63));
#214=EDGE_LOOP('',(#64,#65,#66,#67));
#215=EDGE_LOOP('',(#68,#69,#70,#71));
#216=EDGE_LOOP('',(#72,#73,#74,#75));
#217=EDGE_LOOP('',(#76));
#218=EDGE_LOOP('',(#77));
#219=EDGE_LOOP('',(#78));
#220=EDGE_LOOP('',(#79));
#221=EDGE_LOOP('',(#80));
#222=EDGE_LOOP('',(#81));
#223=EDGE_LOOP('',(#82,#83,#84,#85));
#224=FACE_BOUND('',#204,.T.);
#225=FACE_BOUND('',#205,.T.);
#226=FACE_BOUND('',#206,.T.);
#227=FACE_BOUND('',#207,.T.);
#228=FACE_BOUND('',#208,.T.);
#229=FACE_BOUND('',#209,.T.);
#230=FACE_BOUND('',#210,.T.);
#231=FACE_BOUND('',#211,.T.);
#232=FACE_BOUND('',#212,.T.);
#233=FACE_BOUND('',#213,.T.);
#234=FACE_BOUND('',#214,.T.);
#235=FACE_BOUND('',#215,.T.);
#236=FACE_BOUND('',#216,.T.);
#237=FACE_BOUND('',#217,.T.);
#238=FACE_BOUND('',#218,.T.);
#239=FACE_BOUND('',#219,.T.);
#240=FACE_BOUND('',#220,.T.);
#241=FACE_BOUND('',#221,.T.);
#242=FACE_BOUND('',#222,.T.);
#243=FACE_BOUND('',#223,.T.);
#244=PLANE('',#287);
#245=PLANE('',#288);
#246=PLANE('',#289);
#247=PLANE('',#290);
#248=PLANE('',#291);
#249=PLANE('',#292);
#250=PLANE('',#293);
#251=PLANE('',#294);
#252=PLANE('',#297);
#253=PLANE('',#298);
#254=PLANE('',#299);
#255=PLANE('',#302);
#256=PLANE('',#305);
#257=PLANE('',#306);
#258=ADVANCED_FACE('',(#224),#244,.T.);
#259=ADVANCED_FACE('',(#225),#245,.T.);
#260=ADVANCED_FACE('',(#226),#246,.T.);
#261=ADVANCED_FACE('',(#227),#247,.F.);
#262=ADVANCED_FACE('',(#228),#248,.F.);
#263=ADVANCED_FACE('',(#229),#249,.T.);
#264=ADVANCED_FACE('',(#230),#250,.T.);
#265=ADVANCED_FACE('',(#231,#232,#233),#251,.F.);
#266=ADVANCED_FACE('',(#234),#252,.T.);
#267=ADVANCED_FACE('',(#235),#253,.F.);
#268=ADVANCED_FACE('',(#236),#254,.F.);
#269=ADVANCED_FACE('',(#237,#238),#12,.F.);
#270=ADVANCED_FACE('',(#239),#255,.T.);
#271=ADVANCED_FACE('',(#240,#241),#13,.F.);
#272=ADVANCED_FACE('',(#242),#256,.T.);
#273=ADVANCED_FACE('',(#243),#257,.T.);
#274=CLOSED_SHELL('',(#258,#259,#260,#261,#262,#263,#264,#265,#266,#267,
#268,#269,#270,#271,#272,#273));
#275=STYLED_ITEM('',(#276),#283);
#276=PRESENTATION_STYLE_ASSIGNMENT((#277));
#277=SURFACE_STYLE_USAGE(.BOTH.,#278);
#278=SURFACE_SIDE_STYLE('',(#279));
#279=SURFACE_STYLE_FILL_AREA(#280);
#280=FILL_AREA_STYLE('',(#281));
#281=FILL_AREA_STYLE_COLOUR('',#282);
#282=COLOUR_RGB('',0.615686274509804,0.811764705882353,0.929411764705882);
#283=MANIFOLD_SOLID_BREP('Part 1',#274);
#284=SHAPE_DEFINITION_REPRESENTATION(#460,#285);
#285=SHAPE_REPRESENTATION('Part 1',(#286),#455);
#286=AXIS2_PLACEMENT_3D('',#379,#307,#308);
#287=AXIS2_PLACEMENT_3D('',#380,#309,#310);
#288=AXIS2_PLACEMENT_3D('',#397,#319,#320);
#289=AXIS2_PLACEMENT_3D('',#406,#325,#326);
#290=AXIS2_PLACEMENT_3D('',#409,#329,#330);
#291=AXIS2_PLACEMENT_3D('',#415,#334,#335);
#292=AXIS2_PLACEMENT_3D('',#429,#343,#344);
#293=AXIS2_PLACEMENT_3D('',#432,#347,#348);
#294=AXIS2_PLACEMENT_3D('',#433,#349,#350);
#295=AXIS2_PLACEMENT_3D('',#434,#351,#352);
#296=AXIS2_PLACEMENT_3D('',#436,#353,#354);
#297=AXIS2_PLACEMENT_3D('',#439,#356,#357);
#298=AXIS2_PLACEMENT_3D('',#441,#359,#360);
#299=AXIS2_PLACEMENT_3D('',#444,#363,#364);
#300=AXIS2_PLACEMENT_3D('',#445,#365,#366);
#301=AXIS2_PLACEMENT_3D('',#446,#367,#368);
#302=AXIS2_PLACEMENT_3D('',#448,#369,#370);
#303=AXIS2_PLACEMENT_3D('',#449,#371,#372);
#304=AXIS2_PLACEMENT_3D('',#450,#373,#374);
#305=AXIS2_PLACEMENT_3D('',#452,#375,#376);
#306=AXIS2_PLACEMENT_3D('',#453,#377,#378);
#307=DIRECTION('',(0.,0.,1.));
#308=DIRECTION('',(1.,0.,0.));
#309=DIRECTION('',(1.,0.,1.24174908802921E-16));
#310=DIRECTION('',(1.24174908802921E-16,0.,-1.));
#311=DIRECTION('',(-1.87928376564154E-16,0.,1.));
#312=DIRECTION('',(0.,1.,0.));
#313=DIRECTION('',(1.24174908802921E-16,0.,-1.));
#314=DIRECTION('',(0.,1.,0.));
#315=DIRECTION('',(1.24174908802921E-16,0.,-1.));
#316=DIRECTION('',(0.,-1.,0.));
#317=DIRECTION('',(-1.87928376564154E-16,0.,1.));
#318=DIRECTION('',(0.,-1.,0.));
#319=DIRECTION('',(1.,0.,0.));
#320=DIRECTION('',(0.,0.,-1.));
#321=DIRECTION('',(0.,0.,-1.));
#322=DIRECTION('',(0.,1.,0.));
#323=DIRECTION('',(0.,0.,-1.));
#324=DIRECTION('',(0.,1.,0.));
#325=DIRECTION('',(-1.70070929017333E-16,0.,1.));
#326=DIRECTION('',(1.,0.,1.70070929017333E-16));
#327=DIRECTION('',(1.,0.,1.70070929017333E-16));
#328=DIRECTION('',(1.,0.,1.70070929017333E-16));
#329=DIRECTION('',(0.,0.,-1.));
#330=DIRECTION('',(-1.,0.,0.));
#331=DIRECTION('',(-1.,0.,0.));
#332=DIRECTION('',(0.,1.,0.));
#333=DIRECTION('',(-1.,0.,0.));
#334=DIRECTION('',(1.,0.,0.));
#335=DIRECTION('',(0.,0.,-1.));
#336=DIRECTION('',(-1.7347234759768E-16,0.,1.));
#337=DIRECTION('',(0.,-1.,0.));
#338=DIRECTION('',(-1.7347234759768E-16,0.,1.));
#339=DIRECTION('',(0.,-1.,0.));
#340=DIRECTION('',(0.,0.,-1.));
#341=DIRECTION('',(0.,1.,0.));
#342=DIRECTION('',(0.,0.,-1.));
#343=DIRECTION('',(0.,0.,-1.));
#344=DIRECTION('',(-1.,0.,0.));
#345=DIRECTION('',(-1.,0.,0.));
#346=DIRECTION('',(-1.,0.,0.));
#347=DIRECTION('',(0.,-1.,0.));
#348=DIRECTION('',(1.,0.,0.));
#349=DIRECTION('',(0.,-1.,0.));
#350=DIRECTION('',(1.,0.,0.));
#351=DIRECTION('',(0.,1.,0.));
#352=DIRECTION('',(0.,0.,1.));
#353=DIRECTION('',(0.,1.,0.));
#354=DIRECTION('',(0.,0.,1.));
#355=DIRECTION('',(1.,0.,0.));
#356=DIRECTION('',(0.,0.,-1.));
#357=DIRECTION('',(-1.,0.,0.));
#358=DIRECTION('',(1.,0.,0.));
#359=DIRECTION('',(0.,0.,-1.));
#360=DIRECTION('',(-1.,0.,0.));
#361=DIRECTION('',(1.,0.,0.));
#362=DIRECTION('',(1.,0.,0.));
#363=DIRECTION('',(0.,-1.,0.));
#364=DIRECTION('',(1.,0.,0.));
#365=DIRECTION('',(0.,1.,0.));
#366=DIRECTION('',(0.,0.,1.));
#367=DIRECTION('',(0.,1.,0.));
#368=DIRECTION('',(0.,0.,1.));
#369=DIRECTION('',(0.,1.,0.));
#370=DIRECTION('',(-1.,0.,0.));
#371=DIRECTION('',(0.,1.,0.));
#372=DIRECTION('',(0.,0.,1.));
#373=DIRECTION('',(0.,1.,0.));
#374=DIRECTION('',(0.,0.,1.));
#375=DIRECTION('',(0.,1.,0.));
#376=DIRECTION('',(-1.,0.,0.));
#377=DIRECTION('',(0.,-1.,0.));
#378=DIRECTION('',(1.,0.,0.));
#379=CARTESIAN_POINT('',(0.,0.,0.));
#380=CARTESIAN_POINT('',(0.00315,-0.004,0.0200152));
#381=CARTESIAN_POINT('',(0.00315,0.001,0.0329852));
#382=CARTESIAN_POINT('',(0.00315,0.001,0.0339852));
#383=CARTESIAN_POINT('',(0.00315,0.001,0.0479852));
#384=CARTESIAN_POINT('',(0.00315,-0.004,0.0339852));
#385=CARTESIAN_POINT('',(0.00315,-0.004,0.0339852));
#386=CARTESIAN_POINT('',(0.00315,-0.004,0.0200152));
#387=CARTESIAN_POINT('',(0.00315,-0.004,0.0060452));
#388=CARTESIAN_POINT('',(0.00315,-0.004,0.0060452));
#389=CARTESIAN_POINT('',(0.00315,0.,0.0060452));
#390=CARTESIAN_POINT('',(0.00315,0.,0.0200152));
#391=CARTESIAN_POINT('',(0.00315,0.,0.0179852));
#392=CARTESIAN_POINT('',(0.00315,0.003,0.0179852));
#393=CARTESIAN_POINT('',(0.00315,0.003,0.0179852));
#394=CARTESIAN_POINT('',(0.00315,0.003,0.0329852));
#395=CARTESIAN_POINT('',(0.00315,0.003,0.0479852));
#396=CARTESIAN_POINT('',(0.00315,0.003,0.0479852));
#397=CARTESIAN_POINT('',(0.00825,-0.004,-0.01397));
#398=CARTESIAN_POINT('',(0.00825,0.,-0.01397));
#399=CARTESIAN_POINT('',(0.00825,0.,0.0060452));
#400=CARTESIAN_POINT('',(0.00825,0.,-0.0339852));
#401=CARTESIAN_POINT('',(0.00825,-0.004,0.0060452));
#402=CARTESIAN_POINT('',(0.00825,-0.004,0.0060452));
#403=CARTESIAN_POINT('',(0.00825,-0.004,-0.01397));
#404=CARTESIAN_POINT('',(0.00825,-0.004,-0.0339852));
#405=CARTESIAN_POINT('',(0.00825,-0.004,-0.0339852));
#406=CARTESIAN_POINT('',(0.0057,-0.004,0.0060452));
#407=CARTESIAN_POINT('',(0.0057,0.,0.0060452));
#408=CARTESIAN_POINT('',(0.0057,-0.004,0.0060452));
#409=CARTESIAN_POINT('',(-0.00255,-0.004,0.0339852));
#410=CARTESIAN_POINT('',(-0.00255,0.001,0.0339852));
#411=CARTESIAN_POINT('',(-0.00825,0.001,0.0339852));
#412=CARTESIAN_POINT('',(-0.00825,-0.004,0.0339852));
#413=CARTESIAN_POINT('',(-0.00825,-0.004,0.0339852));
#414=CARTESIAN_POINT('',(-0.00255,-0.004,0.0339852));
#415=CARTESIAN_POINT('',(-0.00825,-0.004,0.));
#416=CARTESIAN_POINT('',(-0.00825,0.001,0.0329852));
#417=CARTESIAN_POINT('',(-0.00825,0.001,0.0479852));
#418=CARTESIAN_POINT('',(-0.00825,0.003,0.0479852));
#419=CARTESIAN_POINT('',(-0.00825,0.003,0.0479852));
#420=CARTESIAN_POINT('',(-0.00825,0.003,0.0329852));
#421=CARTESIAN_POINT('',(-0.00825,0.003,0.0179852));
#422=CARTESIAN_POINT('',(-0.00825,0.003,0.0179852));
#423=CARTESIAN_POINT('',(-0.00825,0.,0.0179852));
#424=CARTESIAN_POINT('',(-0.00825,0.,0.));
#425=CARTESIAN_POINT('',(-0.00825,0.,-0.0339852));
#426=CARTESIAN_POINT('',(-0.00825,-0.004,-0.0339852));
#427=CARTESIAN_POINT('',(-0.00825,-0.004,-0.0339852));
#428=CARTESIAN_POINT('',(-0.00825,-0.004,0.));
#429=CARTESIAN_POINT('',(-3.46944695195361E-18,-0.004,-0.0339852));
#430=CARTESIAN_POINT('',(-3.46944695195361E-18,0.,-0.0339852));
#431=CARTESIAN_POINT('',(-3.46944695195361E-18,-0.004,-0.0339852));
#432=CARTESIAN_POINT('',(0.,-0.004,0.));
#433=CARTESIAN_POINT('',(0.,0.,0.));
#434=CARTESIAN_POINT('',(0.,0.,-0.0274292));
#435=CARTESIAN_POINT('',(0.,0.,-0.0250417));
#436=CARTESIAN_POINT('',(0.,0.,-0.0159992));
#437=CARTESIAN_POINT('',(0.,0.,-0.0136117));
#438=CARTESIAN_POINT('',(-0.00255,0.,0.0179852));
#439=CARTESIAN_POINT('',(-0.00255,0.003,0.0179852));
#440=CARTESIAN_POINT('',(-0.00255,0.003,0.0179852));
#441=CARTESIAN_POINT('',(-0.00255,0.003,0.0479852));
#442=CARTESIAN_POINT('',(-0.00255,0.001,0.0479852));
#443=CARTESIAN_POINT('',(-0.00255,0.003,0.0479852));
#444=CARTESIAN_POINT('',(-0.00255,0.003,0.0329852));
#445=CARTESIAN_POINT('',(0.,-0.0025,-0.0159992));
#446=CARTESIAN_POINT('',(0.,-0.0025,-0.0159992));
#447=CARTESIAN_POINT('',(0.,-0.0025,-0.0136117));
#448=CARTESIAN_POINT('',(0.,-0.0025,-0.008));
#449=CARTESIAN_POINT('',(0.,-0.0025,-0.0274292));
#450=CARTESIAN_POINT('',(0.,-0.0025,-0.0274292));
#451=CARTESIAN_POINT('',(0.,-0.0025,-0.0250417));
#452=CARTESIAN_POINT('',(0.,-0.0025,-0.008));
#453=CARTESIAN_POINT('',(-0.00255,0.001,0.0409852));
#454=MECHANICAL_DESIGN_GEOMETRIC_PRESENTATION_REPRESENTATION('',(#275),
#455);
#455=(
GEOMETRIC_REPRESENTATION_CONTEXT(3)
GLOBAL_UNCERTAINTY_ASSIGNED_CONTEXT((#456))
GLOBAL_UNIT_ASSIGNED_CONTEXT((#459,#458,#457))
REPRESENTATION_CONTEXT('Part 1','TOP_LEVEL_ASSEMBLY_PART')
);
#456=UNCERTAINTY_MEASURE_WITH_UNIT(LENGTH_MEASURE(1.E-8),#459,
'DISTANCE_ACCURACY_VALUE','Maximum Tolerance applied to model');
#457=(
NAMED_UNIT(*)
SI_UNIT($,.STERADIAN.)
SOLID_ANGLE_UNIT()
);
#458=(
NAMED_UNIT(*)
PLANE_ANGLE_UNIT()
SI_UNIT($,.RADIAN.)
);
#459=(
LENGTH_UNIT()
NAMED_UNIT(*)
SI_UNIT($,.METRE.)
);
#460=PRODUCT_DEFINITION_SHAPE('','',#461);
#461=PRODUCT_DEFINITION('','',#463,#462);
#462=PRODUCT_DEFINITION_CONTEXT('',#469,'design');
#463=PRODUCT_DEFINITION_FORMATION_WITH_SPECIFIED_SOURCE('','',#465,
 .NOT_KNOWN.);
#464=PRODUCT_RELATED_PRODUCT_CATEGORY('','',(#465));
#465=PRODUCT('Part 1','Part 1','Part 1',(#467));
#466=PRODUCT_CATEGORY('','');
#467=PRODUCT_CONTEXT('',#469,'mechanical');
#468=APPLICATION_PROTOCOL_DEFINITION('international standard',
'ap242_managed_model_based_3d_engineering',2020,#469);
#469=APPLICATION_CONTEXT('managed model based 3d engineering');
ENDSEC;
END-ISO-10303-21;
