ISO-10303-21;
HEADER;
/* Generated by software containing ST-Developer
 * from STEP Tools, Inc. (www.steptools.com) 
 */
/* OPTION: using custom renumber hook */

FILE_DESCRIPTION(
/* description */ ('STEP AP242 Edition 2',
'CAx-IF Rec.Pracs.---Representation and Presentation of Product Manufa
cturing Information (PMI)---4.0---2014-10-13',
'CAx-IF Rec.Pracs.---3D Tessellated Geometry---0.4---2014-09-14','2;1',
'CAx-IF Rec.Pracs.---User Defined Attributes---1.5---2016-08-15'),
/* implementation_level */ '2;1');

FILE_NAME(
/* name */ 'Part Studio 1 Copy 7',
/* time_stamp */ '2026-08-11T22:57:31Z',
/* author */ (''),
/* organization */ (''),
/* preprocessor_version */ 'ST-DEVELOPER v20',
/* originating_system */ 'ONSHAPE BY PTC INC, 1.219',
/* authorisation */ '  ');

FILE_SCHEMA (('AP242_MANAGED_MODEL_BASED_3D_ENGINEERING_MIM_LF { 1 0 10303 442 3 1 4 }'));
ENDSEC;

DATA;
#10=SHAPE_REPRESENTATION_RELATIONSHIP('','',#888,#11);
#11=ADVANCED_BREP_SHAPE_REPRESENTATION('',(#886),#1526);
#12=CYLINDRICAL_SURFACE('',#922,0.000679542414375828);
#13=CYLINDRICAL_SURFACE('',#925,0.000679542414338604);
#14=CYLINDRICAL_SURFACE('',#927,0.000684285315857361);
#15=CYLINDRICAL_SURFACE('',#930,1.06258075161995E-5);
#16=CYLINDRICAL_SURFACE('',#932,1.06258075161987E-5);
#17=CYLINDRICAL_SURFACE('',#935,0.0011423458071855);
#18=CYLINDRICAL_SURFACE('',#937,0.00107596782057904);
#19=CYLINDRICAL_SURFACE('',#940,0.00107596782057904);
#20=CYLINDRICAL_SURFACE('',#942,0.00112851732977333);
#21=CYLINDRICAL_SURFACE('',#945,1.06258075161327E-5);
#22=CYLINDRICAL_SURFACE('',#947,1.06258075161988E-5);
#23=CYLINDRICAL_SURFACE('',#950,0.000682757941225872);
#24=CYLINDRICAL_SURFACE('',#952,0.000682757941198457);
#25=CYLINDRICAL_SURFACE('',#955,0.000682757941186578);
#26=CYLINDRICAL_SURFACE('',#957,0.000682757941186657);
#27=CYLINDRICAL_SURFACE('',#960,0.000682757941225885);
#28=CYLINDRICAL_SURFACE('',#962,0.000682757941186658);
#29=CYLINDRICAL_SURFACE('',#965,0.00109596538499654);
#30=CYLINDRICAL_SURFACE('',#967,0.00102006940461277);
#31=CYLINDRICAL_SURFACE('',#970,1.06258075093205E-5);
#32=CYLINDRICAL_SURFACE('',#972,1.062580750932E-5);
#33=CYLINDRICAL_SURFACE('',#975,0.00102174719346715);
#34=CYLINDRICAL_SURFACE('',#977,0.00109444219174406);
#35=CYLINDRICAL_SURFACE('',#980,0.00067954241437583);
#36=CYLINDRICAL_SURFACE('',#982,0.000684285315857336);
#37=CYLINDRICAL_SURFACE('',#985,0.00068428531585734);
#38=CIRCLE('',#891,0.000679542414375828);
#39=CIRCLE('',#892,0.00068428531585734);
#40=CIRCLE('',#893,0.000684285315857336);
#41=CIRCLE('',#894,0.00067954241437583);
#42=CIRCLE('',#895,0.00109444219174406);
#43=CIRCLE('',#896,0.00102174719346715);
#44=CIRCLE('',#897,1.062580750932E-5);
#45=CIRCLE('',#898,1.06258075093205E-5);
#46=CIRCLE('',#899,0.00102006940461277);
#47=CIRCLE('',#900,0.00109596538499654);
#48=CIRCLE('',#901,0.000682757941186658);
#49=CIRCLE('',#902,0.000682757941225885);
#50=CIRCLE('',#903,0.000682757941186657);
#51=CIRCLE('',#904,0.000682757941186578);
#52=CIRCLE('',#905,0.000682757941198457);
#53=CIRCLE('',#906,0.000682757941225872);
#54=CIRCLE('',#907,1.06258075161988E-5);
#55=CIRCLE('',#908,1.06258075161327E-5);
#56=CIRCLE('',#909,0.00112851732977333);
#57=CIRCLE('',#910,0.00107596782057904);
#58=CIRCLE('',#911,0.00107596782057904);
#59=CIRCLE('',#912,0.0011423458071855);
#60=CIRCLE('',#913,1.06258075161987E-5);
#61=CIRCLE('',#914,1.06258075161995E-5);
#62=CIRCLE('',#915,0.000684285315857361);
#63=CIRCLE('',#916,0.000679542414338604);
#64=CIRCLE('',#923,0.000679542414375828);
#65=CIRCLE('',#926,0.000679542414338604);
#66=CIRCLE('',#928,0.000684285315857361);
#67=CIRCLE('',#931,1.06258075161995E-5);
#68=CIRCLE('',#933,1.06258075161987E-5);
#69=CIRCLE('',#936,0.0011423458071855);
#70=CIRCLE('',#938,0.00107596782057904);
#71=CIRCLE('',#941,0.00107596782057904);
#72=CIRCLE('',#943,0.00112851732977333);
#73=CIRCLE('',#946,1.06258075161327E-5);
#74=CIRCLE('',#948,1.06258075161988E-5);
#75=CIRCLE('',#951,0.000682757941225872);
#76=CIRCLE('',#953,0.000682757941198457);
#77=CIRCLE('',#956,0.000682757941186578);
#78=CIRCLE('',#958,0.000682757941186657);
#79=CIRCLE('',#961,0.000682757941225885);
#80=CIRCLE('',#963,0.000682757941186658);
#81=CIRCLE('',#966,0.00109596538499654);
#82=CIRCLE('',#968,0.00102006940461277);
#83=CIRCLE('',#971,1.06258075093205E-5);
#84=CIRCLE('',#973,1.062580750932E-5);
#85=CIRCLE('',#976,0.00102174719346715);
#86=CIRCLE('',#978,0.00109444219174406);
#87=CIRCLE('',#981,0.00067954241437583);
#88=CIRCLE('',#983,0.000684285315857336);
#89=CIRCLE('',#986,0.00068428531585734);
#90=ORIENTED_EDGE('',*,*,#348,.T.);
#91=ORIENTED_EDGE('',*,*,#349,.T.);
#92=ORIENTED_EDGE('',*,*,#350,.F.);
#93=ORIENTED_EDGE('',*,*,#351,.F.);
#94=ORIENTED_EDGE('',*,*,#352,.T.);
#95=ORIENTED_EDGE('',*,*,#353,.T.);
#96=ORIENTED_EDGE('',*,*,#354,.T.);
#97=ORIENTED_EDGE('',*,*,#355,.T.);
#98=ORIENTED_EDGE('',*,*,#356,.T.);
#99=ORIENTED_EDGE('',*,*,#357,.T.);
#100=ORIENTED_EDGE('',*,*,#358,.T.);
#101=ORIENTED_EDGE('',*,*,#359,.T.);
#102=ORIENTED_EDGE('',*,*,#360,.T.);
#103=ORIENTED_EDGE('',*,*,#361,.T.);
#104=ORIENTED_EDGE('',*,*,#362,.T.);
#105=ORIENTED_EDGE('',*,*,#363,.T.);
#106=ORIENTED_EDGE('',*,*,#364,.T.);
#107=ORIENTED_EDGE('',*,*,#365,.T.);
#108=ORIENTED_EDGE('',*,*,#366,.T.);
#109=ORIENTED_EDGE('',*,*,#367,.T.);
#110=ORIENTED_EDGE('',*,*,#368,.T.);
#111=ORIENTED_EDGE('',*,*,#369,.T.);
#112=ORIENTED_EDGE('',*,*,#370,.T.);
#113=ORIENTED_EDGE('',*,*,#371,.T.);
#114=ORIENTED_EDGE('',*,*,#372,.T.);
#115=ORIENTED_EDGE('',*,*,#373,.T.);
#116=ORIENTED_EDGE('',*,*,#374,.T.);
#117=ORIENTED_EDGE('',*,*,#375,.T.);
#118=ORIENTED_EDGE('',*,*,#376,.T.);
#119=ORIENTED_EDGE('',*,*,#377,.T.);
#120=ORIENTED_EDGE('',*,*,#378,.T.);
#121=ORIENTED_EDGE('',*,*,#379,.T.);
#122=ORIENTED_EDGE('',*,*,#380,.T.);
#123=ORIENTED_EDGE('',*,*,#381,.T.);
#124=ORIENTED_EDGE('',*,*,#382,.T.);
#125=ORIENTED_EDGE('',*,*,#383,.T.);
#126=ORIENTED_EDGE('',*,*,#384,.T.);
#127=ORIENTED_EDGE('',*,*,#385,.T.);
#128=ORIENTED_EDGE('',*,*,#386,.T.);
#129=ORIENTED_EDGE('',*,*,#387,.T.);
#130=ORIENTED_EDGE('',*,*,#388,.T.);
#131=ORIENTED_EDGE('',*,*,#389,.T.);
#132=ORIENTED_EDGE('',*,*,#390,.T.);
#133=ORIENTED_EDGE('',*,*,#348,.F.);
#134=ORIENTED_EDGE('',*,*,#391,.F.);
#135=ORIENTED_EDGE('',*,*,#392,.T.);
#136=ORIENTED_EDGE('',*,*,#393,.T.);
#137=ORIENTED_EDGE('',*,*,#351,.T.);
#138=ORIENTED_EDGE('',*,*,#394,.F.);
#139=ORIENTED_EDGE('',*,*,#395,.F.);
#140=ORIENTED_EDGE('',*,*,#391,.T.);
#141=ORIENTED_EDGE('',*,*,#350,.T.);
#142=ORIENTED_EDGE('',*,*,#396,.F.);
#143=ORIENTED_EDGE('',*,*,#397,.F.);
#144=ORIENTED_EDGE('',*,*,#394,.T.);
#145=ORIENTED_EDGE('',*,*,#349,.F.);
#146=ORIENTED_EDGE('',*,*,#393,.F.);
#147=ORIENTED_EDGE('',*,*,#398,.T.);
#148=ORIENTED_EDGE('',*,*,#396,.T.);
#149=ORIENTED_EDGE('',*,*,#392,.F.);
#150=ORIENTED_EDGE('',*,*,#395,.T.);
#151=ORIENTED_EDGE('',*,*,#397,.T.);
#152=ORIENTED_EDGE('',*,*,#398,.F.);
#153=ORIENTED_EDGE('',*,*,#352,.F.);
#154=ORIENTED_EDGE('',*,*,#399,.F.);
#155=ORIENTED_EDGE('',*,*,#400,.T.);
#156=ORIENTED_EDGE('',*,*,#401,.T.);
#157=ORIENTED_EDGE('',*,*,#390,.F.);
#158=ORIENTED_EDGE('',*,*,#402,.F.);
#159=ORIENTED_EDGE('',*,*,#403,.T.);
#160=ORIENTED_EDGE('',*,*,#399,.T.);
#161=ORIENTED_EDGE('',*,*,#389,.F.);
#162=ORIENTED_EDGE('',*,*,#404,.F.);
#163=ORIENTED_EDGE('',*,*,#405,.T.);
#164=ORIENTED_EDGE('',*,*,#402,.T.);
#165=ORIENTED_EDGE('',*,*,#388,.F.);
#166=ORIENTED_EDGE('',*,*,#406,.F.);
#167=ORIENTED_EDGE('',*,*,#407,.T.);
#168=ORIENTED_EDGE('',*,*,#404,.T.);
#169=ORIENTED_EDGE('',*,*,#387,.F.);
#170=ORIENTED_EDGE('',*,*,#408,.F.);
#171=ORIENTED_EDGE('',*,*,#409,.T.);
#172=ORIENTED_EDGE('',*,*,#406,.T.);
#173=ORIENTED_EDGE('',*,*,#386,.F.);
#174=ORIENTED_EDGE('',*,*,#410,.F.);
#175=ORIENTED_EDGE('',*,*,#411,.T.);
#176=ORIENTED_EDGE('',*,*,#408,.T.);
#177=ORIENTED_EDGE('',*,*,#385,.F.);
#178=ORIENTED_EDGE('',*,*,#412,.F.);
#179=ORIENTED_EDGE('',*,*,#413,.T.);
#180=ORIENTED_EDGE('',*,*,#410,.T.);
#181=ORIENTED_EDGE('',*,*,#384,.F.);
#182=ORIENTED_EDGE('',*,*,#414,.F.);
#183=ORIENTED_EDGE('',*,*,#415,.T.);
#184=ORIENTED_EDGE('',*,*,#412,.T.);
#185=ORIENTED_EDGE('',*,*,#383,.F.);
#186=ORIENTED_EDGE('',*,*,#416,.F.);
#187=ORIENTED_EDGE('',*,*,#417,.T.);
#188=ORIENTED_EDGE('',*,*,#414,.T.);
#189=ORIENTED_EDGE('',*,*,#382,.F.);
#190=ORIENTED_EDGE('',*,*,#418,.F.);
#191=ORIENTED_EDGE('',*,*,#419,.T.);
#192=ORIENTED_EDGE('',*,*,#416,.T.);
#193=ORIENTED_EDGE('',*,*,#381,.F.);
#194=ORIENTED_EDGE('',*,*,#420,.F.);
#195=ORIENTED_EDGE('',*,*,#421,.T.);
#196=ORIENTED_EDGE('',*,*,#418,.T.);
#197=ORIENTED_EDGE('',*,*,#380,.F.);
#198=ORIENTED_EDGE('',*,*,#422,.F.);
#199=ORIENTED_EDGE('',*,*,#423,.T.);
#200=ORIENTED_EDGE('',*,*,#420,.T.);
#201=ORIENTED_EDGE('',*,*,#379,.F.);
#202=ORIENTED_EDGE('',*,*,#424,.F.);
#203=ORIENTED_EDGE('',*,*,#425,.T.);
#204=ORIENTED_EDGE('',*,*,#422,.T.);
#205=ORIENTED_EDGE('',*,*,#378,.F.);
#206=ORIENTED_EDGE('',*,*,#426,.F.);
#207=ORIENTED_EDGE('',*,*,#427,.T.);
#208=ORIENTED_EDGE('',*,*,#424,.T.);
#209=ORIENTED_EDGE('',*,*,#377,.F.);
#210=ORIENTED_EDGE('',*,*,#428,.F.);
#211=ORIENTED_EDGE('',*,*,#429,.T.);
#212=ORIENTED_EDGE('',*,*,#426,.T.);
#213=ORIENTED_EDGE('',*,*,#376,.F.);
#214=ORIENTED_EDGE('',*,*,#430,.F.);
#215=ORIENTED_EDGE('',*,*,#431,.T.);
#216=ORIENTED_EDGE('',*,*,#428,.T.);
#217=ORIENTED_EDGE('',*,*,#375,.F.);
#218=ORIENTED_EDGE('',*,*,#432,.F.);
#219=ORIENTED_EDGE('',*,*,#433,.T.);
#220=ORIENTED_EDGE('',*,*,#430,.T.);
#221=ORIENTED_EDGE('',*,*,#374,.F.);
#222=ORIENTED_EDGE('',*,*,#434,.F.);
#223=ORIENTED_EDGE('',*,*,#435,.T.);
#224=ORIENTED_EDGE('',*,*,#432,.T.);
#225=ORIENTED_EDGE('',*,*,#373,.F.);
#226=ORIENTED_EDGE('',*,*,#436,.F.);
#227=ORIENTED_EDGE('',*,*,#437,.T.);
#228=ORIENTED_EDGE('',*,*,#434,.T.);
#229=ORIENTED_EDGE('',*,*,#372,.F.);
#230=ORIENTED_EDGE('',*,*,#438,.F.);
#231=ORIENTED_EDGE('',*,*,#439,.T.);
#232=ORIENTED_EDGE('',*,*,#436,.T.);
#233=ORIENTED_EDGE('',*,*,#371,.F.);
#234=ORIENTED_EDGE('',*,*,#440,.F.);
#235=ORIENTED_EDGE('',*,*,#441,.T.);
#236=ORIENTED_EDGE('',*,*,#438,.T.);
#237=ORIENTED_EDGE('',*,*,#370,.F.);
#238=ORIENTED_EDGE('',*,*,#442,.F.);
#239=ORIENTED_EDGE('',*,*,#443,.T.);
#240=ORIENTED_EDGE('',*,*,#440,.T.);
#241=ORIENTED_EDGE('',*,*,#369,.F.);
#242=ORIENTED_EDGE('',*,*,#444,.F.);
#243=ORIENTED_EDGE('',*,*,#445,.T.);
#244=ORIENTED_EDGE('',*,*,#442,.T.);
#245=ORIENTED_EDGE('',*,*,#368,.F.);
#246=ORIENTED_EDGE('',*,*,#446,.F.);
#247=ORIENTED_EDGE('',*,*,#447,.T.);
#248=ORIENTED_EDGE('',*,*,#444,.T.);
#249=ORIENTED_EDGE('',*,*,#367,.F.);
#250=ORIENTED_EDGE('',*,*,#448,.F.);
#251=ORIENTED_EDGE('',*,*,#449,.T.);
#252=ORIENTED_EDGE('',*,*,#446,.T.);
#253=ORIENTED_EDGE('',*,*,#366,.F.);
#254=ORIENTED_EDGE('',*,*,#450,.F.);
#255=ORIENTED_EDGE('',*,*,#451,.T.);
#256=ORIENTED_EDGE('',*,*,#448,.T.);
#257=ORIENTED_EDGE('',*,*,#365,.F.);
#258=ORIENTED_EDGE('',*,*,#452,.F.);
#259=ORIENTED_EDGE('',*,*,#453,.T.);
#260=ORIENTED_EDGE('',*,*,#450,.T.);
#261=ORIENTED_EDGE('',*,*,#364,.F.);
#262=ORIENTED_EDGE('',*,*,#454,.F.);
#263=ORIENTED_EDGE('',*,*,#455,.T.);
#264=ORIENTED_EDGE('',*,*,#452,.T.);
#265=ORIENTED_EDGE('',*,*,#363,.F.);
#266=ORIENTED_EDGE('',*,*,#456,.F.);
#267=ORIENTED_EDGE('',*,*,#457,.T.);
#268=ORIENTED_EDGE('',*,*,#454,.T.);
#269=ORIENTED_EDGE('',*,*,#362,.F.);
#270=ORIENTED_EDGE('',*,*,#458,.F.);
#271=ORIENTED_EDGE('',*,*,#459,.T.);
#272=ORIENTED_EDGE('',*,*,#456,.T.);
#273=ORIENTED_EDGE('',*,*,#361,.F.);
#274=ORIENTED_EDGE('',*,*,#460,.F.);
#275=ORIENTED_EDGE('',*,*,#461,.T.);
#276=ORIENTED_EDGE('',*,*,#458,.T.);
#277=ORIENTED_EDGE('',*,*,#360,.F.);
#278=ORIENTED_EDGE('',*,*,#462,.F.);
#279=ORIENTED_EDGE('',*,*,#463,.T.);
#280=ORIENTED_EDGE('',*,*,#460,.T.);
#281=ORIENTED_EDGE('',*,*,#359,.F.);
#282=ORIENTED_EDGE('',*,*,#464,.F.);
#283=ORIENTED_EDGE('',*,*,#465,.T.);
#284=ORIENTED_EDGE('',*,*,#462,.T.);
#285=ORIENTED_EDGE('',*,*,#358,.F.);
#286=ORIENTED_EDGE('',*,*,#466,.F.);
#287=ORIENTED_EDGE('',*,*,#467,.T.);
#288=ORIENTED_EDGE('',*,*,#464,.T.);
#289=ORIENTED_EDGE('',*,*,#357,.F.);
#290=ORIENTED_EDGE('',*,*,#468,.F.);
#291=ORIENTED_EDGE('',*,*,#469,.T.);
#292=ORIENTED_EDGE('',*,*,#466,.T.);
#293=ORIENTED_EDGE('',*,*,#356,.F.);
#294=ORIENTED_EDGE('',*,*,#470,.F.);
#295=ORIENTED_EDGE('',*,*,#471,.T.);
#296=ORIENTED_EDGE('',*,*,#468,.T.);
#297=ORIENTED_EDGE('',*,*,#355,.F.);
#298=ORIENTED_EDGE('',*,*,#472,.F.);
#299=ORIENTED_EDGE('',*,*,#473,.T.);
#300=ORIENTED_EDGE('',*,*,#470,.T.);
#301=ORIENTED_EDGE('',*,*,#354,.F.);
#302=ORIENTED_EDGE('',*,*,#474,.F.);
#303=ORIENTED_EDGE('',*,*,#475,.T.);
#304=ORIENTED_EDGE('',*,*,#472,.T.);
#305=ORIENTED_EDGE('',*,*,#353,.F.);
#306=ORIENTED_EDGE('',*,*,#401,.F.);
#307=ORIENTED_EDGE('',*,*,#476,.T.);
#308=ORIENTED_EDGE('',*,*,#474,.T.);
#309=ORIENTED_EDGE('',*,*,#400,.F.);
#310=ORIENTED_EDGE('',*,*,#403,.F.);
#311=ORIENTED_EDGE('',*,*,#405,.F.);
#312=ORIENTED_EDGE('',*,*,#407,.F.);
#313=ORIENTED_EDGE('',*,*,#409,.F.);
#314=ORIENTED_EDGE('',*,*,#411,.F.);
#315=ORIENTED_EDGE('',*,*,#413,.F.);
#316=ORIENTED_EDGE('',*,*,#415,.F.);
#317=ORIENTED_EDGE('',*,*,#417,.F.);
#318=ORIENTED_EDGE('',*,*,#419,.F.);
#319=ORIENTED_EDGE('',*,*,#421,.F.);
#320=ORIENTED_EDGE('',*,*,#423,.F.);
#321=ORIENTED_EDGE('',*,*,#425,.F.);
#322=ORIENTED_EDGE('',*,*,#427,.F.);
#323=ORIENTED_EDGE('',*,*,#429,.F.);
#324=ORIENTED_EDGE('',*,*,#431,.F.);
#325=ORIENTED_EDGE('',*,*,#433,.F.);
#326=ORIENTED_EDGE('',*,*,#435,.F.);
#327=ORIENTED_EDGE('',*,*,#437,.F.);
#328=ORIENTED_EDGE('',*,*,#439,.F.);
#329=ORIENTED_EDGE('',*,*,#441,.F.);
#330=ORIENTED_EDGE('',*,*,#443,.F.);
#331=ORIENTED_EDGE('',*,*,#445,.F.);
#332=ORIENTED_EDGE('',*,*,#447,.F.);
#333=ORIENTED_EDGE('',*,*,#449,.F.);
#334=ORIENTED_EDGE('',*,*,#451,.F.);
#335=ORIENTED_EDGE('',*,*,#453,.F.);
#336=ORIENTED_EDGE('',*,*,#455,.F.);
#337=ORIENTED_EDGE('',*,*,#457,.F.);
#338=ORIENTED_EDGE('',*,*,#459,.F.);
#339=ORIENTED_EDGE('',*,*,#461,.F.);
#340=ORIENTED_EDGE('',*,*,#463,.F.);
#341=ORIENTED_EDGE('',*,*,#465,.F.);
#342=ORIENTED_EDGE('',*,*,#467,.F.);
#343=ORIENTED_EDGE('',*,*,#469,.F.);
#344=ORIENTED_EDGE('',*,*,#471,.F.);
#345=ORIENTED_EDGE('',*,*,#473,.F.);
#346=ORIENTED_EDGE('',*,*,#475,.F.);
#347=ORIENTED_EDGE('',*,*,#476,.F.);
#348=EDGE_CURVE('',#477,#478,#563,.T.);
#349=EDGE_CURVE('',#478,#479,#564,.T.);
#350=EDGE_CURVE('',#480,#479,#565,.T.);
#351=EDGE_CURVE('',#477,#480,#566,.T.);
#352=EDGE_CURVE('',#481,#482,#38,.F.);
#353=EDGE_CURVE('',#482,#483,#39,.F.);
#354=EDGE_CURVE('',#483,#484,#567,.T.);
#355=EDGE_CURVE('',#484,#485,#40,.F.);
#356=EDGE_CURVE('',#485,#486,#41,.F.);
#357=EDGE_CURVE('',#486,#487,#568,.T.);
#358=EDGE_CURVE('',#487,#488,#42,.F.);
#359=EDGE_CURVE('',#488,#489,#43,.F.);
#360=EDGE_CURVE('',#489,#490,#569,.T.);
#361=EDGE_CURVE('',#490,#491,#44,.T.);
#362=EDGE_CURVE('',#491,#492,#45,.T.);
#363=EDGE_CURVE('',#492,#493,#570,.T.);
#364=EDGE_CURVE('',#493,#494,#46,.F.);
#365=EDGE_CURVE('',#494,#495,#47,.F.);
#366=EDGE_CURVE('',#495,#496,#571,.T.);
#367=EDGE_CURVE('',#496,#497,#48,.F.);
#368=EDGE_CURVE('',#497,#498,#49,.F.);
#369=EDGE_CURVE('',#498,#499,#572,.T.);
#370=EDGE_CURVE('',#499,#500,#50,.F.);
#371=EDGE_CURVE('',#500,#501,#51,.F.);
#372=EDGE_CURVE('',#501,#502,#573,.T.);
#373=EDGE_CURVE('',#502,#503,#52,.F.);
#374=EDGE_CURVE('',#503,#504,#53,.F.);
#375=EDGE_CURVE('',#504,#505,#574,.T.);
#376=EDGE_CURVE('',#505,#506,#54,.T.);
#377=EDGE_CURVE('',#506,#507,#55,.T.);
#378=EDGE_CURVE('',#507,#508,#575,.T.);
#379=EDGE_CURVE('',#508,#509,#56,.F.);
#380=EDGE_CURVE('',#509,#510,#57,.F.);
#381=EDGE_CURVE('',#510,#511,#576,.T.);
#382=EDGE_CURVE('',#511,#512,#58,.F.);
#383=EDGE_CURVE('',#512,#513,#59,.F.);
#384=EDGE_CURVE('',#513,#514,#577,.T.);
#385=EDGE_CURVE('',#514,#515,#60,.T.);
#386=EDGE_CURVE('',#515,#516,#61,.T.);
#387=EDGE_CURVE('',#516,#517,#578,.T.);
#388=EDGE_CURVE('',#517,#518,#62,.F.);
#389=EDGE_CURVE('',#518,#519,#63,.F.);
#390=EDGE_CURVE('',#519,#481,#579,.T.);
#391=EDGE_CURVE('',#520,#477,#580,.T.);
#392=EDGE_CURVE('',#520,#521,#581,.T.);
#393=EDGE_CURVE('',#521,#478,#582,.T.);
#394=EDGE_CURVE('',#522,#480,#583,.T.);
#395=EDGE_CURVE('',#520,#522,#584,.T.);
#396=EDGE_CURVE('',#523,#479,#585,.T.);
#397=EDGE_CURVE('',#522,#523,#586,.T.);
#398=EDGE_CURVE('',#521,#523,#587,.T.);
#399=EDGE_CURVE('',#524,#481,#588,.T.);
#400=EDGE_CURVE('',#524,#525,#64,.F.);
#401=EDGE_CURVE('',#525,#482,#589,.T.);
#402=EDGE_CURVE('',#526,#519,#590,.T.);
#403=EDGE_CURVE('',#526,#524,#591,.T.);
#404=EDGE_CURVE('',#527,#518,#592,.T.);
#405=EDGE_CURVE('',#527,#526,#65,.F.);
#406=EDGE_CURVE('',#528,#517,#593,.T.);
#407=EDGE_CURVE('',#528,#527,#66,.F.);
#408=EDGE_CURVE('',#529,#516,#594,.T.);
#409=EDGE_CURVE('',#529,#528,#595,.T.);
#410=EDGE_CURVE('',#530,#515,#596,.T.);
#411=EDGE_CURVE('',#530,#529,#67,.T.);
#412=EDGE_CURVE('',#531,#514,#597,.T.);
#413=EDGE_CURVE('',#531,#530,#68,.T.);
#414=EDGE_CURVE('',#532,#513,#598,.T.);
#415=EDGE_CURVE('',#532,#531,#599,.T.);
#416=EDGE_CURVE('',#533,#512,#600,.T.);
#417=EDGE_CURVE('',#533,#532,#69,.F.);
#418=EDGE_CURVE('',#534,#511,#601,.T.);
#419=EDGE_CURVE('',#534,#533,#70,.F.);
#420=EDGE_CURVE('',#535,#510,#602,.T.);
#421=EDGE_CURVE('',#535,#534,#603,.T.);
#422=EDGE_CURVE('',#536,#509,#604,.T.);
#423=EDGE_CURVE('',#536,#535,#71,.F.);
#424=EDGE_CURVE('',#537,#508,#605,.T.);
#425=EDGE_CURVE('',#537,#536,#72,.F.);
#426=EDGE_CURVE('',#538,#507,#606,.T.);
#427=EDGE_CURVE('',#538,#537,#607,.T.);
#428=EDGE_CURVE('',#539,#506,#608,.T.);
#429=EDGE_CURVE('',#539,#538,#73,.T.);
#430=EDGE_CURVE('',#540,#505,#609,.T.);
#431=EDGE_CURVE('',#540,#539,#74,.T.);
#432=EDGE_CURVE('',#541,#504,#610,.T.);
#433=EDGE_CURVE('',#541,#540,#611,.T.);
#434=EDGE_CURVE('',#542,#503,#612,.T.);
#435=EDGE_CURVE('',#542,#541,#75,.F.);
#436=EDGE_CURVE('',#543,#502,#613,.T.);
#437=EDGE_CURVE('',#543,#542,#76,.F.);
#438=EDGE_CURVE('',#544,#501,#614,.T.);
#439=EDGE_CURVE('',#544,#543,#615,.T.);
#440=EDGE_CURVE('',#545,#500,#616,.T.);
#441=EDGE_CURVE('',#545,#544,#77,.F.);
#442=EDGE_CURVE('',#546,#499,#617,.T.);
#443=EDGE_CURVE('',#546,#545,#78,.F.);
#444=EDGE_CURVE('',#547,#498,#618,.T.);
#445=EDGE_CURVE('',#547,#546,#619,.T.);
#446=EDGE_CURVE('',#548,#497,#620,.T.);
#447=EDGE_CURVE('',#548,#547,#79,.F.);
#448=EDGE_CURVE('',#549,#496,#621,.T.);
#449=EDGE_CURVE('',#549,#548,#80,.F.);
#450=EDGE_CURVE('',#550,#495,#622,.T.);
#451=EDGE_CURVE('',#550,#549,#623,.T.);
#452=EDGE_CURVE('',#551,#494,#624,.T.);
#453=EDGE_CURVE('',#551,#550,#81,.F.);
#454=EDGE_CURVE('',#552,#493,#625,.T.);
#455=EDGE_CURVE('',#552,#551,#82,.F.);
#456=EDGE_CURVE('',#553,#492,#626,.T.);
#457=EDGE_CURVE('',#553,#552,#627,.T.);
#458=EDGE_CURVE('',#554,#491,#628,.T.);
#459=EDGE_CURVE('',#554,#553,#83,.T.);
#460=EDGE_CURVE('',#555,#490,#629,.T.);
#461=EDGE_CURVE('',#555,#554,#84,.T.);
#462=EDGE_CURVE('',#556,#489,#630,.T.);
#463=EDGE_CURVE('',#556,#555,#631,.T.);
#464=EDGE_CURVE('',#557,#488,#632,.T.);
#465=EDGE_CURVE('',#557,#556,#85,.F.);
#466=EDGE_CURVE('',#558,#487,#633,.T.);
#467=EDGE_CURVE('',#558,#557,#86,.F.);
#468=EDGE_CURVE('',#559,#486,#634,.T.);
#469=EDGE_CURVE('',#559,#558,#635,.T.);
#470=EDGE_CURVE('',#560,#485,#636,.T.);
#471=EDGE_CURVE('',#560,#559,#87,.F.);
#472=EDGE_CURVE('',#561,#484,#637,.T.);
#473=EDGE_CURVE('',#561,#560,#88,.F.);
#474=EDGE_CURVE('',#562,#483,#638,.T.);
#475=EDGE_CURVE('',#562,#561,#639,.T.);
#476=EDGE_CURVE('',#525,#562,#89,.F.);
#477=VERTEX_POINT('',#1266);
#478=VERTEX_POINT('',#1267);
#479=VERTEX_POINT('',#1269);
#480=VERTEX_POINT('',#1271);
#481=VERTEX_POINT('',#1274);
#482=VERTEX_POINT('',#1275);
#483=VERTEX_POINT('',#1277);
#484=VERTEX_POINT('',#1279);
#485=VERTEX_POINT('',#1281);
#486=VERTEX_POINT('',#1283);
#487=VERTEX_POINT('',#1285);
#488=VERTEX_POINT('',#1287);
#489=VERTEX_POINT('',#1289);
#490=VERTEX_POINT('',#1291);
#491=VERTEX_POINT('',#1293);
#492=VERTEX_POINT('',#1295);
#493=VERTEX_POINT('',#1297);
#494=VERTEX_POINT('',#1299);
#495=VERTEX_POINT('',#1301);
#496=VERTEX_POINT('',#1303);
#497=VERTEX_POINT('',#1305);
#498=VERTEX_POINT('',#1307);
#499=VERTEX_POINT('',#1309);
#500=VERTEX_POINT('',#1311);
#501=VERTEX_POINT('',#1313);
#502=VERTEX_POINT('',#1315);
#503=VERTEX_POINT('',#1317);
#504=VERTEX_POINT('',#1319);
#505=VERTEX_POINT('',#1321);
#506=VERTEX_POINT('',#1323);
#507=VERTEX_POINT('',#1325);
#508=VERTEX_POINT('',#1327);
#509=VERTEX_POINT('',#1329);
#510=VERTEX_POINT('',#1331);
#511=VERTEX_POINT('',#1333);
#512=VERTEX_POINT('',#1335);
#513=VERTEX_POINT('',#1337);
#514=VERTEX_POINT('',#1339);
#515=VERTEX_POINT('',#1341);
#516=VERTEX_POINT('',#1343);
#517=VERTEX_POINT('',#1345);
#518=VERTEX_POINT('',#1347);
#519=VERTEX_POINT('',#1349);
#520=VERTEX_POINT('',#1353);
#521=VERTEX_POINT('',#1355);
#522=VERTEX_POINT('',#1359);
#523=VERTEX_POINT('',#1363);
#524=VERTEX_POINT('',#1370);
#525=VERTEX_POINT('',#1372);
#526=VERTEX_POINT('',#1376);
#527=VERTEX_POINT('',#1380);
#528=VERTEX_POINT('',#1384);
#529=VERTEX_POINT('',#1388);
#530=VERTEX_POINT('',#1392);
#531=VERTEX_POINT('',#1396);
#532=VERTEX_POINT('',#1400);
#533=VERTEX_POINT('',#1404);
#534=VERTEX_POINT('',#1408);
#535=VERTEX_POINT('',#1412);
#536=VERTEX_POINT('',#1416);
#537=VERTEX_POINT('',#1420);
#538=VERTEX_POINT('',#1424);
#539=VERTEX_POINT('',#1428);
#540=VERTEX_POINT('',#1432);
#541=VERTEX_POINT('',#1436);
#542=VERTEX_POINT('',#1440);
#543=VERTEX_POINT('',#1444);
#544=VERTEX_POINT('',#1448);
#545=VERTEX_POINT('',#1452);
#546=VERTEX_POINT('',#1456);
#547=VERTEX_POINT('',#1460);
#548=VERTEX_POINT('',#1464);
#549=VERTEX_POINT('',#1468);
#550=VERTEX_POINT('',#1472);
#551=VERTEX_POINT('',#1476);
#552=VERTEX_POINT('',#1480);
#553=VERTEX_POINT('',#1484);
#554=VERTEX_POINT('',#1488);
#555=VERTEX_POINT('',#1492);
#556=VERTEX_POINT('',#1496);
#557=VERTEX_POINT('',#1500);
#558=VERTEX_POINT('',#1504);
#559=VERTEX_POINT('',#1508);
#560=VERTEX_POINT('',#1512);
#561=VERTEX_POINT('',#1516);
#562=VERTEX_POINT('',#1520);
#563=LINE('',#1265,#640);
#564=LINE('',#1268,#641);
#565=LINE('',#1270,#642);
#566=LINE('',#1272,#643);
#567=LINE('',#1278,#644);
#568=LINE('',#1284,#645);
#569=LINE('',#1290,#646);
#570=LINE('',#1296,#647);
#571=LINE('',#1302,#648);
#572=LINE('',#1308,#649);
#573=LINE('',#1314,#650);
#574=LINE('',#1320,#651);
#575=LINE('',#1326,#652);
#576=LINE('',#1332,#653);
#577=LINE('',#1338,#654);
#578=LINE('',#1344,#655);
#579=LINE('',#1350,#656);
#580=LINE('',#1352,#657);
#581=LINE('',#1354,#658);
#582=LINE('',#1356,#659);
#583=LINE('',#1358,#660);
#584=LINE('',#1360,#661);
#585=LINE('',#1362,#662);
#586=LINE('',#1364,#663);
#587=LINE('',#1366,#664);
#588=LINE('',#1369,#665);
#589=LINE('',#1373,#666);
#590=LINE('',#1375,#667);
#591=LINE('',#1377,#668);
#592=LINE('',#1379,#669);
#593=LINE('',#1383,#670);
#594=LINE('',#1387,#671);
#595=LINE('',#1389,#672);
#596=LINE('',#1391,#673);
#597=LINE('',#1395,#674);
#598=LINE('',#1399,#675);
#599=LINE('',#1401,#676);
#600=LINE('',#1403,#677);
#601=LINE('',#1407,#678);
#602=LINE('',#1411,#679);
#603=LINE('',#1413,#680);
#604=LINE('',#1415,#681);
#605=LINE('',#1419,#682);
#606=LINE('',#1423,#683);
#607=LINE('',#1425,#684);
#608=LINE('',#1427,#685);
#609=LINE('',#1431,#686);
#610=LINE('',#1435,#687);
#611=LINE('',#1437,#688);
#612=LINE('',#1439,#689);
#613=LINE('',#1443,#690);
#614=LINE('',#1447,#691);
#615=LINE('',#1449,#692);
#616=LINE('',#1451,#693);
#617=LINE('',#1455,#694);
#618=LINE('',#1459,#695);
#619=LINE('',#1461,#696);
#620=LINE('',#1463,#697);
#621=LINE('',#1467,#698);
#622=LINE('',#1471,#699);
#623=LINE('',#1473,#700);
#624=LINE('',#1475,#701);
#625=LINE('',#1479,#702);
#626=LINE('',#1483,#703);
#627=LINE('',#1485,#704);
#628=LINE('',#1487,#705);
#629=LINE('',#1491,#706);
#630=LINE('',#1495,#707);
#631=LINE('',#1497,#708);
#632=LINE('',#1499,#709);
#633=LINE('',#1503,#710);
#634=LINE('',#1507,#711);
#635=LINE('',#1509,#712);
#636=LINE('',#1511,#713);
#637=LINE('',#1515,#714);
#638=LINE('',#1519,#715);
#639=LINE('',#1521,#716);
#640=VECTOR('',#992,1.);
#641=VECTOR('',#993,1.);
#642=VECTOR('',#994,1.);
#643=VECTOR('',#995,1.);
#644=VECTOR('',#1000,1.);
#645=VECTOR('',#1005,1.);
#646=VECTOR('',#1010,1.);
#647=VECTOR('',#1015,1.);
#648=VECTOR('',#1020,1.);
#649=VECTOR('',#1025,1.);
#650=VECTOR('',#1030,1.);
#651=VECTOR('',#1035,1.);
#652=VECTOR('',#1040,1.);
#653=VECTOR('',#1045,1.);
#654=VECTOR('',#1050,1.);
#655=VECTOR('',#1055,1.);
#656=VECTOR('',#1060,1.);
#657=VECTOR('',#1063,1.);
#658=VECTOR('',#1064,1.);
#659=VECTOR('',#1065,1.);
#660=VECTOR('',#1068,1.);
#661=VECTOR('',#1069,1.);
#662=VECTOR('',#1072,1.);
#663=VECTOR('',#1073,1.);
#664=VECTOR('',#1076,1.);
#665=VECTOR('',#1081,1.);
#666=VECTOR('',#1084,1.);
#667=VECTOR('',#1087,1.);
#668=VECTOR('',#1088,1.);
#669=VECTOR('',#1091,1.);
#670=VECTOR('',#1096,1.);
#671=VECTOR('',#1101,1.);
#672=VECTOR('',#1102,1.);
#673=VECTOR('',#1105,1.);
#674=VECTOR('',#1110,1.);
#675=VECTOR('',#1115,1.);
#676=VECTOR('',#1116,1.);
#677=VECTOR('',#1119,1.);
#678=VECTOR('',#1124,1.);
#679=VECTOR('',#1129,1.);
#680=VECTOR('',#1130,1.);
#681=VECTOR('',#1133,1.);
#682=VECTOR('',#1138,1.);
#683=VECTOR('',#1143,1.);
#684=VECTOR('',#1144,1.);
#685=VECTOR('',#1147,1.);
#686=VECTOR('',#1152,1.);
#687=VECTOR('',#1157,1.);
#688=VECTOR('',#1158,1.);
#689=VECTOR('',#1161,1.);
#690=VECTOR('',#1166,1.);
#691=VECTOR('',#1171,1.);
#692=VECTOR('',#1172,1.);
#693=VECTOR('',#1175,1.);
#694=VECTOR('',#1180,1.);
#695=VECTOR('',#1185,1.);
#696=VECTOR('',#1186,1.);
#697=VECTOR('',#1189,1.);
#698=VECTOR('',#1194,1.);
#699=VECTOR('',#1199,1.);
#700=VECTOR('',#1200,1.);
#701=VECTOR('',#1203,1.);
#702=VECTOR('',#1208,1.);
#703=VECTOR('',#1213,1.);
#704=VECTOR('',#1214,1.);
#705=VECTOR('',#1217,1.);
#706=VECTOR('',#1222,1.);
#707=VECTOR('',#1227,1.);
#708=VECTOR('',#1228,1.);
#709=VECTOR('',#1231,1.);
#710=VECTOR('',#1236,1.);
#711=VECTOR('',#1241,1.);
#712=VECTOR('',#1242,1.);
#713=VECTOR('',#1245,1.);
#714=VECTOR('',#1250,1.);
#715=VECTOR('',#1255,1.);
#716=VECTOR('',#1256,1.);
#717=EDGE_LOOP('',(#90,#91,#92,#93));
#718=EDGE_LOOP('',(#94,#95,#96,#97,#98,#99,#100,#101,#102,#103,#104,#105,
#106,#107,#108,#109,#110,#111,#112,#113,#114,#115,#116,#117,#118,#119,#120,
#121,#122,#123,#124,#125,#126,#127,#128,#129,#130,#131,#132));
#719=EDGE_LOOP('',(#133,#134,#135,#136));
#720=EDGE_LOOP('',(#137,#138,#139,#140));
#721=EDGE_LOOP('',(#141,#142,#143,#144));
#722=EDGE_LOOP('',(#145,#146,#147,#148));
#723=EDGE_LOOP('',(#149,#150,#151,#152));
#724=EDGE_LOOP('',(#153,#154,#155,#156));
#725=EDGE_LOOP('',(#157,#158,#159,#160));
#726=EDGE_LOOP('',(#161,#162,#163,#164));
#727=EDGE_LOOP('',(#165,#166,#167,#168));
#728=EDGE_LOOP('',(#169,#170,#171,#172));
#729=EDGE_LOOP('',(#173,#174,#175,#176));
#730=EDGE_LOOP('',(#177,#178,#179,#180));
#731=EDGE_LOOP('',(#181,#182,#183,#184));
#732=EDGE_LOOP('',(#185,#186,#187,#188));
#733=EDGE_LOOP('',(#189,#190,#191,#192));
#734=EDGE_LOOP('',(#193,#194,#195,#196));
#735=EDGE_LOOP('',(#197,#198,#199,#200));
#736=EDGE_LOOP('',(#201,#202,#203,#204));
#737=EDGE_LOOP('',(#205,#206,#207,#208));
#738=EDGE_LOOP('',(#209,#210,#211,#212));
#739=EDGE_LOOP('',(#213,#214,#215,#216));
#740=EDGE_LOOP('',(#217,#218,#219,#220));
#741=EDGE_LOOP('',(#221,#222,#223,#224));
#742=EDGE_LOOP('',(#225,#226,#227,#228));
#743=EDGE_LOOP('',(#229,#230,#231,#232));
#744=EDGE_LOOP('',(#233,#234,#235,#236));
#745=EDGE_LOOP('',(#237,#238,#239,#240));
#746=EDGE_LOOP('',(#241,#242,#243,#244));
#747=EDGE_LOOP('',(#245,#246,#247,#248));
#748=EDGE_LOOP('',(#249,#250,#251,#252));
#749=EDGE_LOOP('',(#253,#254,#255,#256));
#750=EDGE_LOOP('',(#257,#258,#259,#260));
#751=EDGE_LOOP('',(#261,#262,#263,#264));
#752=EDGE_LOOP('',(#265,#266,#267,#268));
#753=EDGE_LOOP('',(#269,#270,#271,#272));
#754=EDGE_LOOP('',(#273,#274,#275,#276));
#755=EDGE_LOOP('',(#277,#278,#279,#280));
#756=EDGE_LOOP('',(#281,#282,#283,#284));
#757=EDGE_LOOP('',(#285,#286,#287,#288));
#758=EDGE_LOOP('',(#289,#290,#291,#292));
#759=EDGE_LOOP('',(#293,#294,#295,#296));
#760=EDGE_LOOP('',(#297,#298,#299,#300));
#761=EDGE_LOOP('',(#301,#302,#303,#304));
#762=EDGE_LOOP('',(#305,#306,#307,#308));
#763=EDGE_LOOP('',(#309,#310,#311,#312,#313,#314,#315,#316,#317,#318,#319,
#320,#321,#322,#323,#324,#325,#326,#327,#328,#329,#330,#331,#332,#333,#334,
#335,#336,#337,#338,#339,#340,#341,#342,#343,#344,#345,#346,#347));
#764=FACE_BOUND('',#717,.T.);
#765=FACE_BOUND('',#718,.T.);
#766=FACE_BOUND('',#719,.T.);
#767=FACE_BOUND('',#720,.T.);
#768=FACE_BOUND('',#721,.T.);
#769=FACE_BOUND('',#722,.T.);
#770=FACE_BOUND('',#723,.T.);
#771=FACE_BOUND('',#724,.T.);
#772=FACE_BOUND('',#725,.T.);
#773=FACE_BOUND('',#726,.T.);
#774=FACE_BOUND('',#727,.T.);
#775=FACE_BOUND('',#728,.T.);
#776=FACE_BOUND('',#729,.T.);
#777=FACE_BOUND('',#730,.T.);
#778=FACE_BOUND('',#731,.T.);
#779=FACE_BOUND('',#732,.T.);
#780=FACE_BOUND('',#733,.T.);
#781=FACE_BOUND('',#734,.T.);
#782=FACE_BOUND('',#735,.T.);
#783=FACE_BOUND('',#736,.T.);
#784=FACE_BOUND('',#737,.T.);
#785=FACE_BOUND('',#738,.T.);
#786=FACE_BOUND('',#739,.T.);
#787=FACE_BOUND('',#740,.T.);
#788=FACE_BOUND('',#741,.T.);
#789=FACE_BOUND('',#742,.T.);
#790=FACE_BOUND('',#743,.T.);
#791=FACE_BOUND('',#744,.T.);
#792=FACE_BOUND('',#745,.T.);
#793=FACE_BOUND('',#746,.T.);
#794=FACE_BOUND('',#747,.T.);
#795=FACE_BOUND('',#748,.T.);
#796=FACE_BOUND('',#749,.T.);
#797=FACE_BOUND('',#750,.T.);
#798=FACE_BOUND('',#751,.T.);
#799=FACE_BOUND('',#752,.T.);
#800=FACE_BOUND('',#753,.T.);
#801=FACE_BOUND('',#754,.T.);
#802=FACE_BOUND('',#755,.T.);
#803=FACE_BOUND('',#756,.T.);
#804=FACE_BOUND('',#757,.T.);
#805=FACE_BOUND('',#758,.T.);
#806=FACE_BOUND('',#759,.T.);
#807=FACE_BOUND('',#760,.T.);
#808=FACE_BOUND('',#761,.T.);
#809=FACE_BOUND('',#762,.T.);
#810=FACE_BOUND('',#763,.T.);
#811=PLANE('',#890);
#812=PLANE('',#917);
#813=PLANE('',#918);
#814=PLANE('',#919);
#815=PLANE('',#920);
#816=PLANE('',#921);
#817=PLANE('',#924);
#818=PLANE('',#929);
#819=PLANE('',#934);
#820=PLANE('',#939);
#821=PLANE('',#944);
#822=PLANE('',#949);
#823=PLANE('',#954);
#824=PLANE('',#959);
#825=PLANE('',#964);
#826=PLANE('',#969);
#827=PLANE('',#974);
#828=PLANE('',#979);
#829=PLANE('',#984);
#830=PLANE('',#987);
#831=ADVANCED_FACE('',(#764,#765),#811,.F.);
#832=ADVANCED_FACE('',(#766),#812,.T.);
#833=ADVANCED_FACE('',(#767),#813,.F.);
#834=ADVANCED_FACE('',(#768),#814,.F.);
#835=ADVANCED_FACE('',(#769),#815,.T.);
#836=ADVANCED_FACE('',(#770),#816,.T.);
#837=ADVANCED_FACE('',(#771),#12,.F.);
#838=ADVANCED_FACE('',(#772),#817,.T.);
#839=ADVANCED_FACE('',(#773),#13,.F.);
#840=ADVANCED_FACE('',(#774),#14,.F.);
#841=ADVANCED_FACE('',(#775),#818,.T.);
#842=ADVANCED_FACE('',(#776),#15,.T.);
#843=ADVANCED_FACE('',(#777),#16,.T.);
#844=ADVANCED_FACE('',(#778),#819,.T.);
#845=ADVANCED_FACE('',(#779),#17,.F.);
#846=ADVANCED_FACE('',(#780),#18,.F.);
#847=ADVANCED_FACE('',(#781),#820,.T.);
#848=ADVANCED_FACE('',(#782),#19,.F.);
#849=ADVANCED_FACE('',(#783),#20,.F.);
#850=ADVANCED_FACE('',(#784),#821,.T.);
#851=ADVANCED_FACE('',(#785),#21,.T.);
#852=ADVANCED_FACE('',(#786),#22,.T.);
#853=ADVANCED_FACE('',(#787),#822,.T.);
#854=ADVANCED_FACE('',(#788),#23,.F.);
#855=ADVANCED_FACE('',(#789),#24,.F.);
#856=ADVANCED_FACE('',(#790),#823,.T.);
#857=ADVANCED_FACE('',(#791),#25,.F.);
#858=ADVANCED_FACE('',(#792),#26,.F.);
#859=ADVANCED_FACE('',(#793),#824,.T.);
#860=ADVANCED_FACE('',(#794),#27,.F.);
#861=ADVANCED_FACE('',(#795),#28,.F.);
#862=ADVANCED_FACE('',(#796),#825,.T.);
#863=ADVANCED_FACE('',(#797),#29,.F.);
#864=ADVANCED_FACE('',(#798),#30,.F.);
#865=ADVANCED_FACE('',(#799),#826,.T.);
#866=ADVANCED_FACE('',(#800),#31,.T.);
#867=ADVANCED_FACE('',(#801),#32,.T.);
#868=ADVANCED_FACE('',(#802),#827,.T.);
#869=ADVANCED_FACE('',(#803),#33,.F.);
#870=ADVANCED_FACE('',(#804),#34,.F.);
#871=ADVANCED_FACE('',(#805),#828,.T.);
#872=ADVANCED_FACE('',(#806),#35,.F.);
#873=ADVANCED_FACE('',(#807),#36,.F.);
#874=ADVANCED_FACE('',(#808),#829,.T.);
#875=ADVANCED_FACE('',(#809),#37,.F.);
#876=ADVANCED_FACE('',(#810),#830,.T.);
#877=CLOSED_SHELL('',(#831,#832,#833,#834,#835,#836,#837,#838,#839,#840,
#841,#842,#843,#844,#845,#846,#847,#848,#849,#850,#851,#852,#853,#854,#855,
#856,#857,#858,#859,#860,#861,#862,#863,#864,#865,#866,#867,#868,#869,#870,
#871,#872,#873,#874,#875,#876));
#878=STYLED_ITEM('',(#879),#886);
#879=PRESENTATION_STYLE_ASSIGNMENT((#880));
#880=SURFACE_STYLE_USAGE(.BOTH.,#881);
#881=SURFACE_SIDE_STYLE('',(#882));
#882=SURFACE_STYLE_FILL_AREA(#883);
#883=FILL_AREA_STYLE('',(#884));
#884=FILL_AREA_STYLE_COLOUR('',#885);
#885=COLOUR_RGB('',0.615686274509804,0.811764705882353,0.929411764705882);
#886=MANIFOLD_SOLID_BREP('Part 1',#877);
#887=SHAPE_DEFINITION_REPRESENTATION(#1531,#888);
#888=SHAPE_REPRESENTATION('Part 1',(#889),#1526);
#889=AXIS2_PLACEMENT_3D('',#1263,#988,#989);
#890=AXIS2_PLACEMENT_3D('',#1264,#990,#991);
#891=AXIS2_PLACEMENT_3D('',#1273,#996,#997);
#892=AXIS2_PLACEMENT_3D('',#1276,#998,#999);
#893=AXIS2_PLACEMENT_3D('',#1280,#1001,#1002);
#894=AXIS2_PLACEMENT_3D('',#1282,#1003,#1004);
#895=AXIS2_PLACEMENT_3D('',#1286,#1006,#1007);
#896=AXIS2_PLACEMENT_3D('',#1288,#1008,#1009);
#897=AXIS2_PLACEMENT_3D('',#1292,#1011,#1012);
#898=AXIS2_PLACEMENT_3D('',#1294,#1013,#1014);
#899=AXIS2_PLACEMENT_3D('',#1298,#1016,#1017);
#900=AXIS2_PLACEMENT_3D('',#1300,#1018,#1019);
#901=AXIS2_PLACEMENT_3D('',#1304,#1021,#1022);
#902=AXIS2_PLACEMENT_3D('',#1306,#1023,#1024);
#903=AXIS2_PLACEMENT_3D('',#1310,#1026,#1027);
#904=AXIS2_PLACEMENT_3D('',#1312,#1028,#1029);
#905=AXIS2_PLACEMENT_3D('',#1316,#1031,#1032);
#906=AXIS2_PLACEMENT_3D('',#1318,#1033,#1034);
#907=AXIS2_PLACEMENT_3D('',#1322,#1036,#1037);
#908=AXIS2_PLACEMENT_3D('',#1324,#1038,#1039);
#909=AXIS2_PLACEMENT_3D('',#1328,#1041,#1042);
#910=AXIS2_PLACEMENT_3D('',#1330,#1043,#1044);
#911=AXIS2_PLACEMENT_3D('',#1334,#1046,#1047);
#912=AXIS2_PLACEMENT_3D('',#1336,#1048,#1049);
#913=AXIS2_PLACEMENT_3D('',#1340,#1051,#1052);
#914=AXIS2_PLACEMENT_3D('',#1342,#1053,#1054);
#915=AXIS2_PLACEMENT_3D('',#1346,#1056,#1057);
#916=AXIS2_PLACEMENT_3D('',#1348,#1058,#1059);
#917=AXIS2_PLACEMENT_3D('',#1351,#1061,#1062);
#918=AXIS2_PLACEMENT_3D('',#1357,#1066,#1067);
#919=AXIS2_PLACEMENT_3D('',#1361,#1070,#1071);
#920=AXIS2_PLACEMENT_3D('',#1365,#1074,#1075);
#921=AXIS2_PLACEMENT_3D('',#1367,#1077,#1078);
#922=AXIS2_PLACEMENT_3D('',#1368,#1079,#1080);
#923=AXIS2_PLACEMENT_3D('',#1371,#1082,#1083);
#924=AXIS2_PLACEMENT_3D('',#1374,#1085,#1086);
#925=AXIS2_PLACEMENT_3D('',#1378,#1089,#1090);
#926=AXIS2_PLACEMENT_3D('',#1381,#1092,#1093);
#927=AXIS2_PLACEMENT_3D('',#1382,#1094,#1095);
#928=AXIS2_PLACEMENT_3D('',#1385,#1097,#1098);
#929=AXIS2_PLACEMENT_3D('',#1386,#1099,#1100);
#930=AXIS2_PLACEMENT_3D('',#1390,#1103,#1104);
#931=AXIS2_PLACEMENT_3D('',#1393,#1106,#1107);
#932=AXIS2_PLACEMENT_3D('',#1394,#1108,#1109);
#933=AXIS2_PLACEMENT_3D('',#1397,#1111,#1112);
#934=AXIS2_PLACEMENT_3D('',#1398,#1113,#1114);
#935=AXIS2_PLACEMENT_3D('',#1402,#1117,#1118);
#936=AXIS2_PLACEMENT_3D('',#1405,#1120,#1121);
#937=AXIS2_PLACEMENT_3D('',#1406,#1122,#1123);
#938=AXIS2_PLACEMENT_3D('',#1409,#1125,#1126);
#939=AXIS2_PLACEMENT_3D('',#1410,#1127,#1128);
#940=AXIS2_PLACEMENT_3D('',#1414,#1131,#1132);
#941=AXIS2_PLACEMENT_3D('',#1417,#1134,#1135);
#942=AXIS2_PLACEMENT_3D('',#1418,#1136,#1137);
#943=AXIS2_PLACEMENT_3D('',#1421,#1139,#1140);
#944=AXIS2_PLACEMENT_3D('',#1422,#1141,#1142);
#945=AXIS2_PLACEMENT_3D('',#1426,#1145,#1146);
#946=AXIS2_PLACEMENT_3D('',#1429,#1148,#1149);
#947=AXIS2_PLACEMENT_3D('',#1430,#1150,#1151);
#948=AXIS2_PLACEMENT_3D('',#1433,#1153,#1154);
#949=AXIS2_PLACEMENT_3D('',#1434,#1155,#1156);
#950=AXIS2_PLACEMENT_3D('',#1438,#1159,#1160);
#951=AXIS2_PLACEMENT_3D('',#1441,#1162,#1163);
#952=AXIS2_PLACEMENT_3D('',#1442,#1164,#1165);
#953=AXIS2_PLACEMENT_3D('',#1445,#1167,#1168);
#954=AXIS2_PLACEMENT_3D('',#1446,#1169,#1170);
#955=AXIS2_PLACEMENT_3D('',#1450,#1173,#1174);
#956=AXIS2_PLACEMENT_3D('',#1453,#1176,#1177);
#957=AXIS2_PLACEMENT_3D('',#1454,#1178,#1179);
#958=AXIS2_PLACEMENT_3D('',#1457,#1181,#1182);
#959=AXIS2_PLACEMENT_3D('',#1458,#1183,#1184);
#960=AXIS2_PLACEMENT_3D('',#1462,#1187,#1188);
#961=AXIS2_PLACEMENT_3D('',#1465,#1190,#1191);
#962=AXIS2_PLACEMENT_3D('',#1466,#1192,#1193);
#963=AXIS2_PLACEMENT_3D('',#1469,#1195,#1196);
#964=AXIS2_PLACEMENT_3D('',#1470,#1197,#1198);
#965=AXIS2_PLACEMENT_3D('',#1474,#1201,#1202);
#966=AXIS2_PLACEMENT_3D('',#1477,#1204,#1205);
#967=AXIS2_PLACEMENT_3D('',#1478,#1206,#1207);
#968=AXIS2_PLACEMENT_3D('',#1481,#1209,#1210);
#969=AXIS2_PLACEMENT_3D('',#1482,#1211,#1212);
#970=AXIS2_PLACEMENT_3D('',#1486,#1215,#1216);
#971=AXIS2_PLACEMENT_3D('',#1489,#1218,#1219);
#972=AXIS2_PLACEMENT_3D('',#1490,#1220,#1221);
#973=AXIS2_PLACEMENT_3D('',#1493,#1223,#1224);
#974=AXIS2_PLACEMENT_3D('',#1494,#1225,#1226);
#975=AXIS2_PLACEMENT_3D('',#1498,#1229,#1230);
#976=AXIS2_PLACEMENT_3D('',#1501,#1232,#1233);
#977=AXIS2_PLACEMENT_3D('',#1502,#1234,#1235);
#978=AXIS2_PLACEMENT_3D('',#1505,#1237,#1238);
#979=AXIS2_PLACEMENT_3D('',#1506,#1239,#1240);
#980=AXIS2_PLACEMENT_3D('',#1510,#1243,#1244);
#981=AXIS2_PLACEMENT_3D('',#1513,#1246,#1247);
#982=AXIS2_PLACEMENT_3D('',#1514,#1248,#1249);
#983=AXIS2_PLACEMENT_3D('',#1517,#1251,#1252);
#984=AXIS2_PLACEMENT_3D('',#1518,#1253,#1254);
#985=AXIS2_PLACEMENT_3D('',#1522,#1257,#1258);
#986=AXIS2_PLACEMENT_3D('',#1523,#1259,#1260);
#987=AXIS2_PLACEMENT_3D('',#1524,#1261,#1262);
#988=DIRECTION('',(0.,0.,1.));
#989=DIRECTION('',(1.,0.,0.));
#990=DIRECTION('',(0.,-1.,0.));
#991=DIRECTION('',(1.,0.,0.));
#992=DIRECTION('',(1.38777878078145E-16,0.,-1.));
#993=DIRECTION('',(-1.,0.,0.));
#994=DIRECTION('',(1.38777878078145E-16,0.,-1.));
#995=DIRECTION('',(-1.,0.,0.));
#996=DIRECTION('',(0.,1.,0.));
#997=DIRECTION('',(0.,0.,1.));
#998=DIRECTION('',(0.,1.,0.));
#999=DIRECTION('',(0.,0.,1.));
#1000=DIRECTION('',(0.,0.,1.));
#1001=DIRECTION('',(0.,1.,0.));
#1002=DIRECTION('',(0.,0.,1.));
#1003=DIRECTION('',(0.,1.,0.));
#1004=DIRECTION('',(0.,0.,1.));
#1005=DIRECTION('',(-1.,0.,0.));
#1006=DIRECTION('',(0.,1.,0.));
#1007=DIRECTION('',(0.,0.,1.));
#1008=DIRECTION('',(0.,1.,0.));
#1009=DIRECTION('',(0.,0.,1.));
#1010=DIRECTION('',(-0.420009187801476,0.,-0.907519852213903));
#1011=DIRECTION('',(0.,1.,0.));
#1012=DIRECTION('',(0.,0.,1.));
#1013=DIRECTION('',(0.,1.,0.));
#1014=DIRECTION('',(0.,0.,1.));
#1015=DIRECTION('',(-0.420009187801476,0.,0.907519852213903));
#1016=DIRECTION('',(0.,1.,0.));
#1017=DIRECTION('',(0.,0.,1.));
#1018=DIRECTION('',(0.,1.,0.));
#1019=DIRECTION('',(0.,0.,1.));
#1020=DIRECTION('',(-1.,0.,0.));
#1021=DIRECTION('',(0.,1.,0.));
#1022=DIRECTION('',(0.,0.,1.));
#1023=DIRECTION('',(0.,1.,0.));
#1024=DIRECTION('',(0.,0.,1.));
#1025=DIRECTION('',(0.,0.,-1.));
#1026=DIRECTION('',(0.,1.,0.));
#1027=DIRECTION('',(0.,0.,1.));
#1028=DIRECTION('',(0.,1.,0.));
#1029=DIRECTION('',(0.,0.,1.));
#1030=DIRECTION('',(1.,0.,0.));
#1031=DIRECTION('',(0.,1.,0.));
#1032=DIRECTION('',(0.,0.,1.));
#1033=DIRECTION('',(0.,1.,0.));
#1034=DIRECTION('',(0.,0.,1.));
#1035=DIRECTION('',(0.,0.,1.));
#1036=DIRECTION('',(0.,1.,0.));
#1037=DIRECTION('',(0.,0.,1.));
#1038=DIRECTION('',(0.,1.,0.));
#1039=DIRECTION('',(0.,0.,1.));
#1040=DIRECTION('',(0.423036233682727,0.,-0.906112766156362));
#1041=DIRECTION('',(0.,1.,0.));
#1042=DIRECTION('',(0.,0.,1.));
#1043=DIRECTION('',(0.,1.,0.));
#1044=DIRECTION('',(0.,0.,1.));
#1045=DIRECTION('',(1.,0.,0.));
#1046=DIRECTION('',(0.,1.,0.));
#1047=DIRECTION('',(0.,0.,1.));
#1048=DIRECTION('',(0.,1.,0.));
#1049=DIRECTION('',(0.,0.,1.));
#1050=DIRECTION('',(0.423036233682727,0.,0.906112766156362));
#1051=DIRECTION('',(0.,1.,0.));
#1052=DIRECTION('',(0.,0.,1.));
#1053=DIRECTION('',(0.,1.,0.));
#1054=DIRECTION('',(0.,0.,1.));
#1055=DIRECTION('',(0.,0.,-1.));
#1056=DIRECTION('',(0.,1.,0.));
#1057=DIRECTION('',(0.,0.,1.));
#1058=DIRECTION('',(0.,1.,0.));
#1059=DIRECTION('',(0.,0.,1.));
#1060=DIRECTION('',(1.,0.,0.));
#1061=DIRECTION('',(1.,0.,1.38777878078145E-16));
#1062=DIRECTION('',(1.38777878078145E-16,0.,-1.));
#1063=DIRECTION('',(0.,1.,0.));
#1064=DIRECTION('',(1.38777878078145E-16,0.,-1.));
#1065=DIRECTION('',(0.,1.,0.));
#1066=DIRECTION('',(0.,0.,-1.));
#1067=DIRECTION('',(-1.,0.,0.));
#1068=DIRECTION('',(0.,1.,0.));
#1069=DIRECTION('',(-1.,0.,0.));
#1070=DIRECTION('',(1.,0.,1.38777878078145E-16));
#1071=DIRECTION('',(1.38777878078145E-16,0.,-1.));
#1072=DIRECTION('',(0.,1.,0.));
#1073=DIRECTION('',(1.38777878078145E-16,0.,-1.));
#1074=DIRECTION('',(0.,0.,-1.));
#1075=DIRECTION('',(-1.,0.,0.));
#1076=DIRECTION('',(-1.,0.,0.));
#1077=DIRECTION('',(0.,-1.,0.));
#1078=DIRECTION('',(1.,0.,0.));
#1079=DIRECTION('',(0.,1.,0.));
#1080=DIRECTION('',(0.389183431510016,0.,-0.921160277388299));
#1081=DIRECTION('',(0.,1.,0.));
#1082=DIRECTION('',(0.,1.,0.));
#1083=DIRECTION('',(0.,0.,1.));
#1084=DIRECTION('',(0.,1.,0.));
#1085=DIRECTION('',(0.,0.,1.));
#1086=DIRECTION('',(1.,0.,0.));
#1087=DIRECTION('',(0.,1.,0.));
#1088=DIRECTION('',(1.,0.,0.));
#1089=DIRECTION('',(0.,1.,0.));
#1090=DIRECTION('',(-0.389183431513714,0.,-0.921160277386737));
#1091=DIRECTION('',(0.,1.,0.));
#1092=DIRECTION('',(0.,1.,0.));
#1093=DIRECTION('',(0.,0.,1.));
#1094=DIRECTION('',(0.,1.,0.));
#1095=DIRECTION('',(-0.922065444204119,0.,-0.387033999287737));
#1096=DIRECTION('',(0.,1.,0.));
#1097=DIRECTION('',(0.,1.,0.));
#1098=DIRECTION('',(0.,0.,1.));
#1099=DIRECTION('',(1.,0.,0.));
#1100=DIRECTION('',(0.,0.,-1.));
#1101=DIRECTION('',(0.,1.,0.));
#1102=DIRECTION('',(0.,0.,-1.));
#1103=DIRECTION('',(0.,1.,0.));
#1104=DIRECTION('',(0.693624511516126,0.,0.720336752515111));
#1105=DIRECTION('',(0.,1.,0.));
#1106=DIRECTION('',(0.,1.,0.));
#1107=DIRECTION('',(0.,0.,1.));
#1108=DIRECTION('',(0.,1.,0.));
#1109=DIRECTION('',(-0.693624511516156,0.,0.720336752515081));
#1110=DIRECTION('',(0.,1.,0.));
#1111=DIRECTION('',(0.,1.,0.));
#1112=DIRECTION('',(0.,0.,1.));
#1113=DIRECTION('',(-0.906112766156362,0.,0.423036233682727));
#1114=DIRECTION('',(0.423036233682727,0.,0.906112766156362));
#1115=DIRECTION('',(0.,1.,0.));
#1116=DIRECTION('',(0.423036233682727,0.,0.906112766156362));
#1117=DIRECTION('',(0.,1.,0.));
#1118=DIRECTION('',(0.746432910826516,0.,-0.665460674747241));
#1119=DIRECTION('',(0.,1.,0.));
#1120=DIRECTION('',(0.,1.,0.));
#1121=DIRECTION('',(0.,0.,1.));
#1122=DIRECTION('',(0.,1.,0.));
#1123=DIRECTION('',(0.289122400849392,0.,-0.957292137921901));
#1124=DIRECTION('',(0.,1.,0.));
#1125=DIRECTION('',(0.,1.,0.));
#1126=DIRECTION('',(0.,0.,1.));
#1127=DIRECTION('',(0.,0.,1.));
#1128=DIRECTION('',(1.,0.,0.));
#1129=DIRECTION('',(0.,1.,0.));
#1130=DIRECTION('',(1.,0.,0.));
#1131=DIRECTION('',(0.,1.,0.));
#1132=DIRECTION('',(-0.289122400849392,0.,-0.957292137921901));
#1133=DIRECTION('',(0.,1.,0.));
#1134=DIRECTION('',(0.,1.,0.));
#1135=DIRECTION('',(0.,0.,1.));
#1136=DIRECTION('',(0.,1.,0.));
#1137=DIRECTION('',(-0.748078385716952,0.,-0.663610374258209));
#1138=DIRECTION('',(0.,1.,0.));
#1139=DIRECTION('',(0.,1.,0.));
#1140=DIRECTION('',(0.,0.,1.));
#1141=DIRECTION('',(0.906112766156362,0.,0.423036233682727));
#1142=DIRECTION('',(0.423036233682727,0.,-0.906112766156362));
#1143=DIRECTION('',(0.,1.,0.));
#1144=DIRECTION('',(0.423036233682727,0.,-0.906112766156362));
#1145=DIRECTION('',(0.,1.,0.));
#1146=DIRECTION('',(0.693624511515647,0.,0.720336752515572));
#1147=DIRECTION('',(0.,1.,0.));
#1148=DIRECTION('',(0.,1.,0.));
#1149=DIRECTION('',(0.,0.,1.));
#1150=DIRECTION('',(0.,1.,0.));
#1151=DIRECTION('',(-0.693624511516104,0.,0.720336752515132));
#1152=DIRECTION('',(0.,1.,0.));
#1153=DIRECTION('',(0.,1.,0.));
#1154=DIRECTION('',(0.,0.,1.));
#1155=DIRECTION('',(-1.,0.,0.));
#1156=DIRECTION('',(0.,0.,1.));
#1157=DIRECTION('',(0.,1.,0.));
#1158=DIRECTION('',(0.,0.,1.));
#1159=DIRECTION('',(0.,1.,0.));
#1160=DIRECTION('',(0.921497576913175,0.,-0.388384108510051));
#1161=DIRECTION('',(0.,1.,0.));
#1162=DIRECTION('',(0.,1.,0.));
#1163=DIRECTION('',(0.,0.,1.));
#1164=DIRECTION('',(0.,1.,0.));
#1165=DIRECTION('',(0.388384108509949,0.,-0.921497576913218));
#1166=DIRECTION('',(0.,1.,0.));
#1167=DIRECTION('',(0.,1.,0.));
#1168=DIRECTION('',(0.,0.,1.));
#1169=DIRECTION('',(0.,0.,1.));
#1170=DIRECTION('',(1.,0.,0.));
#1171=DIRECTION('',(0.,1.,0.));
#1172=DIRECTION('',(1.,0.,0.));
#1173=DIRECTION('',(0.,1.,0.));
#1174=DIRECTION('',(-0.388384108512593,0.,-0.921497576912104));
#1175=DIRECTION('',(0.,1.,0.));
#1176=DIRECTION('',(0.,1.,0.));
#1177=DIRECTION('',(0.,0.,1.));
#1178=DIRECTION('',(0.,1.,0.));
#1179=DIRECTION('',(-0.921497576911514,0.,-0.388384108513992));
#1180=DIRECTION('',(0.,1.,0.));
#1181=DIRECTION('',(0.,1.,0.));
#1182=DIRECTION('',(0.,0.,1.));
#1183=DIRECTION('',(1.,0.,0.));
#1184=DIRECTION('',(0.,0.,-1.));
#1185=DIRECTION('',(0.,1.,0.));
#1186=DIRECTION('',(0.,0.,-1.));
#1187=DIRECTION('',(0.,1.,0.));
#1188=DIRECTION('',(-0.921497576913176,0.,0.388384108510049));
#1189=DIRECTION('',(0.,1.,0.));
#1190=DIRECTION('',(0.,1.,0.));
#1191=DIRECTION('',(0.,0.,1.));
#1192=DIRECTION('',(0.,1.,0.));
#1193=DIRECTION('',(-0.388384108514008,0.,0.921497576911507));
#1194=DIRECTION('',(0.,1.,0.));
#1195=DIRECTION('',(0.,1.,0.));
#1196=DIRECTION('',(0.,0.,1.));
#1197=DIRECTION('',(0.,0.,-1.));
#1198=DIRECTION('',(-1.,0.,0.));
#1199=DIRECTION('',(0.,1.,0.));
#1200=DIRECTION('',(-1.,0.,0.));
#1201=DIRECTION('',(0.,1.,0.));
#1202=DIRECTION('',(0.27958358101685,0.,0.960121357551114));
#1203=DIRECTION('',(0.,1.,0.));
#1204=DIRECTION('',(0.,1.,0.));
#1205=DIRECTION('',(0.,0.,1.));
#1206=DIRECTION('',(0.,1.,0.));
#1207=DIRECTION('',(0.75708166738128,0.,0.653320249889119));
#1208=DIRECTION('',(0.,1.,0.));
#1209=DIRECTION('',(0.,1.,0.));
#1210=DIRECTION('',(0.,0.,1.));
#1211=DIRECTION('',(-0.907519852213903,0.,-0.420009187801476));
#1212=DIRECTION('',(-0.420009187801476,0.,0.907519852213903));
#1213=DIRECTION('',(0.,1.,0.));
#1214=DIRECTION('',(-0.420009187801476,0.,0.907519852213903));
#1215=DIRECTION('',(0.,1.,0.));
#1216=DIRECTION('',(-0.693624511462361,0.,-0.720336752566882));
#1217=DIRECTION('',(0.,1.,0.));
#1218=DIRECTION('',(0.,1.,0.));
#1219=DIRECTION('',(0.,0.,1.));
#1220=DIRECTION('',(0.,1.,0.));
#1221=DIRECTION('',(0.693624511462375,0.,-0.720336752566868));
#1222=DIRECTION('',(0.,1.,0.));
#1223=DIRECTION('',(0.,1.,0.));
#1224=DIRECTION('',(0.,0.,1.));
#1225=DIRECTION('',(0.907519852213903,0.,-0.420009187801476));
#1226=DIRECTION('',(-0.420009187801476,0.,-0.907519852213903));
#1227=DIRECTION('',(0.,1.,0.));
#1228=DIRECTION('',(-0.420009187801476,0.,-0.907519852213903));
#1229=DIRECTION('',(0.,1.,0.));
#1230=DIRECTION('',(-0.757776998110688,0.,0.652513617585376));
#1231=DIRECTION('',(0.,1.,0.));
#1232=DIRECTION('',(0.,1.,0.));
#1233=DIRECTION('',(0.,0.,1.));
#1234=DIRECTION('',(0.,1.,0.));
#1235=DIRECTION('',(-0.279582811427713,0.,0.960121581652124));
#1236=DIRECTION('',(0.,1.,0.));
#1237=DIRECTION('',(0.,1.,0.));
#1238=DIRECTION('',(0.,0.,1.));
#1239=DIRECTION('',(0.,0.,-1.));
#1240=DIRECTION('',(-1.,0.,0.));
#1241=DIRECTION('',(0.,1.,0.));
#1242=DIRECTION('',(-1.,0.,0.));
#1243=DIRECTION('',(0.,1.,0.));
#1244=DIRECTION('',(0.389183431510016,0.,0.921160277388299));
#1245=DIRECTION('',(0.,1.,0.));
#1246=DIRECTION('',(0.,1.,0.));
#1247=DIRECTION('',(0.,0.,1.));
#1248=DIRECTION('',(0.,1.,0.));
#1249=DIRECTION('',(0.922065444204116,0.,0.387033999287746));
#1250=DIRECTION('',(0.,1.,0.));
#1251=DIRECTION('',(0.,1.,0.));
#1252=DIRECTION('',(0.,0.,1.));
#1253=DIRECTION('',(-1.,0.,0.));
#1254=DIRECTION('',(0.,0.,1.));
#1255=DIRECTION('',(0.,1.,0.));
#1256=DIRECTION('',(0.,0.,1.));
#1257=DIRECTION('',(0.,1.,0.));
#1258=DIRECTION('',(0.922065444204115,0.,-0.387033999287746));
#1259=DIRECTION('',(0.,1.,0.));
#1260=DIRECTION('',(0.,0.,1.));
#1261=DIRECTION('',(0.,1.,0.));
#1262=DIRECTION('',(-1.,0.,0.));
#1263=CARTESIAN_POINT('',(0.,0.,0.));
#1264=CARTESIAN_POINT('',(0.,0.,0.));
#1265=CARTESIAN_POINT('',(0.00625,0.,0.));
#1266=CARTESIAN_POINT('',(0.00625,0.,0.00625));
#1267=CARTESIAN_POINT('',(0.00625,0.,-0.00625));
#1268=CARTESIAN_POINT('',(8.67361737988404E-19,0.,-0.00625));
#1269=CARTESIAN_POINT('',(-0.00625,0.,-0.00625));
#1270=CARTESIAN_POINT('',(-0.00625,0.,0.));
#1271=CARTESIAN_POINT('',(-0.00625,0.,0.00625));
#1272=CARTESIAN_POINT('',(-8.67361737988404E-19,0.,0.00625));
#1273=CARTESIAN_POINT('',(0.00342952913704756,0.,-0.00354083876428998));
#1274=CARTESIAN_POINT('',(0.00342578093366364,0.,-0.00422031349422758));
#1275=CARTESIAN_POINT('',(0.00392407074460847,0.,-0.00400689293638475));
#1276=CARTESIAN_POINT('',(0.00345256097343959,0.,-0.00351098475013412));
#1277=CARTESIAN_POINT('',(0.00413677773238775,0.,-0.0035073652117175));
#1278=CARTESIAN_POINT('',(0.00413671875,0.,0.000342243851262933));
#1279=CARTESIAN_POINT('',(0.00413677773238775,0.,0.00419185291424337));
#1280=CARTESIAN_POINT('',(0.00345256097343959,0.,0.00419547245265998));
#1281=CARTESIAN_POINT('',(0.00392407074460847,0.,0.00469138063891061));
#1282=CARTESIAN_POINT('',(0.00342952913704756,0.,0.00422532646681583));
#1283=CARTESIAN_POINT('',(0.00342578093366364,0.,0.00490480119675344));
#1284=CARTESIAN_POINT('',(0.00326953125,0.,0.00490474385126293));
#1285=CARTESIAN_POINT('',(0.00311328067515202,0.,0.00490465667475783));
#1286=CARTESIAN_POINT('',(0.00310606342869464,0.,0.00381015109986917));
#1287=CARTESIAN_POINT('',(0.00251282430110321,0.,0.00472972872183961));
#1288=CARTESIAN_POINT('',(0.00304997635651492,0.,0.00386028109423488));
#1289=CARTESIAN_POINT('',(0.00211321070393654,-1.0842021724855E-19,0.00426805581001159));
#1290=CARTESIAN_POINT('',(0.00101953125,0.,0.00190474385126294));
#1291=CARTESIAN_POINT('',(-7.42501991246168E-5,0.,-0.0004586053513099));
#1292=CARTESIAN_POINT('',(-8.48290077454412E-5,0.,-0.000459603646551368));
#1293=CARTESIAN_POINT('',(-8.69140624999978E-5,0.,-0.000470256148737067));
#1294=CARTESIAN_POINT('',(-8.89991172545549E-5,0.,-0.000459603646551368));
#1295=CARTESIAN_POINT('',(-9.957792587538E-5,0.,-0.000458605351309903));
#1296=CARTESIAN_POINT('',(-0.001193359375,0.,0.00190474385126294));
#1297=CARTESIAN_POINT('',(-0.0022870289455363,-1.0842021724855E-19,0.00426806015394379));
#1298=CARTESIAN_POINT('',(-0.003222068920166,0.,0.00386055205544279));
#1299=CARTESIAN_POINT('',(-0.00268763755563019,0.,0.00472971990724348));
#1300=CARTESIAN_POINT('',(-0.00328153868868052,0.,0.00380868982305612));
#1301=CARTESIAN_POINT('',(-0.00328710911376427,0.,0.00490469245212458));
#1302=CARTESIAN_POINT('',(-0.00346875,0.,0.00490474385126293));
#1303=CARTESIAN_POINT('',(-0.00365039028401377,0.,0.00490481466104611));
#1304=CARTESIAN_POINT('',(-0.00365367774237253,0.,0.00422213544583558));
#1305=CARTESIAN_POINT('',(-0.00414976958801591,0.,0.00469123218932174));
#1306=CARTESIAN_POINT('',(-0.00368067284453424,0.,0.00419514034362246));
#1307=CARTESIAN_POINT('',(-0.00436335205978362,0.,0.0041918528852767));
#1308=CARTESIAN_POINT('',(-0.00436328125,0.,0.000342243851262934));
#1309=CARTESIAN_POINT('',(-0.00436335205978318,0.,-0.00350736518275084));
#1310=CARTESIAN_POINT('',(-0.00368067284457265,0.,-0.00351065264110961));
#1311=CARTESIAN_POINT('',(-0.00414976958803912,0.,-0.00400674448677059));
#1312=CARTESIAN_POINT('',(-0.00365367774237354,0.,-0.00353764774330942));
#1313=CARTESIAN_POINT('',(-0.00365039028401377,0.,-0.00422032695852006));
#1314=CARTESIAN_POINT('',(-0.0035126953125,0.,-0.00422025614873707));
#1315=CARTESIAN_POINT('',(-0.00337500034098623,0.,-0.00422032695851996));
#1316=CARTESIAN_POINT('',(-0.00337171288262943,0.,-0.00353764774329733));
#1317=CARTESIAN_POINT('',(-0.00287562103697164,0.,-0.00400674448678475));
#1318=CARTESIAN_POINT('',(-0.00334471778046575,0.,-0.0035106526410966));
#1319=CARTESIAN_POINT('',(-0.00266203856521638,0.,-0.00350736518275084));
#1320=CARTESIAN_POINT('',(-0.002662109375,0.,-0.000788615523737068));
#1321=CARTESIAN_POINT('',(-0.002662109375,0.,0.0019306260799939));
#1322=CARTESIAN_POINT('',(-0.00265149911724842,0.,0.00193120072407202));
#1323=CARTESIAN_POINT('',(-0.0026494140625,0.,0.00194185322626294));
#1324=CARTESIAN_POINT('',(-0.00264732900775152,0.,0.00193120072407207));
#1325=CARTESIAN_POINT('',(-0.00263675024551437,0.,0.00193020193735817));
#1326=CARTESIAN_POINT('',(-0.00188671875,0.,0.000323689163762933));
#1327=CARTESIAN_POINT('',(-0.0011368422655816,4.33680868990093E-19,-0.0012828154348088));
#1328=CARTESIAN_POINT('',(-0.000119576865054335,0.,-0.000794539634103486));
#1329=CARTESIAN_POINT('',(-0.000718549578348002,0.,-0.00175120813696901));
#1330=CARTESIAN_POINT('',(-0.000118569876366193,0.,-0.00085761769830746));
#1331=CARTESIAN_POINT('',(-0.000125001254053521,0.,-0.00193335653191624));
#1332=CARTESIAN_POINT('',(-8.78906249999981E-5,0.,-0.00193314677373706));
#1333=CARTESIAN_POINT('',(-5.07799959464757E-5,0.,-0.00193335653191624));
#1334=CARTESIAN_POINT('',(-5.72113736338043E-5,0.,-0.000857617698307464));
#1335=CARTESIAN_POINT('',(0.00054277425562803,0.,-0.00175120377207032));
#1336=CARTESIAN_POINT('',(-6.41787439196922E-5,0.,-0.000783251094053535));
#1337=CARTESIAN_POINT('',(0.000963004225731571,4.33680868994202E-19,-0.0012828113973321));
#1338=CARTESIAN_POINT('',(0.001712890625,0.,0.000323689163762933));
#1339=CARTESIAN_POINT('',(0.00246292211583382,0.,0.00193020193816799));
#1340=CARTESIAN_POINT('',(0.00247350088275158,0.,0.00193120072407202));
#1341=CARTESIAN_POINT('',(0.0024755859375,0.,0.00194185322626294));
#1342=CARTESIAN_POINT('',(0.00247767099224842,0.,0.00193120072407202));
#1343=CARTESIAN_POINT('',(0.00248828125,0.,0.0019306260799939));
#1344=CARTESIAN_POINT('',(0.00248828125,0.,-0.000788615523737067));
#1345=CARTESIAN_POINT('',(0.00248822226761226,0.,-0.0035073652117175));
#1346=CARTESIAN_POINT('',(0.00317243902656043,0.,-0.00351098475013411));
#1347=CARTESIAN_POINT('',(0.00270092925543383,0.,-0.00400689293642497));
#1348=CARTESIAN_POINT('',(0.00319547086294001,0.,-0.0035408387643264));
#1349=CARTESIAN_POINT('',(0.00319921906633636,0.,-0.00422031349422714));
#1350=CARTESIAN_POINT('',(0.0033125,0.,-0.00422025614873707));
#1351=CARTESIAN_POINT('',(0.00625,-0.005,0.));
#1352=CARTESIAN_POINT('',(0.00625,-0.005,0.00625));
#1353=CARTESIAN_POINT('',(0.00625,-0.005,0.00625));
#1354=CARTESIAN_POINT('',(0.00625,-0.005,0.));
#1355=CARTESIAN_POINT('',(0.00625,-0.005,-0.00625));
#1356=CARTESIAN_POINT('',(0.00625,-0.005,-0.00625));
#1357=CARTESIAN_POINT('',(-8.67361737988404E-19,-0.005,0.00625));
#1358=CARTESIAN_POINT('',(-0.00625,-0.005,0.00625));
#1359=CARTESIAN_POINT('',(-0.00625,-0.005,0.00625));
#1360=CARTESIAN_POINT('',(-8.67361737988404E-19,-0.005,0.00625));
#1361=CARTESIAN_POINT('',(-0.00625,-0.005,0.));
#1362=CARTESIAN_POINT('',(-0.00625,-0.005,-0.00625));
#1363=CARTESIAN_POINT('',(-0.00625,-0.005,-0.00625));
#1364=CARTESIAN_POINT('',(-0.00625,-0.005,0.));
#1365=CARTESIAN_POINT('',(8.67361737988404E-19,-0.005,-0.00625));
#1366=CARTESIAN_POINT('',(8.67361737988404E-19,-0.005,-0.00625));
#1367=CARTESIAN_POINT('',(0.,-0.005,0.));
#1368=CARTESIAN_POINT('',(0.00342952913704756,-0.001,-0.00354083876428998));
#1369=CARTESIAN_POINT('',(0.00342578125,-0.001,-0.00422025614873707));
#1370=CARTESIAN_POINT('',(0.00342578093366364,-0.00099999975,-0.00422031349422758));
#1371=CARTESIAN_POINT('',(0.00342952913704756,-0.001,-0.00354083876428998));
#1372=CARTESIAN_POINT('',(0.00392407074460847,-0.001,-0.00400689293638475));
#1373=CARTESIAN_POINT('',(0.00392407074460856,-0.001,-0.00400689293638481));
#1374=CARTESIAN_POINT('',(0.0033125,-0.001,-0.00422025614873707));
#1375=CARTESIAN_POINT('',(0.00319921875,-0.001,-0.00422025614873707));
#1376=CARTESIAN_POINT('',(0.00319921906633636,-0.001,-0.00422031349422714));
#1377=CARTESIAN_POINT('',(0.0033125,-0.001,-0.00422025614873707));
#1378=CARTESIAN_POINT('',(0.00319547086294001,-0.001,-0.0035408387643264));
#1379=CARTESIAN_POINT('',(0.00270092925543375,-0.001,-0.00400689293642504));
#1380=CARTESIAN_POINT('',(0.00270092925543383,-0.001,-0.00400689293642497));
#1381=CARTESIAN_POINT('',(0.00319547086294001,-0.001,-0.0035408387643264));
#1382=CARTESIAN_POINT('',(0.00317243902656043,-0.001,-0.00351098475013411));
#1383=CARTESIAN_POINT('',(0.00248828125,-0.001,-0.00350736552373707));
#1384=CARTESIAN_POINT('',(0.00248822226761226,-0.00099999975,-0.0035073652117175));
#1385=CARTESIAN_POINT('',(0.00317243902656043,-0.001,-0.00351098475013411));
#1386=CARTESIAN_POINT('',(0.00248828125,-0.001,-0.000788615523737067));
#1387=CARTESIAN_POINT('',(0.00248828125,-0.001,0.00193062607999381));
#1388=CARTESIAN_POINT('',(0.00248828125,-0.001,0.0019306260799939));
#1389=CARTESIAN_POINT('',(0.00248828125,-0.001,-0.000788615523737067));
#1390=CARTESIAN_POINT('',(0.00247767099224842,-0.001,0.00193120072407202));
#1391=CARTESIAN_POINT('',(0.0024755859375,-0.001,0.00194161995334244));
#1392=CARTESIAN_POINT('',(0.0024755859375,-0.001,0.00194185322626294));
#1393=CARTESIAN_POINT('',(0.00247767099224842,-0.001,0.00193120072407202));
#1394=CARTESIAN_POINT('',(0.00247350088275158,-0.001,0.00193120072407202));
#1395=CARTESIAN_POINT('',(0.00246292211115327,-0.001,0.00193020193897783));
#1396=CARTESIAN_POINT('',(0.00246292211583382,-0.001,0.00193020193816799));
#1397=CARTESIAN_POINT('',(0.00247350088275158,-0.001,0.00193120072407202));
#1398=CARTESIAN_POINT('',(0.001712890625,-0.001,0.000323689163762933));
#1399=CARTESIAN_POINT('',(0.000962890625000001,-0.001,-0.00128275614873707));
#1400=CARTESIAN_POINT('',(0.000963004225731571,-0.001,-0.0012828113973321));
#1401=CARTESIAN_POINT('',(0.001712890625,-0.001,0.000323689163762933));
#1402=CARTESIAN_POINT('',(-6.41787439196922E-5,-0.001,-0.000783251094053535));
#1403=CARTESIAN_POINT('',(0.000542968750000002,-0.001,-0.00175150614873706));
#1404=CARTESIAN_POINT('',(0.000542774255628029,-0.001,-0.00175120377207032));
#1405=CARTESIAN_POINT('',(-6.41787439196922E-5,-0.001,-0.000783251094053535));
#1406=CARTESIAN_POINT('',(-5.72113736338043E-5,-0.001,-0.000857617698307464));
#1407=CARTESIAN_POINT('',(-5.07812499999979E-5,-0.001,-0.00193314677373706));
#1408=CARTESIAN_POINT('',(-5.07799959464757E-5,-0.00099999975,-0.00193335653191624));
#1409=CARTESIAN_POINT('',(-5.72113736338043E-5,-0.001,-0.000857617698307464));
#1410=CARTESIAN_POINT('',(-8.78906249999981E-5,-0.001,-0.00193314677373706));
#1411=CARTESIAN_POINT('',(-0.000124999999999998,-0.001,-0.00193314677373706));
#1412=CARTESIAN_POINT('',(-0.000125001254053521,-0.001,-0.00193335653191624));
#1413=CARTESIAN_POINT('',(-8.78906249999981E-5,-0.001,-0.00193314677373706));
#1414=CARTESIAN_POINT('',(-0.000118569876366193,-0.001,-0.00085761769830746));
#1415=CARTESIAN_POINT('',(-0.00071875,-0.001,-0.00175150614873706));
#1416=CARTESIAN_POINT('',(-0.000718549578348002,-0.001,-0.00175120813696901));
#1417=CARTESIAN_POINT('',(-0.000118569876366193,-0.001,-0.00085761769830746));
#1418=CARTESIAN_POINT('',(-0.000119576865054335,-0.001,-0.000794539634103486));
#1419=CARTESIAN_POINT('',(-0.00113671875,-0.001,-0.00128275614873707));
#1420=CARTESIAN_POINT('',(-0.0011368422655816,-0.00099999975,-0.0012828154348088));
#1421=CARTESIAN_POINT('',(-0.000119576865054335,-0.001,-0.000794539634103486));
#1422=CARTESIAN_POINT('',(-0.00188671875,-0.001,0.000323689163762933));
#1423=CARTESIAN_POINT('',(-0.00263675024551437,-0.001,0.00193020193735816));
#1424=CARTESIAN_POINT('',(-0.00263675024551437,-0.001,0.00193020193735817));
#1425=CARTESIAN_POINT('',(-0.00188671875,-0.001,0.000323689163762933));
#1426=CARTESIAN_POINT('',(-0.00264732900775152,-0.001,0.00193120072407207));
#1427=CARTESIAN_POINT('',(-0.00264941406249993,-0.001,0.00194161995334242));
#1428=CARTESIAN_POINT('',(-0.0026494140625,-0.001,0.00194185322626294));
#1429=CARTESIAN_POINT('',(-0.00264732900775152,-0.001,0.00193120072407207));
#1430=CARTESIAN_POINT('',(-0.00265149911724842,-0.001,0.00193120072407202));
#1431=CARTESIAN_POINT('',(-0.002662109375,-0.001,0.00193062607999381));
#1432=CARTESIAN_POINT('',(-0.002662109375,-0.001,0.0019306260799939));
#1433=CARTESIAN_POINT('',(-0.00265149911724842,-0.001,0.00193120072407202));
#1434=CARTESIAN_POINT('',(-0.002662109375,-0.001,-0.000788615523737068));
#1435=CARTESIAN_POINT('',(-0.002662109375,-0.001,-0.00350736552373707));
#1436=CARTESIAN_POINT('',(-0.00266203856521638,-0.001,-0.00350736518275084));
#1437=CARTESIAN_POINT('',(-0.002662109375,-0.001,-0.000788615523737068));
#1438=CARTESIAN_POINT('',(-0.00334471778046575,-0.001,-0.0035106526410966));
#1439=CARTESIAN_POINT('',(-0.00287562127932168,-0.001,-0.00400674424445399));
#1440=CARTESIAN_POINT('',(-0.00287562103697164,-0.001,-0.00400674448678475));
#1441=CARTESIAN_POINT('',(-0.00334471778046575,-0.001,-0.0035106526410966));
#1442=CARTESIAN_POINT('',(-0.00337171288262943,-0.001,-0.00353764774329733));
#1443=CARTESIAN_POINT('',(-0.003375,-0.001,-0.00422025614873707));
#1444=CARTESIAN_POINT('',(-0.00337500034098623,-0.00099999975,-0.00422032695851996));
#1445=CARTESIAN_POINT('',(-0.00337171288262943,-0.001,-0.00353764774329733));
#1446=CARTESIAN_POINT('',(-0.0035126953125,-0.001,-0.00422025614873707));
#1447=CARTESIAN_POINT('',(-0.003650390625,-0.001,-0.00422025614873707));
#1448=CARTESIAN_POINT('',(-0.00365039028401377,-0.001,-0.00422032695852006));
#1449=CARTESIAN_POINT('',(-0.0035126953125,-0.001,-0.00422025614873707));
#1450=CARTESIAN_POINT('',(-0.00365367774237354,-0.001,-0.00353764774330942));
#1451=CARTESIAN_POINT('',(-0.00414976934570152,-0.001,-0.0040067442444274));
#1452=CARTESIAN_POINT('',(-0.00414976958803912,-0.001,-0.00400674448677059));
#1453=CARTESIAN_POINT('',(-0.00365367774237354,-0.001,-0.00353764774330942));
#1454=CARTESIAN_POINT('',(-0.00368067284457265,-0.001,-0.00351065264110961));
#1455=CARTESIAN_POINT('',(-0.00436328125,-0.001,-0.00350736552373707));
#1456=CARTESIAN_POINT('',(-0.00436335205978318,-0.00099999975,-0.00350736518275084));
#1457=CARTESIAN_POINT('',(-0.00368067284457265,-0.001,-0.00351065264110961));
#1458=CARTESIAN_POINT('',(-0.00436328125,-0.001,0.000342243851262934));
#1459=CARTESIAN_POINT('',(-0.00436328125,-0.001,0.00419185322626293));
#1460=CARTESIAN_POINT('',(-0.00436335205978362,-0.001,0.0041918528852767));
#1461=CARTESIAN_POINT('',(-0.00436328125,-0.001,0.000342243851262934));
#1462=CARTESIAN_POINT('',(-0.00368067284453424,-0.001,0.00419514034362246));
#1463=CARTESIAN_POINT('',(-0.00414976934565411,-0.001,0.00469123194700274));
#1464=CARTESIAN_POINT('',(-0.00414976958801591,-0.001,0.00469123218932174));
#1465=CARTESIAN_POINT('',(-0.00368067284453424,-0.001,0.00419514034362246));
#1466=CARTESIAN_POINT('',(-0.00365367774237253,-0.001,0.00422213544583558));
#1467=CARTESIAN_POINT('',(-0.003650390625,-0.001,0.00490474385126293));
#1468=CARTESIAN_POINT('',(-0.00365039028401377,-0.00099999975,0.00490481466104611));
#1469=CARTESIAN_POINT('',(-0.00365367774237253,-0.001,0.00422213544583558));
#1470=CARTESIAN_POINT('',(-0.00346875,-0.001,0.00490474385126293));
#1471=CARTESIAN_POINT('',(-0.003287109375,-0.001,0.00490474385126293));
#1472=CARTESIAN_POINT('',(-0.00328710911376427,-0.001,0.00490469245212458));
#1473=CARTESIAN_POINT('',(-0.00346875,-0.001,0.00490474385126293));
#1474=CARTESIAN_POINT('',(-0.00328153868868052,-0.001,0.00380868982305612));
#1475=CARTESIAN_POINT('',(-0.0026875,-0.001,0.00472993916376293));
#1476=CARTESIAN_POINT('',(-0.00268763755563019,-0.001,0.00472971990724347));
#1477=CARTESIAN_POINT('',(-0.00328153868868052,-0.001,0.00380868982305612));
#1478=CARTESIAN_POINT('',(-0.003222068920166,-0.001,0.00386055205544279));
#1479=CARTESIAN_POINT('',(-0.002287109375,-0.001,0.00426802510126294));
#1480=CARTESIAN_POINT('',(-0.0022870289455363,-0.00099999975,0.00426806015394379));
#1481=CARTESIAN_POINT('',(-0.003222068920166,-0.001,0.00386055205544279));
#1482=CARTESIAN_POINT('',(-0.001193359375,-0.001,0.00190474385126294));
#1483=CARTESIAN_POINT('',(-9.95779258753818E-5,-0.001,-0.000458605351309899));
#1484=CARTESIAN_POINT('',(-9.957792587538E-5,-0.001,-0.000458605351309903));
#1485=CARTESIAN_POINT('',(-0.001193359375,-0.001,0.00190474385126294));
#1486=CARTESIAN_POINT('',(-8.89991172545549E-5,-0.001,-0.000459603646551368));
#1487=CARTESIAN_POINT('',(-8.6914062499998E-5,-0.001,-0.000470022875813543));
#1488=CARTESIAN_POINT('',(-8.69140624999978E-5,-0.001,-0.000470256148737067));
#1489=CARTESIAN_POINT('',(-8.89991172545549E-5,-0.001,-0.000459603646551368));
#1490=CARTESIAN_POINT('',(-8.48290077454412E-5,-0.001,-0.000459603646551368));
#1491=CARTESIAN_POINT('',(-7.42501991246151E-5,-0.001,-0.000458605351309896));
#1492=CARTESIAN_POINT('',(-7.42501991246168E-5,-0.001,-0.0004586053513099));
#1493=CARTESIAN_POINT('',(-8.48290077454412E-5,-0.001,-0.000459603646551368));
#1494=CARTESIAN_POINT('',(0.00101953125,-0.001,0.00190474385126294));
#1495=CARTESIAN_POINT('',(0.00211328125,-0.001,0.00426802510126293));
#1496=CARTESIAN_POINT('',(0.00211321070393654,-0.001,0.00426805581001159));
#1497=CARTESIAN_POINT('',(0.00101953125,-0.001,0.00190474385126294));
#1498=CARTESIAN_POINT('',(0.00304997635651492,-0.001,0.00386028109423488));
#1499=CARTESIAN_POINT('',(0.0025126953125,-0.001,0.00472993916376293));
#1500=CARTESIAN_POINT('',(0.00251282430110321,-0.001,0.00472972872183961));
#1501=CARTESIAN_POINT('',(0.00304997635651492,-0.001,0.00386028109423488));
#1502=CARTESIAN_POINT('',(0.00310606342869464,-0.001,0.00381015109986917));
#1503=CARTESIAN_POINT('',(0.00311328125,-0.001,0.00490474385126293));
#1504=CARTESIAN_POINT('',(0.00311328067515202,-0.00099999975,0.00490465667475783));
#1505=CARTESIAN_POINT('',(0.00310606342869464,-0.001,0.00381015109986917));
#1506=CARTESIAN_POINT('',(0.00326953125,-0.001,0.00490474385126293));
#1507=CARTESIAN_POINT('',(0.00342578125,-0.001,0.00490474385126293));
#1508=CARTESIAN_POINT('',(0.00342578093366364,-0.001,0.00490480119675344));
#1509=CARTESIAN_POINT('',(0.00326953125,-0.001,0.00490474385126293));
#1510=CARTESIAN_POINT('',(0.00342952913704756,-0.001,0.00422532646681583));
#1511=CARTESIAN_POINT('',(0.00392407074460856,-0.001,0.00469138063891067));
#1512=CARTESIAN_POINT('',(0.00392407074460847,-0.001,0.00469138063891061));
#1513=CARTESIAN_POINT('',(0.00342952913704756,-0.001,0.00422532646681583));
#1514=CARTESIAN_POINT('',(0.00345256097343959,-0.001,0.00419547245265998));
#1515=CARTESIAN_POINT('',(0.00413671875,-0.001,0.00419185322626293));
#1516=CARTESIAN_POINT('',(0.00413677773238775,-0.00099999975,0.00419185291424337));
#1517=CARTESIAN_POINT('',(0.00345256097343959,-0.001,0.00419547245265998));
#1518=CARTESIAN_POINT('',(0.00413671875,-0.001,0.000342243851262933));
#1519=CARTESIAN_POINT('',(0.00413671875,-0.001,-0.00350736552373707));
#1520=CARTESIAN_POINT('',(0.00413677773238775,-0.001,-0.0035073652117175));
#1521=CARTESIAN_POINT('',(0.00413671875,-0.001,0.000342243851262933));
#1522=CARTESIAN_POINT('',(0.00345256097343959,-0.001,-0.00351098475013412));
#1523=CARTESIAN_POINT('',(0.00345256097343959,-0.001,-0.00351098475013412));
#1524=CARTESIAN_POINT('',(0.,-0.001,0.));
#1525=MECHANICAL_DESIGN_GEOMETRIC_PRESENTATION_REPRESENTATION('',(#878),
#1526);
#1526=(
GEOMETRIC_REPRESENTATION_CONTEXT(3)
GLOBAL_UNCERTAINTY_ASSIGNED_CONTEXT((#1527))
GLOBAL_UNIT_ASSIGNED_CONTEXT((#1530,#1529,#1528))
REPRESENTATION_CONTEXT('Part 1','TOP_LEVEL_ASSEMBLY_PART')
);
#1527=UNCERTAINTY_MEASURE_WITH_UNIT(LENGTH_MEASURE(2.2E-6),#1530,
'DISTANCE_ACCURACY_VALUE','Maximum Tolerance applied to model');
#1528=(
NAMED_UNIT(*)
SI_UNIT($,.STERADIAN.)
SOLID_ANGLE_UNIT()
);
#1529=(
NAMED_UNIT(*)
PLANE_ANGLE_UNIT()
SI_UNIT($,.RADIAN.)
);
#1530=(
LENGTH_UNIT()
NAMED_UNIT(*)
SI_UNIT($,.METRE.)
);
#1531=PRODUCT_DEFINITION_SHAPE('','',#1532);
#1532=PRODUCT_DEFINITION('','',#1534,#1533);
#1533=PRODUCT_DEFINITION_CONTEXT('',#1540,'design');
#1534=PRODUCT_DEFINITION_FORMATION_WITH_SPECIFIED_SOURCE('','',#1536,
 .NOT_KNOWN.);
#1535=PRODUCT_RELATED_PRODUCT_CATEGORY('','',(#1536));
#1536=PRODUCT('Part 1','Part 1','Part 1',(#1538));
#1537=PRODUCT_CATEGORY('','');
#1538=PRODUCT_CONTEXT('',#1540,'mechanical');
#1539=APPLICATION_PROTOCOL_DEFINITION('international standard',
'ap242_managed_model_based_3d_engineering',2020,#1540);
#1540=APPLICATION_CONTEXT('managed model based 3d engineering');
ENDSEC;
END-ISO-10303-21;
