ISO-10303-21;
HEADER;
/* Generated by software containing ST-Developer
 * from STEP Tools, Inc. (www.steptools.com) 
 */
/* OPTION: using custom renumber hook */

FILE_DESCRIPTION(
/* description */ ('STEP AP242 Edition 2',
'CAx-IF Rec.Pracs.---Representation and Presentation of Product Manufa
cturing Information (PMI)---4.0---2014-10-13',
'CAx-IF Rec.Pracs.---3D Tessellated Geometry---0.4---2014-09-14','2;1',
'CAx-IF Rec.Pracs.---User Defined Attributes---1.5---2016-08-15'),
/* implementation_level */ '2;1');

FILE_NAME(
/* name */ 'Part Studio 1 Copy 7 Copy 2',
/* time_stamp */ '2026-08-11T22:57:42Z',
/* author */ (''),
/* organization */ (''),
/* preprocessor_version */ 'ST-DEVELOPER v20',
/* originating_system */ 'ONSHAPE BY PTC INC, 1.219',
/* authorisation */ '  ');

FILE_SCHEMA (('AP242_MANAGED_MODEL_BASED_3D_ENGINEERING_MIM_LF { 1 0 10303 442 3 1 4 }'));
ENDSEC;

DATA;
#10=SHAPE_REPRESENTATION_RELATIONSHIP('','',#591,#11);
#11=ADVANCED_BREP_SHAPE_REPRESENTATION('',(#589),#1047);
#12=B_SPLINE_SURFACE_WITH_KNOTS('',3,1,((#865,#866),(#867,#868),(#869,#870),
(#871,#872)),.SURF_OF_LINEAR_EXTRUSION.,.F.,.F.,.F.,(4,4),(2,2),(0.,1.),
(0.,1.),.PIECEWISE_BEZIER_KNOTS.);
#13=B_SPLINE_SURFACE_WITH_KNOTS('',3,1,((#882,#883),(#884,#885),(#886,#887),
(#888,#889)),.SURF_OF_LINEAR_EXTRUSION.,.F.,.F.,.F.,(4,4),(2,2),(0.,1.),
(0.,1.),.PIECEWISE_BEZIER_KNOTS.);
#14=B_SPLINE_SURFACE_WITH_KNOTS('',3,1,((#895,#896),(#897,#898),(#899,#900),
(#901,#902)),.SURF_OF_LINEAR_EXTRUSION.,.F.,.F.,.F.,(4,4),(2,2),(0.,1.),
(0.,1.),.PIECEWISE_BEZIER_KNOTS.);
#15=B_SPLINE_SURFACE_WITH_KNOTS('',3,1,((#908,#909),(#910,#911),(#912,#913),
(#914,#915)),.SURF_OF_LINEAR_EXTRUSION.,.F.,.F.,.F.,(4,4),(2,2),(0.,1.),
(0.,1.),.PIECEWISE_BEZIER_KNOTS.);
#16=B_SPLINE_SURFACE_WITH_KNOTS('',3,1,((#921,#922),(#923,#924),(#925,#926),
(#927,#928)),.SURF_OF_LINEAR_EXTRUSION.,.F.,.F.,.F.,(4,4),(2,2),(0.,1.),
(0.,1.),.PIECEWISE_BEZIER_KNOTS.);
#17=B_SPLINE_SURFACE_WITH_KNOTS('',3,1,((#971,#972),(#973,#974),(#975,#976),
(#977,#978)),.SURF_OF_LINEAR_EXTRUSION.,.F.,.F.,.F.,(4,4),(2,2),(0.,1.),
(0.,1.),.PIECEWISE_BEZIER_KNOTS.);
#18=B_SPLINE_SURFACE_WITH_KNOTS('',3,1,((#988,#989),(#990,#991),(#992,#993),
(#994,#995)),.SURF_OF_LINEAR_EXTRUSION.,.F.,.F.,.F.,(4,4),(2,2),(0.,1.),
(0.,1.),.PIECEWISE_BEZIER_KNOTS.);
#19=B_SPLINE_SURFACE_WITH_KNOTS('',3,1,((#1005,#1006),(#1007,#1008),(#1009,
#1010),(#1011,#1012)),.SURF_OF_LINEAR_EXTRUSION.,.F.,.F.,.F.,(4,4),(2,2),
(0.,1.),(0.,1.),.PIECEWISE_BEZIER_KNOTS.);
#20=B_SPLINE_SURFACE_WITH_KNOTS('',3,1,((#1028,#1029),(#1030,#1031),(#1032,
#1033),(#1034,#1035)),.SURF_OF_LINEAR_EXTRUSION.,.F.,.F.,.F.,(4,4),(2,2),
(0.,1.),(0.,1.),.PIECEWISE_BEZIER_KNOTS.);
#21=CYLINDRICAL_SURFACE('',#607,0.000660506054587387);
#22=CYLINDRICAL_SURFACE('',#610,0.00068275794122587);
#23=CYLINDRICAL_SURFACE('',#612,0.000682757941186669);
#24=CYLINDRICAL_SURFACE('',#615,0.0156063681750735);
#25=CYLINDRICAL_SURFACE('',#617,0.02199844432597);
#26=CYLINDRICAL_SURFACE('',#619,0.00070665483659535);
#27=CYLINDRICAL_SURFACE('',#621,0.000812580116529673);
#28=CYLINDRICAL_SURFACE('',#625,0.000115450663111902);
#29=CYLINDRICAL_SURFACE('',#628,0.00709108554235188);
#30=CYLINDRICAL_SURFACE('',#631,0.00709108553136977);
#31=CYLINDRICAL_SURFACE('',#634,0.000693936515222834);
#32=B_SPLINE_CURVE_WITH_KNOTS('',2,(#797,#798,#799),.UNSPECIFIED.,.F.,.F.,
(3,3),(0.,1.),.PIECEWISE_BEZIER_KNOTS.);
#33=B_SPLINE_CURVE_WITH_KNOTS('',2,(#801,#802,#803),.UNSPECIFIED.,.F.,.F.,
(3,3),(0.,1.),.PIECEWISE_BEZIER_KNOTS.);
#34=B_SPLINE_CURVE_WITH_KNOTS('',2,(#805,#806,#807),.UNSPECIFIED.,.F.,.F.,
(3,3),(0.,1.),.PIECEWISE_BEZIER_KNOTS.);
#35=B_SPLINE_CURVE_WITH_KNOTS('',2,(#809,#810,#811),.UNSPECIFIED.,.F.,.F.,
(3,3),(0.,1.),.PIECEWISE_BEZIER_KNOTS.);
#36=B_SPLINE_CURVE_WITH_KNOTS('',2,(#815,#816,#817),.UNSPECIFIED.,.F.,.F.,
(3,3),(0.,1.),.PIECEWISE_BEZIER_KNOTS.);
#37=B_SPLINE_CURVE_WITH_KNOTS('',2,(#875,#876,#877),.UNSPECIFIED.,.F.,.F.,
(3,3),(0.,1.),.PIECEWISE_BEZIER_KNOTS.);
#38=B_SPLINE_CURVE_WITH_KNOTS('',2,(#892,#893,#894),.UNSPECIFIED.,.F.,.F.,
(3,3),(0.,1.),.PIECEWISE_BEZIER_KNOTS.);
#39=B_SPLINE_CURVE_WITH_KNOTS('',2,(#905,#906,#907),.UNSPECIFIED.,.F.,.F.,
(3,3),(0.,1.),.PIECEWISE_BEZIER_KNOTS.);
#40=B_SPLINE_CURVE_WITH_KNOTS('',2,(#918,#919,#920),.UNSPECIFIED.,.F.,.F.,
(3,3),(0.,1.),.PIECEWISE_BEZIER_KNOTS.);
#41=B_SPLINE_CURVE_WITH_KNOTS('',2,(#931,#932,#933),.UNSPECIFIED.,.F.,.F.,
(3,3),(0.,1.),.PIECEWISE_BEZIER_KNOTS.);
#42=B_SPLINE_CURVE_WITH_KNOTS('',2,(#979,#980,#981),.UNSPECIFIED.,.F.,.F.,
(3,3),(0.,1.),.PIECEWISE_BEZIER_KNOTS.);
#43=B_SPLINE_CURVE_WITH_KNOTS('',2,(#985,#986,#987),.UNSPECIFIED.,.F.,.F.,
(3,3),(0.,1.),.PIECEWISE_BEZIER_KNOTS.);
#44=B_SPLINE_CURVE_WITH_KNOTS('',2,(#996,#997,#998),.UNSPECIFIED.,.F.,.F.,
(3,3),(0.,1.),.PIECEWISE_BEZIER_KNOTS.);
#45=B_SPLINE_CURVE_WITH_KNOTS('',2,(#1002,#1003,#1004),.UNSPECIFIED.,.F.,
 .F.,(3,3),(0.,1.),.PIECEWISE_BEZIER_KNOTS.);
#46=B_SPLINE_CURVE_WITH_KNOTS('',2,(#1013,#1014,#1015),.UNSPECIFIED.,.F.,
 .F.,(3,3),(0.,1.),.PIECEWISE_BEZIER_KNOTS.);
#47=B_SPLINE_CURVE_WITH_KNOTS('',2,(#1019,#1020,#1021),.UNSPECIFIED.,.F.,
 .F.,(3,3),(0.,1.),.PIECEWISE_BEZIER_KNOTS.);
#48=B_SPLINE_CURVE_WITH_KNOTS('',2,(#1036,#1037,#1038),.UNSPECIFIED.,.F.,
 .F.,(3,3),(0.,1.),.PIECEWISE_BEZIER_KNOTS.);
#49=B_SPLINE_CURVE_WITH_KNOTS('',2,(#1039,#1040,#1041),.UNSPECIFIED.,.F.,
 .F.,(3,3),(0.,1.),.PIECEWISE_BEZIER_KNOTS.);
#50=CIRCLE('',#594,0.000660506054587387);
#51=CIRCLE('',#595,0.000693936515222834);
#52=CIRCLE('',#596,0.000812580116529673);
#53=CIRCLE('',#597,0.00070665483659535);
#54=CIRCLE('',#598,0.02199844432597);
#55=CIRCLE('',#599,0.0156063681750735);
#56=CIRCLE('',#600,0.000682757941186669);
#57=CIRCLE('',#601,0.00068275794122587);
#58=CIRCLE('',#608,0.000660506054587387);
#59=CIRCLE('',#611,0.00068275794122587);
#60=CIRCLE('',#613,0.000682757941186669);
#61=CIRCLE('',#616,0.0156063681750735);
#62=CIRCLE('',#618,0.02199844432597);
#63=CIRCLE('',#620,0.00070665483659535);
#64=CIRCLE('',#622,0.000812580116529673);
#65=CIRCLE('',#626,0.000115450663111902);
#66=CIRCLE('',#627,0.000115450663111902);
#67=CIRCLE('',#629,0.00709108554235188);
#68=CIRCLE('',#630,0.00709108554235188);
#69=CIRCLE('',#632,0.00709108553136977);
#70=CIRCLE('',#633,0.00709108553136977);
#71=CIRCLE('',#635,0.000693936515222834);
#72=ORIENTED_EDGE('',*,*,#240,.T.);
#73=ORIENTED_EDGE('',*,*,#241,.T.);
#74=ORIENTED_EDGE('',*,*,#242,.F.);
#75=ORIENTED_EDGE('',*,*,#243,.F.);
#76=ORIENTED_EDGE('',*,*,#244,.T.);
#77=ORIENTED_EDGE('',*,*,#245,.T.);
#78=ORIENTED_EDGE('',*,*,#246,.T.);
#79=ORIENTED_EDGE('',*,*,#247,.T.);
#80=ORIENTED_EDGE('',*,*,#248,.T.);
#81=ORIENTED_EDGE('',*,*,#249,.T.);
#82=ORIENTED_EDGE('',*,*,#250,.T.);
#83=ORIENTED_EDGE('',*,*,#251,.T.);
#84=ORIENTED_EDGE('',*,*,#252,.T.);
#85=ORIENTED_EDGE('',*,*,#253,.T.);
#86=ORIENTED_EDGE('',*,*,#254,.T.);
#87=ORIENTED_EDGE('',*,*,#255,.T.);
#88=ORIENTED_EDGE('',*,*,#256,.T.);
#89=ORIENTED_EDGE('',*,*,#257,.T.);
#90=ORIENTED_EDGE('',*,*,#258,.T.);
#91=ORIENTED_EDGE('',*,*,#259,.T.);
#92=ORIENTED_EDGE('',*,*,#240,.F.);
#93=ORIENTED_EDGE('',*,*,#260,.F.);
#94=ORIENTED_EDGE('',*,*,#261,.T.);
#95=ORIENTED_EDGE('',*,*,#262,.T.);
#96=ORIENTED_EDGE('',*,*,#243,.T.);
#97=ORIENTED_EDGE('',*,*,#263,.F.);
#98=ORIENTED_EDGE('',*,*,#264,.F.);
#99=ORIENTED_EDGE('',*,*,#260,.T.);
#100=ORIENTED_EDGE('',*,*,#242,.T.);
#101=ORIENTED_EDGE('',*,*,#265,.F.);
#102=ORIENTED_EDGE('',*,*,#266,.F.);
#103=ORIENTED_EDGE('',*,*,#263,.T.);
#104=ORIENTED_EDGE('',*,*,#241,.F.);
#105=ORIENTED_EDGE('',*,*,#262,.F.);
#106=ORIENTED_EDGE('',*,*,#267,.T.);
#107=ORIENTED_EDGE('',*,*,#265,.T.);
#108=ORIENTED_EDGE('',*,*,#261,.F.);
#109=ORIENTED_EDGE('',*,*,#264,.T.);
#110=ORIENTED_EDGE('',*,*,#266,.T.);
#111=ORIENTED_EDGE('',*,*,#267,.F.);
#112=ORIENTED_EDGE('',*,*,#244,.F.);
#113=ORIENTED_EDGE('',*,*,#268,.F.);
#114=ORIENTED_EDGE('',*,*,#269,.T.);
#115=ORIENTED_EDGE('',*,*,#270,.T.);
#116=ORIENTED_EDGE('',*,*,#259,.F.);
#117=ORIENTED_EDGE('',*,*,#271,.F.);
#118=ORIENTED_EDGE('',*,*,#272,.T.);
#119=ORIENTED_EDGE('',*,*,#268,.T.);
#120=ORIENTED_EDGE('',*,*,#258,.F.);
#121=ORIENTED_EDGE('',*,*,#273,.F.);
#122=ORIENTED_EDGE('',*,*,#274,.T.);
#123=ORIENTED_EDGE('',*,*,#271,.T.);
#124=ORIENTED_EDGE('',*,*,#257,.F.);
#125=ORIENTED_EDGE('',*,*,#275,.F.);
#126=ORIENTED_EDGE('',*,*,#276,.T.);
#127=ORIENTED_EDGE('',*,*,#273,.T.);
#128=ORIENTED_EDGE('',*,*,#256,.F.);
#129=ORIENTED_EDGE('',*,*,#277,.F.);
#130=ORIENTED_EDGE('',*,*,#278,.T.);
#131=ORIENTED_EDGE('',*,*,#275,.T.);
#132=ORIENTED_EDGE('',*,*,#255,.F.);
#133=ORIENTED_EDGE('',*,*,#279,.F.);
#134=ORIENTED_EDGE('',*,*,#280,.T.);
#135=ORIENTED_EDGE('',*,*,#277,.T.);
#136=ORIENTED_EDGE('',*,*,#254,.F.);
#137=ORIENTED_EDGE('',*,*,#281,.F.);
#138=ORIENTED_EDGE('',*,*,#282,.T.);
#139=ORIENTED_EDGE('',*,*,#279,.T.);
#140=ORIENTED_EDGE('',*,*,#253,.F.);
#141=ORIENTED_EDGE('',*,*,#283,.F.);
#142=ORIENTED_EDGE('',*,*,#284,.T.);
#143=ORIENTED_EDGE('',*,*,#281,.T.);
#144=ORIENTED_EDGE('',*,*,#252,.F.);
#145=ORIENTED_EDGE('',*,*,#285,.F.);
#146=ORIENTED_EDGE('',*,*,#286,.T.);
#147=ORIENTED_EDGE('',*,*,#283,.T.);
#148=ORIENTED_EDGE('',*,*,#251,.F.);
#149=ORIENTED_EDGE('',*,*,#287,.F.);
#150=ORIENTED_EDGE('',*,*,#288,.T.);
#151=ORIENTED_EDGE('',*,*,#285,.T.);
#152=ORIENTED_EDGE('',*,*,#250,.F.);
#153=ORIENTED_EDGE('',*,*,#289,.F.);
#154=ORIENTED_EDGE('',*,*,#290,.T.);
#155=ORIENTED_EDGE('',*,*,#287,.T.);
#156=ORIENTED_EDGE('',*,*,#249,.F.);
#157=ORIENTED_EDGE('',*,*,#291,.F.);
#158=ORIENTED_EDGE('',*,*,#292,.T.);
#159=ORIENTED_EDGE('',*,*,#289,.T.);
#160=ORIENTED_EDGE('',*,*,#248,.F.);
#161=ORIENTED_EDGE('',*,*,#293,.F.);
#162=ORIENTED_EDGE('',*,*,#294,.T.);
#163=ORIENTED_EDGE('',*,*,#291,.T.);
#164=ORIENTED_EDGE('',*,*,#247,.F.);
#165=ORIENTED_EDGE('',*,*,#295,.F.);
#166=ORIENTED_EDGE('',*,*,#296,.T.);
#167=ORIENTED_EDGE('',*,*,#293,.T.);
#168=ORIENTED_EDGE('',*,*,#246,.F.);
#169=ORIENTED_EDGE('',*,*,#297,.F.);
#170=ORIENTED_EDGE('',*,*,#298,.T.);
#171=ORIENTED_EDGE('',*,*,#295,.T.);
#172=ORIENTED_EDGE('',*,*,#299,.F.);
#173=ORIENTED_EDGE('',*,*,#300,.F.);
#174=ORIENTED_EDGE('',*,*,#301,.T.);
#175=ORIENTED_EDGE('',*,*,#302,.T.);
#176=ORIENTED_EDGE('',*,*,#303,.F.);
#177=ORIENTED_EDGE('',*,*,#304,.F.);
#178=ORIENTED_EDGE('',*,*,#305,.T.);
#179=ORIENTED_EDGE('',*,*,#300,.T.);
#180=ORIENTED_EDGE('',*,*,#306,.F.);
#181=ORIENTED_EDGE('',*,*,#307,.F.);
#182=ORIENTED_EDGE('',*,*,#308,.T.);
#183=ORIENTED_EDGE('',*,*,#304,.T.);
#184=ORIENTED_EDGE('',*,*,#309,.F.);
#185=ORIENTED_EDGE('',*,*,#310,.F.);
#186=ORIENTED_EDGE('',*,*,#311,.T.);
#187=ORIENTED_EDGE('',*,*,#307,.T.);
#188=ORIENTED_EDGE('',*,*,#312,.F.);
#189=ORIENTED_EDGE('',*,*,#313,.F.);
#190=ORIENTED_EDGE('',*,*,#314,.T.);
#191=ORIENTED_EDGE('',*,*,#310,.T.);
#192=ORIENTED_EDGE('',*,*,#315,.F.);
#193=ORIENTED_EDGE('',*,*,#316,.F.);
#194=ORIENTED_EDGE('',*,*,#317,.T.);
#195=ORIENTED_EDGE('',*,*,#313,.T.);
#196=ORIENTED_EDGE('',*,*,#318,.F.);
#197=ORIENTED_EDGE('',*,*,#319,.F.);
#198=ORIENTED_EDGE('',*,*,#320,.T.);
#199=ORIENTED_EDGE('',*,*,#316,.T.);
#200=ORIENTED_EDGE('',*,*,#321,.F.);
#201=ORIENTED_EDGE('',*,*,#302,.F.);
#202=ORIENTED_EDGE('',*,*,#322,.T.);
#203=ORIENTED_EDGE('',*,*,#319,.T.);
#204=ORIENTED_EDGE('',*,*,#245,.F.);
#205=ORIENTED_EDGE('',*,*,#270,.F.);
#206=ORIENTED_EDGE('',*,*,#323,.T.);
#207=ORIENTED_EDGE('',*,*,#297,.T.);
#208=ORIENTED_EDGE('',*,*,#301,.F.);
#209=ORIENTED_EDGE('',*,*,#305,.F.);
#210=ORIENTED_EDGE('',*,*,#308,.F.);
#211=ORIENTED_EDGE('',*,*,#311,.F.);
#212=ORIENTED_EDGE('',*,*,#314,.F.);
#213=ORIENTED_EDGE('',*,*,#317,.F.);
#214=ORIENTED_EDGE('',*,*,#320,.F.);
#215=ORIENTED_EDGE('',*,*,#322,.F.);
#216=ORIENTED_EDGE('',*,*,#269,.F.);
#217=ORIENTED_EDGE('',*,*,#272,.F.);
#218=ORIENTED_EDGE('',*,*,#274,.F.);
#219=ORIENTED_EDGE('',*,*,#276,.F.);
#220=ORIENTED_EDGE('',*,*,#278,.F.);
#221=ORIENTED_EDGE('',*,*,#280,.F.);
#222=ORIENTED_EDGE('',*,*,#282,.F.);
#223=ORIENTED_EDGE('',*,*,#284,.F.);
#224=ORIENTED_EDGE('',*,*,#286,.F.);
#225=ORIENTED_EDGE('',*,*,#288,.F.);
#226=ORIENTED_EDGE('',*,*,#290,.F.);
#227=ORIENTED_EDGE('',*,*,#292,.F.);
#228=ORIENTED_EDGE('',*,*,#294,.F.);
#229=ORIENTED_EDGE('',*,*,#296,.F.);
#230=ORIENTED_EDGE('',*,*,#298,.F.);
#231=ORIENTED_EDGE('',*,*,#323,.F.);
#232=ORIENTED_EDGE('',*,*,#299,.T.);
#233=ORIENTED_EDGE('',*,*,#321,.T.);
#234=ORIENTED_EDGE('',*,*,#318,.T.);
#235=ORIENTED_EDGE('',*,*,#315,.T.);
#236=ORIENTED_EDGE('',*,*,#312,.T.);
#237=ORIENTED_EDGE('',*,*,#309,.T.);
#238=ORIENTED_EDGE('',*,*,#306,.T.);
#239=ORIENTED_EDGE('',*,*,#303,.T.);
#240=EDGE_CURVE('',#324,#325,#380,.T.);
#241=EDGE_CURVE('',#325,#326,#381,.T.);
#242=EDGE_CURVE('',#327,#326,#382,.T.);
#243=EDGE_CURVE('',#324,#327,#383,.T.);
#244=EDGE_CURVE('',#328,#329,#50,.F.);
#245=EDGE_CURVE('',#329,#330,#51,.F.);
#246=EDGE_CURVE('',#330,#331,#384,.T.);
#247=EDGE_CURVE('',#331,#332,#52,.F.);
#248=EDGE_CURVE('',#332,#333,#53,.F.);
#249=EDGE_CURVE('',#333,#334,#54,.F.);
#250=EDGE_CURVE('',#334,#335,#32,.T.);
#251=EDGE_CURVE('',#335,#336,#33,.T.);
#252=EDGE_CURVE('',#336,#337,#34,.T.);
#253=EDGE_CURVE('',#337,#338,#35,.T.);
#254=EDGE_CURVE('',#338,#339,#55,.F.);
#255=EDGE_CURVE('',#339,#340,#36,.T.);
#256=EDGE_CURVE('',#340,#341,#385,.T.);
#257=EDGE_CURVE('',#341,#342,#56,.F.);
#258=EDGE_CURVE('',#342,#343,#57,.F.);
#259=EDGE_CURVE('',#343,#328,#386,.T.);
#260=EDGE_CURVE('',#344,#324,#387,.T.);
#261=EDGE_CURVE('',#344,#345,#388,.T.);
#262=EDGE_CURVE('',#345,#325,#389,.T.);
#263=EDGE_CURVE('',#346,#327,#390,.T.);
#264=EDGE_CURVE('',#344,#346,#391,.T.);
#265=EDGE_CURVE('',#347,#326,#392,.T.);
#266=EDGE_CURVE('',#346,#347,#393,.T.);
#267=EDGE_CURVE('',#345,#347,#394,.T.);
#268=EDGE_CURVE('',#348,#328,#395,.T.);
#269=EDGE_CURVE('',#348,#349,#58,.F.);
#270=EDGE_CURVE('',#349,#329,#396,.T.);
#271=EDGE_CURVE('',#350,#343,#397,.T.);
#272=EDGE_CURVE('',#350,#348,#398,.T.);
#273=EDGE_CURVE('',#351,#342,#399,.T.);
#274=EDGE_CURVE('',#351,#350,#59,.F.);
#275=EDGE_CURVE('',#352,#341,#400,.T.);
#276=EDGE_CURVE('',#352,#351,#60,.F.);
#277=EDGE_CURVE('',#353,#340,#401,.T.);
#278=EDGE_CURVE('',#353,#352,#402,.T.);
#279=EDGE_CURVE('',#354,#339,#403,.T.);
#280=EDGE_CURVE('',#354,#353,#37,.T.);
#281=EDGE_CURVE('',#355,#338,#404,.T.);
#282=EDGE_CURVE('',#355,#354,#61,.F.);
#283=EDGE_CURVE('',#356,#337,#405,.T.);
#284=EDGE_CURVE('',#356,#355,#38,.T.);
#285=EDGE_CURVE('',#357,#336,#406,.T.);
#286=EDGE_CURVE('',#357,#356,#39,.T.);
#287=EDGE_CURVE('',#358,#335,#407,.T.);
#288=EDGE_CURVE('',#358,#357,#40,.T.);
#289=EDGE_CURVE('',#359,#334,#408,.T.);
#290=EDGE_CURVE('',#359,#358,#41,.T.);
#291=EDGE_CURVE('',#360,#333,#409,.T.);
#292=EDGE_CURVE('',#360,#359,#62,.F.);
#293=EDGE_CURVE('',#361,#332,#410,.T.);
#294=EDGE_CURVE('',#361,#360,#63,.F.);
#295=EDGE_CURVE('',#362,#331,#411,.T.);
#296=EDGE_CURVE('',#362,#361,#64,.F.);
#297=EDGE_CURVE('',#363,#330,#412,.T.);
#298=EDGE_CURVE('',#363,#362,#413,.T.);
#299=EDGE_CURVE('',#364,#365,#414,.T.);
#300=EDGE_CURVE('',#366,#364,#415,.T.);
#301=EDGE_CURVE('',#366,#367,#416,.T.);
#302=EDGE_CURVE('',#367,#365,#417,.T.);
#303=EDGE_CURVE('',#368,#364,#65,.T.);
#304=EDGE_CURVE('',#369,#368,#418,.T.);
#305=EDGE_CURVE('',#369,#366,#66,.T.);
#306=EDGE_CURVE('',#370,#368,#67,.T.);
#307=EDGE_CURVE('',#371,#370,#419,.T.);
#308=EDGE_CURVE('',#371,#369,#68,.T.);
#309=EDGE_CURVE('',#372,#370,#42,.T.);
#310=EDGE_CURVE('',#373,#372,#420,.T.);
#311=EDGE_CURVE('',#373,#371,#43,.T.);
#312=EDGE_CURVE('',#374,#372,#44,.T.);
#313=EDGE_CURVE('',#375,#374,#421,.T.);
#314=EDGE_CURVE('',#375,#373,#45,.T.);
#315=EDGE_CURVE('',#376,#374,#46,.T.);
#316=EDGE_CURVE('',#377,#376,#422,.T.);
#317=EDGE_CURVE('',#377,#375,#47,.T.);
#318=EDGE_CURVE('',#378,#376,#69,.T.);
#319=EDGE_CURVE('',#379,#378,#423,.T.);
#320=EDGE_CURVE('',#379,#377,#70,.T.);
#321=EDGE_CURVE('',#365,#378,#48,.T.);
#322=EDGE_CURVE('',#367,#379,#49,.T.);
#323=EDGE_CURVE('',#349,#363,#71,.F.);
#324=VERTEX_POINT('',#777);
#325=VERTEX_POINT('',#778);
#326=VERTEX_POINT('',#780);
#327=VERTEX_POINT('',#782);
#328=VERTEX_POINT('',#785);
#329=VERTEX_POINT('',#786);
#330=VERTEX_POINT('',#788);
#331=VERTEX_POINT('',#790);
#332=VERTEX_POINT('',#792);
#333=VERTEX_POINT('',#794);
#334=VERTEX_POINT('',#796);
#335=VERTEX_POINT('',#800);
#336=VERTEX_POINT('',#804);
#337=VERTEX_POINT('',#808);
#338=VERTEX_POINT('',#812);
#339=VERTEX_POINT('',#814);
#340=VERTEX_POINT('',#818);
#341=VERTEX_POINT('',#820);
#342=VERTEX_POINT('',#822);
#343=VERTEX_POINT('',#824);
#344=VERTEX_POINT('',#828);
#345=VERTEX_POINT('',#830);
#346=VERTEX_POINT('',#834);
#347=VERTEX_POINT('',#838);
#348=VERTEX_POINT('',#845);
#349=VERTEX_POINT('',#847);
#350=VERTEX_POINT('',#851);
#351=VERTEX_POINT('',#855);
#352=VERTEX_POINT('',#859);
#353=VERTEX_POINT('',#863);
#354=VERTEX_POINT('',#874);
#355=VERTEX_POINT('',#880);
#356=VERTEX_POINT('',#891);
#357=VERTEX_POINT('',#904);
#358=VERTEX_POINT('',#917);
#359=VERTEX_POINT('',#930);
#360=VERTEX_POINT('',#936);
#361=VERTEX_POINT('',#940);
#362=VERTEX_POINT('',#944);
#363=VERTEX_POINT('',#948);
#364=VERTEX_POINT('',#952);
#365=VERTEX_POINT('',#953);
#366=VERTEX_POINT('',#955);
#367=VERTEX_POINT('',#957);
#368=VERTEX_POINT('',#961);
#369=VERTEX_POINT('',#963);
#370=VERTEX_POINT('',#967);
#371=VERTEX_POINT('',#969);
#372=VERTEX_POINT('',#982);
#373=VERTEX_POINT('',#984);
#374=VERTEX_POINT('',#999);
#375=VERTEX_POINT('',#1001);
#376=VERTEX_POINT('',#1016);
#377=VERTEX_POINT('',#1018);
#378=VERTEX_POINT('',#1024);
#379=VERTEX_POINT('',#1026);
#380=LINE('',#776,#424);
#381=LINE('',#779,#425);
#382=LINE('',#781,#426);
#383=LINE('',#783,#427);
#384=LINE('',#789,#428);
#385=LINE('',#819,#429);
#386=LINE('',#825,#430);
#387=LINE('',#827,#431);
#388=LINE('',#829,#432);
#389=LINE('',#831,#433);
#390=LINE('',#833,#434);
#391=LINE('',#835,#435);
#392=LINE('',#837,#436);
#393=LINE('',#839,#437);
#394=LINE('',#841,#438);
#395=LINE('',#844,#439);
#396=LINE('',#848,#440);
#397=LINE('',#850,#441);
#398=LINE('',#852,#442);
#399=LINE('',#854,#443);
#400=LINE('',#858,#444);
#401=LINE('',#862,#445);
#402=LINE('',#864,#446);
#403=LINE('',#873,#447);
#404=LINE('',#879,#448);
#405=LINE('',#890,#449);
#406=LINE('',#903,#450);
#407=LINE('',#916,#451);
#408=LINE('',#929,#452);
#409=LINE('',#935,#453);
#410=LINE('',#939,#454);
#411=LINE('',#943,#455);
#412=LINE('',#947,#456);
#413=LINE('',#949,#457);
#414=LINE('',#951,#458);
#415=LINE('',#954,#459);
#416=LINE('',#956,#460);
#417=LINE('',#958,#461);
#418=LINE('',#962,#462);
#419=LINE('',#968,#463);
#420=LINE('',#983,#464);
#421=LINE('',#1000,#465);
#422=LINE('',#1017,#466);
#423=LINE('',#1025,#467);
#424=VECTOR('',#642,1.);
#425=VECTOR('',#643,1.);
#426=VECTOR('',#644,1.);
#427=VECTOR('',#645,1.);
#428=VECTOR('',#650,1.);
#429=VECTOR('',#659,1.);
#430=VECTOR('',#664,1.);
#431=VECTOR('',#667,1.);
#432=VECTOR('',#668,1.);
#433=VECTOR('',#669,1.);
#434=VECTOR('',#672,1.);
#435=VECTOR('',#673,1.);
#436=VECTOR('',#676,1.);
#437=VECTOR('',#677,1.);
#438=VECTOR('',#680,1.);
#439=VECTOR('',#685,1.);
#440=VECTOR('',#688,1.);
#441=VECTOR('',#691,1.);
#442=VECTOR('',#692,1.);
#443=VECTOR('',#695,1.);
#444=VECTOR('',#700,1.);
#445=VECTOR('',#705,1.);
#446=VECTOR('',#706,1.);
#447=VECTOR('',#707,1.);
#448=VECTOR('',#710,1.);
#449=VECTOR('',#713,1.);
#450=VECTOR('',#714,1.);
#451=VECTOR('',#715,1.);
#452=VECTOR('',#716,1.);
#453=VECTOR('',#719,1.);
#454=VECTOR('',#724,1.);
#455=VECTOR('',#729,1.);
#456=VECTOR('',#734,1.);
#457=VECTOR('',#735,1.);
#458=VECTOR('',#738,1.);
#459=VECTOR('',#739,1.);
#460=VECTOR('',#740,1.);
#461=VECTOR('',#741,1.);
#462=VECTOR('',#746,1.);
#463=VECTOR('',#753,1.);
#464=VECTOR('',#756,1.);
#465=VECTOR('',#757,1.);
#466=VECTOR('',#758,1.);
#467=VECTOR('',#763,1.);
#468=EDGE_LOOP('',(#72,#73,#74,#75));
#469=EDGE_LOOP('',(#76,#77,#78,#79,#80,#81,#82,#83,#84,#85,#86,#87,#88,
#89,#90,#91));
#470=EDGE_LOOP('',(#92,#93,#94,#95));
#471=EDGE_LOOP('',(#96,#97,#98,#99));
#472=EDGE_LOOP('',(#100,#101,#102,#103));
#473=EDGE_LOOP('',(#104,#105,#106,#107));
#474=EDGE_LOOP('',(#108,#109,#110,#111));
#475=EDGE_LOOP('',(#112,#113,#114,#115));
#476=EDGE_LOOP('',(#116,#117,#118,#119));
#477=EDGE_LOOP('',(#120,#121,#122,#123));
#478=EDGE_LOOP('',(#124,#125,#126,#127));
#479=EDGE_LOOP('',(#128,#129,#130,#131));
#480=EDGE_LOOP('',(#132,#133,#134,#135));
#481=EDGE_LOOP('',(#136,#137,#138,#139));
#482=EDGE_LOOP('',(#140,#141,#142,#143));
#483=EDGE_LOOP('',(#144,#145,#146,#147));
#484=EDGE_LOOP('',(#148,#149,#150,#151));
#485=EDGE_LOOP('',(#152,#153,#154,#155));
#486=EDGE_LOOP('',(#156,#157,#158,#159));
#487=EDGE_LOOP('',(#160,#161,#162,#163));
#488=EDGE_LOOP('',(#164,#165,#166,#167));
#489=EDGE_LOOP('',(#168,#169,#170,#171));
#490=EDGE_LOOP('',(#172,#173,#174,#175));
#491=EDGE_LOOP('',(#176,#177,#178,#179));
#492=EDGE_LOOP('',(#180,#181,#182,#183));
#493=EDGE_LOOP('',(#184,#185,#186,#187));
#494=EDGE_LOOP('',(#188,#189,#190,#191));
#495=EDGE_LOOP('',(#192,#193,#194,#195));
#496=EDGE_LOOP('',(#196,#197,#198,#199));
#497=EDGE_LOOP('',(#200,#201,#202,#203));
#498=EDGE_LOOP('',(#204,#205,#206,#207));
#499=EDGE_LOOP('',(#208,#209,#210,#211,#212,#213,#214,#215));
#500=EDGE_LOOP('',(#216,#217,#218,#219,#220,#221,#222,#223,#224,#225,#226,
#227,#228,#229,#230,#231));
#501=EDGE_LOOP('',(#232,#233,#234,#235,#236,#237,#238,#239));
#502=FACE_BOUND('',#468,.T.);
#503=FACE_BOUND('',#469,.T.);
#504=FACE_BOUND('',#470,.T.);
#505=FACE_BOUND('',#471,.T.);
#506=FACE_BOUND('',#472,.T.);
#507=FACE_BOUND('',#473,.T.);
#508=FACE_BOUND('',#474,.T.);
#509=FACE_BOUND('',#475,.T.);
#510=FACE_BOUND('',#476,.T.);
#511=FACE_BOUND('',#477,.T.);
#512=FACE_BOUND('',#478,.T.);
#513=FACE_BOUND('',#479,.T.);
#514=FACE_BOUND('',#480,.T.);
#515=FACE_BOUND('',#481,.T.);
#516=FACE_BOUND('',#482,.T.);
#517=FACE_BOUND('',#483,.T.);
#518=FACE_BOUND('',#484,.T.);
#519=FACE_BOUND('',#485,.T.);
#520=FACE_BOUND('',#486,.T.);
#521=FACE_BOUND('',#487,.T.);
#522=FACE_BOUND('',#488,.T.);
#523=FACE_BOUND('',#489,.T.);
#524=FACE_BOUND('',#490,.T.);
#525=FACE_BOUND('',#491,.T.);
#526=FACE_BOUND('',#492,.T.);
#527=FACE_BOUND('',#493,.T.);
#528=FACE_BOUND('',#494,.T.);
#529=FACE_BOUND('',#495,.T.);
#530=FACE_BOUND('',#496,.T.);
#531=FACE_BOUND('',#497,.T.);
#532=FACE_BOUND('',#498,.T.);
#533=FACE_BOUND('',#499,.T.);
#534=FACE_BOUND('',#500,.T.);
#535=FACE_BOUND('',#501,.T.);
#536=PLANE('',#593);
#537=PLANE('',#602);
#538=PLANE('',#603);
#539=PLANE('',#604);
#540=PLANE('',#605);
#541=PLANE('',#606);
#542=PLANE('',#609);
#543=PLANE('',#614);
#544=PLANE('',#623);
#545=PLANE('',#624);
#546=PLANE('',#636);
#547=PLANE('',#637);
#548=ADVANCED_FACE('',(#502,#503),#536,.F.);
#549=ADVANCED_FACE('',(#504),#537,.T.);
#550=ADVANCED_FACE('',(#505),#538,.F.);
#551=ADVANCED_FACE('',(#506),#539,.F.);
#552=ADVANCED_FACE('',(#507),#540,.T.);
#553=ADVANCED_FACE('',(#508),#541,.T.);
#554=ADVANCED_FACE('',(#509),#21,.F.);
#555=ADVANCED_FACE('',(#510),#542,.T.);
#556=ADVANCED_FACE('',(#511),#22,.F.);
#557=ADVANCED_FACE('',(#512),#23,.F.);
#558=ADVANCED_FACE('',(#513),#543,.T.);
#559=ADVANCED_FACE('',(#514),#12,.T.);
#560=ADVANCED_FACE('',(#515),#24,.F.);
#561=ADVANCED_FACE('',(#516),#13,.T.);
#562=ADVANCED_FACE('',(#517),#14,.T.);
#563=ADVANCED_FACE('',(#518),#15,.T.);
#564=ADVANCED_FACE('',(#519),#16,.T.);
#565=ADVANCED_FACE('',(#520),#25,.F.);
#566=ADVANCED_FACE('',(#521),#26,.F.);
#567=ADVANCED_FACE('',(#522),#27,.F.);
#568=ADVANCED_FACE('',(#523),#544,.T.);
#569=ADVANCED_FACE('',(#524),#545,.T.);
#570=ADVANCED_FACE('',(#525),#28,.T.);
#571=ADVANCED_FACE('',(#526),#29,.T.);
#572=ADVANCED_FACE('',(#527),#17,.T.);
#573=ADVANCED_FACE('',(#528),#18,.T.);
#574=ADVANCED_FACE('',(#529),#19,.T.);
#575=ADVANCED_FACE('',(#530),#30,.T.);
#576=ADVANCED_FACE('',(#531),#20,.T.);
#577=ADVANCED_FACE('',(#532),#31,.F.);
#578=ADVANCED_FACE('',(#533,#534),#546,.T.);
#579=ADVANCED_FACE('',(#535),#547,.F.);
#580=CLOSED_SHELL('',(#548,#549,#550,#551,#552,#553,#554,#555,#556,#557,
#558,#559,#560,#561,#562,#563,#564,#565,#566,#567,#568,#569,#570,#571,#572,
#573,#574,#575,#576,#577,#578,#579));
#581=STYLED_ITEM('',(#582),#589);
#582=PRESENTATION_STYLE_ASSIGNMENT((#583));
#583=SURFACE_STYLE_USAGE(.BOTH.,#584);
#584=SURFACE_SIDE_STYLE('',(#585));
#585=SURFACE_STYLE_FILL_AREA(#586);
#586=FILL_AREA_STYLE('',(#587));
#587=FILL_AREA_STYLE_COLOUR('',#588);
#588=COLOUR_RGB('',0.615686274509804,0.811764705882353,0.929411764705882);
#589=MANIFOLD_SOLID_BREP('Part 1',#580);
#590=SHAPE_DEFINITION_REPRESENTATION(#1052,#591);
#591=SHAPE_REPRESENTATION('Part 1',(#592),#1047);
#592=AXIS2_PLACEMENT_3D('',#774,#638,#639);
#593=AXIS2_PLACEMENT_3D('',#775,#640,#641);
#594=AXIS2_PLACEMENT_3D('',#784,#646,#647);
#595=AXIS2_PLACEMENT_3D('',#787,#648,#649);
#596=AXIS2_PLACEMENT_3D('',#791,#651,#652);
#597=AXIS2_PLACEMENT_3D('',#793,#653,#654);
#598=AXIS2_PLACEMENT_3D('',#795,#655,#656);
#599=AXIS2_PLACEMENT_3D('',#813,#657,#658);
#600=AXIS2_PLACEMENT_3D('',#821,#660,#661);
#601=AXIS2_PLACEMENT_3D('',#823,#662,#663);
#602=AXIS2_PLACEMENT_3D('',#826,#665,#666);
#603=AXIS2_PLACEMENT_3D('',#832,#670,#671);
#604=AXIS2_PLACEMENT_3D('',#836,#674,#675);
#605=AXIS2_PLACEMENT_3D('',#840,#678,#679);
#606=AXIS2_PLACEMENT_3D('',#842,#681,#682);
#607=AXIS2_PLACEMENT_3D('',#843,#683,#684);
#608=AXIS2_PLACEMENT_3D('',#846,#686,#687);
#609=AXIS2_PLACEMENT_3D('',#849,#689,#690);
#610=AXIS2_PLACEMENT_3D('',#853,#693,#694);
#611=AXIS2_PLACEMENT_3D('',#856,#696,#697);
#612=AXIS2_PLACEMENT_3D('',#857,#698,#699);
#613=AXIS2_PLACEMENT_3D('',#860,#701,#702);
#614=AXIS2_PLACEMENT_3D('',#861,#703,#704);
#615=AXIS2_PLACEMENT_3D('',#878,#708,#709);
#616=AXIS2_PLACEMENT_3D('',#881,#711,#712);
#617=AXIS2_PLACEMENT_3D('',#934,#717,#718);
#618=AXIS2_PLACEMENT_3D('',#937,#720,#721);
#619=AXIS2_PLACEMENT_3D('',#938,#722,#723);
#620=AXIS2_PLACEMENT_3D('',#941,#725,#726);
#621=AXIS2_PLACEMENT_3D('',#942,#727,#728);
#622=AXIS2_PLACEMENT_3D('',#945,#730,#731);
#623=AXIS2_PLACEMENT_3D('',#946,#732,#733);
#624=AXIS2_PLACEMENT_3D('',#950,#736,#737);
#625=AXIS2_PLACEMENT_3D('',#959,#742,#743);
#626=AXIS2_PLACEMENT_3D('',#960,#744,#745);
#627=AXIS2_PLACEMENT_3D('',#964,#747,#748);
#628=AXIS2_PLACEMENT_3D('',#965,#749,#750);
#629=AXIS2_PLACEMENT_3D('',#966,#751,#752);
#630=AXIS2_PLACEMENT_3D('',#970,#754,#755);
#631=AXIS2_PLACEMENT_3D('',#1022,#759,#760);
#632=AXIS2_PLACEMENT_3D('',#1023,#761,#762);
#633=AXIS2_PLACEMENT_3D('',#1027,#764,#765);
#634=AXIS2_PLACEMENT_3D('',#1042,#766,#767);
#635=AXIS2_PLACEMENT_3D('',#1043,#768,#769);
#636=AXIS2_PLACEMENT_3D('',#1044,#770,#771);
#637=AXIS2_PLACEMENT_3D('',#1045,#772,#773);
#638=DIRECTION('',(0.,0.,1.));
#639=DIRECTION('',(1.,0.,0.));
#640=DIRECTION('',(0.,-1.,0.));
#641=DIRECTION('',(1.,0.,0.));
#642=DIRECTION('',(1.38777878078145E-16,0.,-1.));
#643=DIRECTION('',(-1.,0.,0.));
#644=DIRECTION('',(1.38777878078145E-16,0.,-1.));
#645=DIRECTION('',(-1.,0.,0.));
#646=DIRECTION('',(0.,1.,0.));
#647=DIRECTION('',(0.,0.,1.));
#648=DIRECTION('',(0.,1.,0.));
#649=DIRECTION('',(0.,0.,1.));
#650=DIRECTION('',(0.,0.,1.));
#651=DIRECTION('',(0.,1.,0.));
#652=DIRECTION('',(0.,0.,1.));
#653=DIRECTION('',(0.,1.,0.));
#654=DIRECTION('',(0.,0.,1.));
#655=DIRECTION('',(0.,1.,0.));
#656=DIRECTION('',(0.,0.,1.));
#657=DIRECTION('',(0.,1.,0.));
#658=DIRECTION('',(0.,0.,1.));
#659=DIRECTION('',(0.,0.,-1.));
#660=DIRECTION('',(0.,1.,0.));
#661=DIRECTION('',(0.,0.,1.));
#662=DIRECTION('',(0.,1.,0.));
#663=DIRECTION('',(0.,0.,1.));
#664=DIRECTION('',(1.,0.,0.));
#665=DIRECTION('',(1.,0.,1.38777878078145E-16));
#666=DIRECTION('',(1.38777878078145E-16,0.,-1.));
#667=DIRECTION('',(0.,1.,0.));
#668=DIRECTION('',(1.38777878078145E-16,0.,-1.));
#669=DIRECTION('',(0.,1.,0.));
#670=DIRECTION('',(0.,0.,-1.));
#671=DIRECTION('',(-1.,0.,0.));
#672=DIRECTION('',(0.,1.,0.));
#673=DIRECTION('',(-1.,0.,0.));
#674=DIRECTION('',(1.,0.,1.38777878078145E-16));
#675=DIRECTION('',(1.38777878078145E-16,0.,-1.));
#676=DIRECTION('',(0.,1.,0.));
#677=DIRECTION('',(1.38777878078145E-16,0.,-1.));
#678=DIRECTION('',(0.,0.,-1.));
#679=DIRECTION('',(-1.,0.,0.));
#680=DIRECTION('',(-1.,0.,0.));
#681=DIRECTION('',(0.,-1.,0.));
#682=DIRECTION('',(1.,0.,0.));
#683=DIRECTION('',(0.,1.,0.));
#684=DIRECTION('',(0.394044925854305,0.,-0.919091179594536));
#685=DIRECTION('',(0.,1.,0.));
#686=DIRECTION('',(0.,1.,0.));
#687=DIRECTION('',(0.,0.,1.));
#688=DIRECTION('',(0.,1.,0.));
#689=DIRECTION('',(0.,0.,1.));
#690=DIRECTION('',(1.,0.,0.));
#691=DIRECTION('',(0.,1.,0.));
#692=DIRECTION('',(1.,0.,0.));
#693=DIRECTION('',(0.,1.,0.));
#694=DIRECTION('',(-0.388384108510053,0.,-0.921497576913174));
#695=DIRECTION('',(0.,1.,0.));
#696=DIRECTION('',(0.,1.,0.));
#697=DIRECTION('',(0.,0.,1.));
#698=DIRECTION('',(0.,1.,0.));
#699=DIRECTION('',(-0.921497576911509,0.,-0.388384108514005));
#700=DIRECTION('',(0.,1.,0.));
#701=DIRECTION('',(0.,1.,0.));
#702=DIRECTION('',(0.,0.,1.));
#703=DIRECTION('',(1.,0.,0.));
#704=DIRECTION('',(0.,0.,-1.));
#705=DIRECTION('',(0.,1.,0.));
#706=DIRECTION('',(0.,0.,-1.));
#707=DIRECTION('',(0.,1.,0.));
#708=DIRECTION('',(0.,1.,0.));
#709=DIRECTION('',(0.0438274136137713,0.,-0.999039117260144));
#710=DIRECTION('',(0.,1.,0.));
#711=DIRECTION('',(0.,1.,0.));
#712=DIRECTION('',(0.,0.,1.));
#713=DIRECTION('',(0.,1.,0.));
#714=DIRECTION('',(0.,1.,0.));
#715=DIRECTION('',(0.,1.,0.));
#716=DIRECTION('',(0.,1.,0.));
#717=DIRECTION('',(0.,1.,0.));
#718=DIRECTION('',(0.0479218634490666,0.,0.99885108750182));
#719=DIRECTION('',(0.,1.,0.));
#720=DIRECTION('',(0.,1.,0.));
#721=DIRECTION('',(0.,0.,1.));
#722=DIRECTION('',(0.,1.,0.));
#723=DIRECTION('',(0.463314084518344,0.,0.886194142999676));
#724=DIRECTION('',(0.,1.,0.));
#725=DIRECTION('',(0.,1.,0.));
#726=DIRECTION('',(0.,0.,1.));
#727=DIRECTION('',(0.,1.,0.));
#728=DIRECTION('',(0.938468441446938,0.,0.345365001712906));
#729=DIRECTION('',(0.,1.,0.));
#730=DIRECTION('',(0.,1.,0.));
#731=DIRECTION('',(0.,0.,1.));
#732=DIRECTION('',(-1.,0.,0.));
#733=DIRECTION('',(0.,0.,1.));
#734=DIRECTION('',(0.,1.,0.));
#735=DIRECTION('',(0.,0.,1.));
#736=DIRECTION('',(1.,0.,0.));
#737=DIRECTION('',(0.,0.,-1.));
#738=DIRECTION('',(0.,0.,-1.));
#739=DIRECTION('',(0.,1.,0.));
#740=DIRECTION('',(0.,0.,-1.));
#741=DIRECTION('',(0.,1.,0.));
#742=DIRECTION('',(0.,1.,0.));
#743=DIRECTION('',(0.782924739450436,0.,0.622116429903975));
#744=DIRECTION('',(0.,1.,0.));
#745=DIRECTION('',(0.,0.,1.));
#746=DIRECTION('',(0.,1.,0.));
#747=DIRECTION('',(0.,1.,0.));
#748=DIRECTION('',(0.,0.,1.));
#749=DIRECTION('',(0.,1.,0.));
#750=DIRECTION('',(0.0667157147879553,0.,0.997772024763339));
#751=DIRECTION('',(0.,1.,0.));
#752=DIRECTION('',(0.,0.,1.));
#753=DIRECTION('',(0.,1.,0.));
#754=DIRECTION('',(0.,1.,0.));
#755=DIRECTION('',(0.,0.,1.));
#756=DIRECTION('',(0.,1.,0.));
#757=DIRECTION('',(0.,1.,0.));
#758=DIRECTION('',(0.,1.,0.));
#759=DIRECTION('',(0.,1.,0.));
#760=DIRECTION('',(0.0667157147867579,0.,-0.997772024763419));
#761=DIRECTION('',(0.,1.,0.));
#762=DIRECTION('',(0.,0.,1.));
#763=DIRECTION('',(0.,1.,0.));
#764=DIRECTION('',(0.,1.,0.));
#765=DIRECTION('',(0.,0.,1.));
#766=DIRECTION('',(0.,1.,0.));
#767=DIRECTION('',(0.925460100472479,0.,-0.378845090285554));
#768=DIRECTION('',(0.,1.,0.));
#769=DIRECTION('',(0.,0.,1.));
#770=DIRECTION('',(0.,1.,0.));
#771=DIRECTION('',(-1.,0.,0.));
#772=DIRECTION('',(0.,-1.,0.));
#773=DIRECTION('',(1.,0.,0.));
#774=CARTESIAN_POINT('',(0.,0.,0.));
#775=CARTESIAN_POINT('',(0.,0.,0.));
#776=CARTESIAN_POINT('',(0.00625,0.,0.));
#777=CARTESIAN_POINT('',(0.00625,0.,0.00625));
#778=CARTESIAN_POINT('',(0.00625,0.,-0.00625));
#779=CARTESIAN_POINT('',(8.67361737988404E-19,0.,-0.00625));
#780=CARTESIAN_POINT('',(-0.00625,0.,-0.00625));
#781=CARTESIAN_POINT('',(-0.00625,0.,0.));
#782=CARTESIAN_POINT('',(-0.00625,0.,0.00625));
#783=CARTESIAN_POINT('',(-8.67361737988404E-19,0.,0.00625));
#784=CARTESIAN_POINT('',(0.00254397558552567,0.,-0.00415973248995109));
#785=CARTESIAN_POINT('',(0.00253750024187461,0.,-0.00482023147700641));
#786=CARTESIAN_POINT('',(0.0030303939789667,0.,-0.00460711530342993));
#787=CARTESIAN_POINT('',(0.00254278577003082,0.,-0.00411294031545132));
#788=CARTESIAN_POINT('',(0.00323670932167649,0.,-0.00410736559948061));
#789=CARTESIAN_POINT('',(0.00323671875,0.,-0.000289006148737067));
#790=CARTESIAN_POINT('',(0.00323672832959504,0.,0.00352935317657209));
#791=CARTESIAN_POINT('',(0.002424168724314,0.,0.00353356804908564));
#792=CARTESIAN_POINT('',(0.00303723275950591,0.,0.00406722497313368));
#793=CARTESIAN_POINT('',(0.00248536957395974,0.,0.00362530642398469));
#794=CARTESIAN_POINT('',(0.00253748476019098,0.,0.00432998029245555));
#795=CARTESIAN_POINT('',(0.000439347960545867,0.,-0.0175683344060039));
#796=CARTESIAN_POINT('',(0.000486718750000001,0.,0.00442974385126294));
#797=CARTESIAN_POINT('',(0.000486718750000001,0.,0.00442974385126294));
#798=CARTESIAN_POINT('',(-0.00138828125,0.,0.00442974385126294));
#799=CARTESIAN_POINT('',(-0.00232578125,0.,0.00368560322626294));
#800=CARTESIAN_POINT('',(-0.00232578125,0.,0.00368560322626294));
#801=CARTESIAN_POINT('',(-0.00232578125,0.,0.00368560322626294));
#802=CARTESIAN_POINT('',(-0.00326328125,0.,0.00294146260126293));
#803=CARTESIAN_POINT('',(-0.00326328125,0.,0.00152935322626294));
#804=CARTESIAN_POINT('',(-0.00326328125,0.,0.00152935322626294));
#805=CARTESIAN_POINT('',(-0.00326328125,0.,0.00152935322626294));
#806=CARTESIAN_POINT('',(-0.00326328125,0.,-3.3146773737067E-5));
#807=CARTESIAN_POINT('',(-0.00235703125,0.,-0.000832951461237067));
#808=CARTESIAN_POINT('',(-0.00235703125,0.,-0.000832951461237067));
#809=CARTESIAN_POINT('',(-0.00235703125,0.,-0.000832951461237067));
#810=CARTESIAN_POINT('',(-0.00145078125,0.,-0.00163275614873706));
#811=CARTESIAN_POINT('',(0.000324609375000001,0.,-0.00163275614873706));
#812=CARTESIAN_POINT('',(0.000324609375000001,0.,-0.00163275614873706));
#813=CARTESIAN_POINT('',(0.00011864675685643,0.,0.0139713845948535));
#814=CARTESIAN_POINT('',(0.0014125,0.,-0.00158197489873706));
#815=CARTESIAN_POINT('',(0.0014125,0.,-0.00158197489873706));
#816=CARTESIAN_POINT('',(0.001512109375,0.,-0.00158197489873706));
#817=CARTESIAN_POINT('',(0.001512109375,0.,-0.00168353739873706));
#818=CARTESIAN_POINT('',(0.001512109375,0.,-0.00168353739873706));
#819=CARTESIAN_POINT('',(0.001512109375,0.,-0.00289545146123707));
#820=CARTESIAN_POINT('',(0.00151203856521682,0.,-0.00410736518275084));
#821=CARTESIAN_POINT('',(0.00219471778042736,0.,-0.0041106526411096));
#822=CARTESIAN_POINT('',(0.00172562103694121,0.,-0.00460674448675299));
#823=CARTESIAN_POINT('',(0.00222171288264047,0.,-0.00413764774327133));
#824=CARTESIAN_POINT('',(0.00222500034098623,0.,-0.00482032695852069));
#825=CARTESIAN_POINT('',(0.00238125,0.,-0.00482025614873707));
#826=CARTESIAN_POINT('',(0.00625,-0.005,0.));
#827=CARTESIAN_POINT('',(0.00625,-0.005,0.00625));
#828=CARTESIAN_POINT('',(0.00625,-0.005,0.00625));
#829=CARTESIAN_POINT('',(0.00625,-0.005,0.));
#830=CARTESIAN_POINT('',(0.00625,-0.005,-0.00625));
#831=CARTESIAN_POINT('',(0.00625,-0.005,-0.00625));
#832=CARTESIAN_POINT('',(-8.67361737988404E-19,-0.005,0.00625));
#833=CARTESIAN_POINT('',(-0.00625,-0.005,0.00625));
#834=CARTESIAN_POINT('',(-0.00625,-0.005,0.00625));
#835=CARTESIAN_POINT('',(-8.67361737988404E-19,-0.005,0.00625));
#836=CARTESIAN_POINT('',(-0.00625,-0.005,0.));
#837=CARTESIAN_POINT('',(-0.00625,-0.005,-0.00625));
#838=CARTESIAN_POINT('',(-0.00625,-0.005,-0.00625));
#839=CARTESIAN_POINT('',(-0.00625,-0.005,0.));
#840=CARTESIAN_POINT('',(8.67361737988404E-19,-0.005,-0.00625));
#841=CARTESIAN_POINT('',(8.67361737988404E-19,-0.005,-0.00625));
#842=CARTESIAN_POINT('',(0.,-0.005,0.));
#843=CARTESIAN_POINT('',(0.00254397558552567,-0.001,-0.00415973248995109));
#844=CARTESIAN_POINT('',(0.0025375,-0.001,-0.00482025614873707));
#845=CARTESIAN_POINT('',(0.00253750024187461,-0.00099999975,-0.00482023147700641));
#846=CARTESIAN_POINT('',(0.00254397558552567,-0.001,-0.00415973248995109));
#847=CARTESIAN_POINT('',(0.00303039521762577,-0.001,-0.00460711424353478));
#848=CARTESIAN_POINT('',(0.0030306640625,-0.001,-0.00460736552373707));
#849=CARTESIAN_POINT('',(0.00238125,-0.001,-0.00482025614873707));
#850=CARTESIAN_POINT('',(0.002225,-0.001,-0.00482025614873707));
#851=CARTESIAN_POINT('',(0.00222500034098623,-0.001,-0.00482032695852069));
#852=CARTESIAN_POINT('',(0.00238125,-0.001,-0.00482025614873707));
#853=CARTESIAN_POINT('',(0.00222171288264047,-0.001,-0.00413764774327133));
#854=CARTESIAN_POINT('',(0.00172562127926021,-0.001,-0.00460674424439121));
#855=CARTESIAN_POINT('',(0.00172562103694121,-0.001,-0.00460674448675299));
#856=CARTESIAN_POINT('',(0.00222171288264047,-0.001,-0.00413764774327133));
#857=CARTESIAN_POINT('',(0.00219471778042736,-0.001,-0.0041106526411096));
#858=CARTESIAN_POINT('',(0.001512109375,-0.001,-0.00410736552373707));
#859=CARTESIAN_POINT('',(0.00151203856521682,-0.00099999975,-0.00410736518275084));
#860=CARTESIAN_POINT('',(0.00219471778042736,-0.001,-0.0041106526411096));
#861=CARTESIAN_POINT('',(0.001512109375,-0.001,-0.00289545146123707));
#862=CARTESIAN_POINT('',(0.001512109375,-0.001,-0.00168353739873706));
#863=CARTESIAN_POINT('',(0.001512109375,-0.001,-0.00168353739873706));
#864=CARTESIAN_POINT('',(0.001512109375,-0.001,-0.00289545146123707));
#865=CARTESIAN_POINT('',(0.0014125,-0.001,-0.00158197489873706));
#866=CARTESIAN_POINT('',(0.0014125,0.,-0.00158197489873706));
#867=CARTESIAN_POINT('',(0.00147890625,-0.001,-0.00158197489873706));
#868=CARTESIAN_POINT('',(0.00147890625,0.,-0.00158197489873706));
#869=CARTESIAN_POINT('',(0.001512109375,-0.001,-0.00161582906540373));
#870=CARTESIAN_POINT('',(0.001512109375,0.,-0.00161582906540373));
#871=CARTESIAN_POINT('',(0.001512109375,-0.001,-0.00168353739873706));
#872=CARTESIAN_POINT('',(0.001512109375,0.,-0.00168353739873706));
#873=CARTESIAN_POINT('',(0.0014125,-0.001,-0.00158197489873706));
#874=CARTESIAN_POINT('',(0.0014125,-0.001,-0.00158197489873706));
#875=CARTESIAN_POINT('',(0.0014125,-0.001,-0.00158197489873706));
#876=CARTESIAN_POINT('',(0.001512109375,-0.001,-0.00158197489873706));
#877=CARTESIAN_POINT('',(0.001512109375,-0.001,-0.00168353739873706));
#878=CARTESIAN_POINT('',(0.00011864675685643,-0.001,0.0139713845948535));
#879=CARTESIAN_POINT('',(0.000324609375000001,-0.001,-0.00163275614873706));
#880=CARTESIAN_POINT('',(0.000324609375000001,-0.001,-0.00163275614873706));
#881=CARTESIAN_POINT('',(0.00011864675685643,-0.001,0.0139713845948535));
#882=CARTESIAN_POINT('',(-0.00235703125,-0.001,-0.000832951461237067));
#883=CARTESIAN_POINT('',(-0.00235703125,0.,-0.000832951461237067));
#884=CARTESIAN_POINT('',(-0.00175286458333333,-0.001,-0.00136615458623707));
#885=CARTESIAN_POINT('',(-0.00175286458333333,0.,-0.00136615458623707));
#886=CARTESIAN_POINT('',(-0.000858984375,-0.001,-0.00163275614873706));
#887=CARTESIAN_POINT('',(-0.000858984375,0.,-0.00163275614873706));
#888=CARTESIAN_POINT('',(0.000324609375000001,-0.001,-0.00163275614873706));
#889=CARTESIAN_POINT('',(0.000324609375000001,0.,-0.00163275614873706));
#890=CARTESIAN_POINT('',(-0.00235703125,-0.001,-0.000832951461237067));
#891=CARTESIAN_POINT('',(-0.00235703125,-0.001,-0.000832951461237067));
#892=CARTESIAN_POINT('',(-0.00235703125,-0.001,-0.000832951461237067));
#893=CARTESIAN_POINT('',(-0.00145078125,-0.001,-0.00163275614873706));
#894=CARTESIAN_POINT('',(0.000324609375000001,-0.001,-0.00163275614873706));
#895=CARTESIAN_POINT('',(-0.00326328125,-0.001,0.00152935322626294));
#896=CARTESIAN_POINT('',(-0.00326328125,0.,0.00152935322626294));
#897=CARTESIAN_POINT('',(-0.00326328125,-0.001,0.000487686559596267));
#898=CARTESIAN_POINT('',(-0.00326328125,0.,0.000487686559596267));
#899=CARTESIAN_POINT('',(-0.00296119791666667,-0.001,-0.000299748336237067));
#900=CARTESIAN_POINT('',(-0.00296119791666667,0.,-0.000299748336237067));
#901=CARTESIAN_POINT('',(-0.00235703125,-0.001,-0.000832951461237067));
#902=CARTESIAN_POINT('',(-0.00235703125,0.,-0.000832951461237067));
#903=CARTESIAN_POINT('',(-0.00326328125,-0.001,0.00152935322626294));
#904=CARTESIAN_POINT('',(-0.00326328125,-0.001,0.00152935322626294));
#905=CARTESIAN_POINT('',(-0.00326328125,-0.001,0.00152935322626294));
#906=CARTESIAN_POINT('',(-0.00326328125,-0.001,-3.3146773737067E-5));
#907=CARTESIAN_POINT('',(-0.00235703125,-0.001,-0.000832951461237067));
#908=CARTESIAN_POINT('',(-0.00232578125,-0.001,0.00368560322626294));
#909=CARTESIAN_POINT('',(-0.00232578125,0.,0.00368560322626294));
#910=CARTESIAN_POINT('',(-0.00295078125,-0.001,0.00318950947626294));
#911=CARTESIAN_POINT('',(-0.00295078125,0.,0.00318950947626294));
#912=CARTESIAN_POINT('',(-0.00326328125,-0.001,0.00247075947626293));
#913=CARTESIAN_POINT('',(-0.00326328125,0.,0.00247075947626293));
#914=CARTESIAN_POINT('',(-0.00326328125,-0.001,0.00152935322626294));
#915=CARTESIAN_POINT('',(-0.00326328125,0.,0.00152935322626294));
#916=CARTESIAN_POINT('',(-0.00232578125,-0.001,0.00368560322626294));
#917=CARTESIAN_POINT('',(-0.00232578125,-0.001,0.00368560322626294));
#918=CARTESIAN_POINT('',(-0.00232578125,-0.001,0.00368560322626294));
#919=CARTESIAN_POINT('',(-0.00326328125,-0.001,0.00294146260126293));
#920=CARTESIAN_POINT('',(-0.00326328125,-0.001,0.00152935322626294));
#921=CARTESIAN_POINT('',(0.000486718750000001,-0.001,0.00442974385126294));
#922=CARTESIAN_POINT('',(0.000486718750000001,0.,0.00442974385126294));
#923=CARTESIAN_POINT('',(-0.00076328125,-0.001,0.00442974385126294));
#924=CARTESIAN_POINT('',(-0.00076328125,0.,0.00442974385126294));
#925=CARTESIAN_POINT('',(-0.00170078125,-0.001,0.00418169697626293));
#926=CARTESIAN_POINT('',(-0.00170078125,0.,0.00418169697626293));
#927=CARTESIAN_POINT('',(-0.00232578125,-0.001,0.00368560322626294));
#928=CARTESIAN_POINT('',(-0.00232578125,0.,0.00368560322626294));
#929=CARTESIAN_POINT('',(0.000486718750000001,-0.001,0.00442974385126294));
#930=CARTESIAN_POINT('',(0.000486718750000001,-0.001,0.00442974385126294));
#931=CARTESIAN_POINT('',(0.000486718750000001,-0.001,0.00442974385126294));
#932=CARTESIAN_POINT('',(-0.00138828125,-0.001,0.00442974385126294));
#933=CARTESIAN_POINT('',(-0.00232578125,-0.001,0.00368560322626294));
#934=CARTESIAN_POINT('',(0.000439347960545867,-0.001,-0.0175683344060039));
#935=CARTESIAN_POINT('',(0.0025375,-0.001,0.00433013447626293));
#936=CARTESIAN_POINT('',(0.00253748476019098,-0.001,0.00432998029245555));
#937=CARTESIAN_POINT('',(0.000439347960545867,-0.001,-0.0175683344060039));
#938=CARTESIAN_POINT('',(0.00248536957395974,-0.001,0.00362530642398469));
#939=CARTESIAN_POINT('',(0.0030375,-0.001,0.00406743916376294));
#940=CARTESIAN_POINT('',(0.00303723275950591,-0.001,0.00406722497313368));
#941=CARTESIAN_POINT('',(0.00248536957395974,-0.001,0.00362530642398469));
#942=CARTESIAN_POINT('',(0.002424168724314,-0.001,0.00353356804908564));
#943=CARTESIAN_POINT('',(0.00323671875,-0.001,0.00352935322626293));
#944=CARTESIAN_POINT('',(0.00323672832959505,-0.00099999975,0.00352935317657209));
#945=CARTESIAN_POINT('',(0.002424168724314,-0.001,0.00353356804908564));
#946=CARTESIAN_POINT('',(0.00323671875,-0.001,-0.000289006148737067));
#947=CARTESIAN_POINT('',(0.00323671875,-0.001,-0.00410736552373707));
#948=CARTESIAN_POINT('',(0.00323670932167649,-0.001,-0.00410736559948061));
#949=CARTESIAN_POINT('',(0.00323671875,-0.001,-0.000289006148737067));
#950=CARTESIAN_POINT('',(0.001512109375,-0.001,0.00137310322626293));
#951=CARTESIAN_POINT('',(0.001512109375,0.,0.00137310322626293));
#952=CARTESIAN_POINT('',(0.00151179805922238,0.,0.00287898931007882));
#953=CARTESIAN_POINT('',(0.001512109375,0.,-0.000132756148737067));
#954=CARTESIAN_POINT('',(0.001512109375,-0.001,0.00287896260126293));
#955=CARTESIAN_POINT('',(0.00151179805922238,-0.001,0.00287898931007882));
#956=CARTESIAN_POINT('',(0.001512109375,-0.001,0.00137310322626293));
#957=CARTESIAN_POINT('',(0.001512109375,-0.001,-0.000132756148737067));
#958=CARTESIAN_POINT('',(0.001512109375,-0.001,-0.000132756148737067));
#959=CARTESIAN_POINT('',(0.00139645863609226,-0.001,0.00288888466276715));
#960=CARTESIAN_POINT('',(0.00139645863609226,0.,0.00288888466276715));
#961=CARTESIAN_POINT('',(0.00141244845155022,0.,0.00300359623070446));
#962=CARTESIAN_POINT('',(0.0014125,-0.001,0.00300396260126294));
#963=CARTESIAN_POINT('',(0.00141244845155022,-0.001,0.00300359623070446));
#964=CARTESIAN_POINT('',(0.00139645863609226,-0.001,0.00288888466276715));
#965=CARTESIAN_POINT('',(0.000470662933251042,-0.001,-0.00402445256057877));
#966=CARTESIAN_POINT('',(0.000470662933251042,0.,-0.00402445256057877));
#967=CARTESIAN_POINT('',(0.000486718750000001,0.,0.00306646260126294));
#968=CARTESIAN_POINT('',(0.000486718750000001,-0.001,0.00306646260126294));
#969=CARTESIAN_POINT('',(0.000486718750000001,-0.001,0.00306646260126294));
#970=CARTESIAN_POINT('',(0.000470662933251042,-0.001,-0.00402445256057877));
#971=CARTESIAN_POINT('',(-0.0015875,-0.001,0.00140435322626293));
#972=CARTESIAN_POINT('',(-0.0015875,0.,0.00140435322626293));
#973=CARTESIAN_POINT('',(-0.0015875,-0.001,0.0025124261429296));
#974=CARTESIAN_POINT('',(-0.0015875,0.,0.0025124261429296));
#975=CARTESIAN_POINT('',(-0.00089609375,-0.001,0.00306646260126294));
#976=CARTESIAN_POINT('',(-0.00089609375,0.,0.00306646260126294));
#977=CARTESIAN_POINT('',(0.000486718750000001,-0.001,0.00306646260126294));
#978=CARTESIAN_POINT('',(0.000486718750000001,0.,0.00306646260126294));
#979=CARTESIAN_POINT('',(-0.0015875,0.,0.00140435322626293));
#980=CARTESIAN_POINT('',(-0.0015875,0.,0.00306646260126294));
#981=CARTESIAN_POINT('',(0.000486718750000001,0.,0.00306646260126294));
#982=CARTESIAN_POINT('',(-0.0015875,0.,0.00140435322626293));
#983=CARTESIAN_POINT('',(-0.0015875,-0.001,0.00140435322626293));
#984=CARTESIAN_POINT('',(-0.0015875,-0.001,0.00140435322626293));
#985=CARTESIAN_POINT('',(-0.0015875,-0.001,0.00140435322626293));
#986=CARTESIAN_POINT('',(-0.0015875,-0.001,0.00306646260126294));
#987=CARTESIAN_POINT('',(0.000486718750000001,-0.001,0.00306646260126294));
#988=CARTESIAN_POINT('',(-0.00105625,-0.001,0.000135798538762933));
#989=CARTESIAN_POINT('',(-0.00105625,0.,0.000135798538762933));
#990=CARTESIAN_POINT('',(-0.00141041666666667,-0.001,0.000432022497096266));
#991=CARTESIAN_POINT('',(-0.00141041666666667,0.,0.000432022497096266));
#992=CARTESIAN_POINT('',(-0.0015875,-0.001,0.000854874059596267));
#993=CARTESIAN_POINT('',(-0.0015875,0.,0.000854874059596267));
#994=CARTESIAN_POINT('',(-0.0015875,-0.001,0.00140435322626293));
#995=CARTESIAN_POINT('',(-0.0015875,0.,0.00140435322626293));
#996=CARTESIAN_POINT('',(-0.00105625,0.,0.000135798538762933));
#997=CARTESIAN_POINT('',(-0.0015875,0.,0.000580134476262933));
#998=CARTESIAN_POINT('',(-0.0015875,0.,0.00140435322626293));
#999=CARTESIAN_POINT('',(-0.00105625,0.,0.000135798538762933));
#1000=CARTESIAN_POINT('',(-0.00105625,-0.001,0.000135798538762933));
#1001=CARTESIAN_POINT('',(-0.00105625,-0.001,0.000135798538762933));
#1002=CARTESIAN_POINT('',(-0.00105625,-0.001,0.000135798538762933));
#1003=CARTESIAN_POINT('',(-0.0015875,-0.001,0.000580134476262933));
#1004=CARTESIAN_POINT('',(-0.0015875,-0.001,0.00140435322626293));
#1005=CARTESIAN_POINT('',(0.000486718750000001,-0.001,-0.000308537398737067));
#1006=CARTESIAN_POINT('',(0.000486718750000001,0.,-0.000308537398737067));
#1007=CARTESIAN_POINT('',(-0.000187760416666666,-0.001,-0.000308537398737067));
#1008=CARTESIAN_POINT('',(-0.000187760416666666,0.,-0.000308537398737067));
#1009=CARTESIAN_POINT('',(-0.000702083333333333,-0.001,-0.0001604254195704));
#1010=CARTESIAN_POINT('',(-0.000702083333333333,0.,-0.0001604254195704));
#1011=CARTESIAN_POINT('',(-0.00105625,-0.001,0.000135798538762933));
#1012=CARTESIAN_POINT('',(-0.00105625,0.,0.000135798538762933));
#1013=CARTESIAN_POINT('',(0.000486718750000001,0.,-0.000308537398737067));
#1014=CARTESIAN_POINT('',(-0.000525,0.,-0.000308537398737067));
#1015=CARTESIAN_POINT('',(-0.00105625,0.,0.000135798538762933));
#1016=CARTESIAN_POINT('',(0.000486718750000001,0.,-0.000308537398737067));
#1017=CARTESIAN_POINT('',(0.000486718750000001,-0.001,-0.000308537398737067));
#1018=CARTESIAN_POINT('',(0.000486718750000001,-0.001,-0.000308537398737067));
#1019=CARTESIAN_POINT('',(0.000486718750000001,-0.001,-0.000308537398737067));
#1020=CARTESIAN_POINT('',(-0.000525,-0.001,-0.000308537398737067));
#1021=CARTESIAN_POINT('',(-0.00105625,-0.001,0.000135798538762933));
#1022=CARTESIAN_POINT('',(0.00047066293399279,-0.001,0.00678237775213891));
#1023=CARTESIAN_POINT('',(0.00047066293399279,0.,0.00678237775213891));
#1024=CARTESIAN_POINT('',(0.0014125,0.,-0.000246037398737067));
#1025=CARTESIAN_POINT('',(0.0014125,-0.001,-0.000246037398737067));
#1026=CARTESIAN_POINT('',(0.0014125,-0.001,-0.000246037398737067));
#1027=CARTESIAN_POINT('',(0.00047066293399279,-0.001,0.00678237775213891));
#1028=CARTESIAN_POINT('',(0.001512109375,-0.001,-0.000132756148737067));
#1029=CARTESIAN_POINT('',(0.001512109375,0.,-0.000132756148737067));
#1030=CARTESIAN_POINT('',(0.001512109375,-0.001,-0.000191349898737067));
#1031=CARTESIAN_POINT('',(0.001512109375,0.,-0.000191349898737067));
#1032=CARTESIAN_POINT('',(0.00147890625,-0.001,-0.000229110315403734));
#1033=CARTESIAN_POINT('',(0.00147890625,0.,-0.000229110315403734));
#1034=CARTESIAN_POINT('',(0.0014125,-0.001,-0.000246037398737067));
#1035=CARTESIAN_POINT('',(0.0014125,0.,-0.000246037398737067));
#1036=CARTESIAN_POINT('',(0.001512109375,0.,-0.000132756148737067));
#1037=CARTESIAN_POINT('',(0.001512109375,0.,-0.000220646773737067));
#1038=CARTESIAN_POINT('',(0.0014125,0.,-0.000246037398737067));
#1039=CARTESIAN_POINT('',(0.001512109375,-0.001,-0.000132756148737067));
#1040=CARTESIAN_POINT('',(0.001512109375,-0.001,-0.000220646773737067));
#1041=CARTESIAN_POINT('',(0.0014125,-0.001,-0.000246037398737067));
#1042=CARTESIAN_POINT('',(0.00254278577003082,-0.001,-0.00411294031545132));
#1043=CARTESIAN_POINT('',(0.00254278577003082,-0.001,-0.00411294031545132));
#1044=CARTESIAN_POINT('',(0.,-0.001,0.));
#1045=CARTESIAN_POINT('',(0.,0.,0.));
#1046=MECHANICAL_DESIGN_GEOMETRIC_PRESENTATION_REPRESENTATION('',(#581),
#1047);
#1047=(
GEOMETRIC_REPRESENTATION_CONTEXT(3)
GLOBAL_UNCERTAINTY_ASSIGNED_CONTEXT((#1048))
GLOBAL_UNIT_ASSIGNED_CONTEXT((#1051,#1050,#1049))
REPRESENTATION_CONTEXT('Part 1','TOP_LEVEL_ASSEMBLY_PART')
);
#1048=UNCERTAINTY_MEASURE_WITH_UNIT(LENGTH_MEASURE(2.E-5),#1051,
'DISTANCE_ACCURACY_VALUE','Maximum Tolerance applied to model');
#1049=(
NAMED_UNIT(*)
SI_UNIT($,.STERADIAN.)
SOLID_ANGLE_UNIT()
);
#1050=(
NAMED_UNIT(*)
PLANE_ANGLE_UNIT()
SI_UNIT($,.RADIAN.)
);
#1051=(
LENGTH_UNIT()
NAMED_UNIT(*)
SI_UNIT($,.METRE.)
);
#1052=PRODUCT_DEFINITION_SHAPE('','',#1053);
#1053=PRODUCT_DEFINITION('','',#1055,#1054);
#1054=PRODUCT_DEFINITION_CONTEXT('',#1061,'design');
#1055=PRODUCT_DEFINITION_FORMATION_WITH_SPECIFIED_SOURCE('','',#1057,
 .NOT_KNOWN.);
#1056=PRODUCT_RELATED_PRODUCT_CATEGORY('','',(#1057));
#1057=PRODUCT('Part 1','Part 1','Part 1',(#1059));
#1058=PRODUCT_CATEGORY('','');
#1059=PRODUCT_CONTEXT('',#1061,'mechanical');
#1060=APPLICATION_PROTOCOL_DEFINITION('international standard',
'ap242_managed_model_based_3d_engineering',2020,#1061);
#1061=APPLICATION_CONTEXT('managed model based 3d engineering');
ENDSEC;
END-ISO-10303-21;
