ISO-10303-21;
HEADER;
/* Generated by software containing ST-Developer
 * from STEP Tools, Inc. (www.steptools.com) 
 */
/* OPTION: using custom renumber hook */

FILE_DESCRIPTION(
/* description */ ('STEP AP242 Edition 2',
'CAx-IF Rec.Pracs.---Representation and Presentation of Product Manufa
cturing Information (PMI)---4.0---2014-10-13',
'CAx-IF Rec.Pracs.---3D Tessellated Geometry---0.4---2014-09-14','2;1',
'CAx-IF Rec.Pracs.---User Defined Attributes---1.5---2016-08-15'),
/* implementation_level */ '2;1');

FILE_NAME(
/* name */ 'play-pause',
/* time_stamp */ '2026-08-11T22:57:02Z',
/* author */ (''),
/* organization */ (''),
/* preprocessor_version */ 'ST-DEVELOPER v20',
/* originating_system */ 'ONSHAPE BY PTC INC, 1.219',
/* authorisation */ '  ');

FILE_SCHEMA (('AP242_MANAGED_MODEL_BASED_3D_ENGINEERING_MIM_LF { 1 0 10303 442 3 1 4 }'));
ENDSEC;

DATA;
#10=SHAPE_REPRESENTATION_RELATIONSHIP('','',#454,#11);
#11=ADVANCED_BREP_SHAPE_REPRESENTATION('',(#452),#712);
#12=ORIENTED_EDGE('',*,*,#126,.T.);
#13=ORIENTED_EDGE('',*,*,#127,.T.);
#14=ORIENTED_EDGE('',*,*,#128,.F.);
#15=ORIENTED_EDGE('',*,*,#129,.F.);
#16=ORIENTED_EDGE('',*,*,#130,.T.);
#17=ORIENTED_EDGE('',*,*,#131,.T.);
#18=ORIENTED_EDGE('',*,*,#132,.F.);
#19=ORIENTED_EDGE('',*,*,#133,.F.);
#20=ORIENTED_EDGE('',*,*,#134,.F.);
#21=ORIENTED_EDGE('',*,*,#135,.F.);
#22=ORIENTED_EDGE('',*,*,#136,.F.);
#23=ORIENTED_EDGE('',*,*,#137,.T.);
#24=ORIENTED_EDGE('',*,*,#138,.T.);
#25=ORIENTED_EDGE('',*,*,#139,.F.);
#26=ORIENTED_EDGE('',*,*,#140,.F.);
#27=ORIENTED_EDGE('',*,*,#141,.T.);
#28=ORIENTED_EDGE('',*,*,#142,.T.);
#29=ORIENTED_EDGE('',*,*,#143,.F.);
#30=ORIENTED_EDGE('',*,*,#144,.F.);
#31=ORIENTED_EDGE('',*,*,#130,.F.);
#32=ORIENTED_EDGE('',*,*,#145,.F.);
#33=ORIENTED_EDGE('',*,*,#146,.T.);
#34=ORIENTED_EDGE('',*,*,#147,.T.);
#35=ORIENTED_EDGE('',*,*,#133,.T.);
#36=ORIENTED_EDGE('',*,*,#148,.F.);
#37=ORIENTED_EDGE('',*,*,#149,.F.);
#38=ORIENTED_EDGE('',*,*,#145,.T.);
#39=ORIENTED_EDGE('',*,*,#132,.T.);
#40=ORIENTED_EDGE('',*,*,#150,.F.);
#41=ORIENTED_EDGE('',*,*,#151,.F.);
#42=ORIENTED_EDGE('',*,*,#148,.T.);
#43=ORIENTED_EDGE('',*,*,#131,.F.);
#44=ORIENTED_EDGE('',*,*,#147,.F.);
#45=ORIENTED_EDGE('',*,*,#152,.T.);
#46=ORIENTED_EDGE('',*,*,#150,.T.);
#47=ORIENTED_EDGE('',*,*,#146,.F.);
#48=ORIENTED_EDGE('',*,*,#149,.T.);
#49=ORIENTED_EDGE('',*,*,#151,.T.);
#50=ORIENTED_EDGE('',*,*,#152,.F.);
#51=ORIENTED_EDGE('',*,*,#135,.T.);
#52=ORIENTED_EDGE('',*,*,#153,.F.);
#53=ORIENTED_EDGE('',*,*,#154,.F.);
#54=ORIENTED_EDGE('',*,*,#155,.T.);
#55=ORIENTED_EDGE('',*,*,#134,.T.);
#56=ORIENTED_EDGE('',*,*,#156,.F.);
#57=ORIENTED_EDGE('',*,*,#157,.F.);
#58=ORIENTED_EDGE('',*,*,#153,.T.);
#59=ORIENTED_EDGE('',*,*,#136,.T.);
#60=ORIENTED_EDGE('',*,*,#155,.F.);
#61=ORIENTED_EDGE('',*,*,#158,.F.);
#62=ORIENTED_EDGE('',*,*,#156,.T.);
#63=ORIENTED_EDGE('',*,*,#154,.T.);
#64=ORIENTED_EDGE('',*,*,#157,.T.);
#65=ORIENTED_EDGE('',*,*,#158,.T.);
#66=ORIENTED_EDGE('',*,*,#137,.F.);
#67=ORIENTED_EDGE('',*,*,#159,.F.);
#68=ORIENTED_EDGE('',*,*,#160,.T.);
#69=ORIENTED_EDGE('',*,*,#161,.T.);
#70=ORIENTED_EDGE('',*,*,#140,.T.);
#71=ORIENTED_EDGE('',*,*,#162,.F.);
#72=ORIENTED_EDGE('',*,*,#163,.F.);
#73=ORIENTED_EDGE('',*,*,#159,.T.);
#74=ORIENTED_EDGE('',*,*,#139,.T.);
#75=ORIENTED_EDGE('',*,*,#164,.F.);
#76=ORIENTED_EDGE('',*,*,#165,.F.);
#77=ORIENTED_EDGE('',*,*,#162,.T.);
#78=ORIENTED_EDGE('',*,*,#138,.F.);
#79=ORIENTED_EDGE('',*,*,#161,.F.);
#80=ORIENTED_EDGE('',*,*,#166,.T.);
#81=ORIENTED_EDGE('',*,*,#164,.T.);
#82=ORIENTED_EDGE('',*,*,#160,.F.);
#83=ORIENTED_EDGE('',*,*,#163,.T.);
#84=ORIENTED_EDGE('',*,*,#165,.T.);
#85=ORIENTED_EDGE('',*,*,#166,.F.);
#86=ORIENTED_EDGE('',*,*,#126,.F.);
#87=ORIENTED_EDGE('',*,*,#167,.F.);
#88=ORIENTED_EDGE('',*,*,#168,.T.);
#89=ORIENTED_EDGE('',*,*,#169,.T.);
#90=ORIENTED_EDGE('',*,*,#129,.T.);
#91=ORIENTED_EDGE('',*,*,#170,.F.);
#92=ORIENTED_EDGE('',*,*,#171,.F.);
#93=ORIENTED_EDGE('',*,*,#167,.T.);
#94=ORIENTED_EDGE('',*,*,#128,.T.);
#95=ORIENTED_EDGE('',*,*,#172,.F.);
#96=ORIENTED_EDGE('',*,*,#173,.F.);
#97=ORIENTED_EDGE('',*,*,#170,.T.);
#98=ORIENTED_EDGE('',*,*,#127,.F.);
#99=ORIENTED_EDGE('',*,*,#169,.F.);
#100=ORIENTED_EDGE('',*,*,#174,.T.);
#101=ORIENTED_EDGE('',*,*,#172,.T.);
#102=ORIENTED_EDGE('',*,*,#168,.F.);
#103=ORIENTED_EDGE('',*,*,#171,.T.);
#104=ORIENTED_EDGE('',*,*,#173,.T.);
#105=ORIENTED_EDGE('',*,*,#174,.F.);
#106=ORIENTED_EDGE('',*,*,#141,.F.);
#107=ORIENTED_EDGE('',*,*,#175,.F.);
#108=ORIENTED_EDGE('',*,*,#176,.T.);
#109=ORIENTED_EDGE('',*,*,#177,.T.);
#110=ORIENTED_EDGE('',*,*,#144,.T.);
#111=ORIENTED_EDGE('',*,*,#178,.F.);
#112=ORIENTED_EDGE('',*,*,#179,.F.);
#113=ORIENTED_EDGE('',*,*,#175,.T.);
#114=ORIENTED_EDGE('',*,*,#143,.T.);
#115=ORIENTED_EDGE('',*,*,#180,.F.);
#116=ORIENTED_EDGE('',*,*,#181,.F.);
#117=ORIENTED_EDGE('',*,*,#178,.T.);
#118=ORIENTED_EDGE('',*,*,#142,.F.);
#119=ORIENTED_EDGE('',*,*,#177,.F.);
#120=ORIENTED_EDGE('',*,*,#182,.T.);
#121=ORIENTED_EDGE('',*,*,#180,.T.);
#122=ORIENTED_EDGE('',*,*,#176,.F.);
#123=ORIENTED_EDGE('',*,*,#179,.T.);
#124=ORIENTED_EDGE('',*,*,#181,.T.);
#125=ORIENTED_EDGE('',*,*,#182,.F.);
#126=EDGE_CURVE('',#183,#184,#221,.T.);
#127=EDGE_CURVE('',#184,#185,#222,.T.);
#128=EDGE_CURVE('',#186,#185,#223,.T.);
#129=EDGE_CURVE('',#183,#186,#224,.T.);
#130=EDGE_CURVE('',#187,#188,#225,.T.);
#131=EDGE_CURVE('',#188,#189,#226,.T.);
#132=EDGE_CURVE('',#190,#189,#227,.T.);
#133=EDGE_CURVE('',#187,#190,#228,.T.);
#134=EDGE_CURVE('',#191,#192,#229,.T.);
#135=EDGE_CURVE('',#193,#191,#230,.T.);
#136=EDGE_CURVE('',#192,#193,#231,.T.);
#137=EDGE_CURVE('',#194,#195,#232,.T.);
#138=EDGE_CURVE('',#195,#196,#233,.T.);
#139=EDGE_CURVE('',#197,#196,#234,.T.);
#140=EDGE_CURVE('',#194,#197,#235,.T.);
#141=EDGE_CURVE('',#198,#199,#236,.T.);
#142=EDGE_CURVE('',#199,#200,#237,.T.);
#143=EDGE_CURVE('',#201,#200,#238,.T.);
#144=EDGE_CURVE('',#198,#201,#239,.T.);
#145=EDGE_CURVE('',#202,#187,#240,.T.);
#146=EDGE_CURVE('',#202,#203,#241,.T.);
#147=EDGE_CURVE('',#203,#188,#242,.T.);
#148=EDGE_CURVE('',#204,#190,#243,.T.);
#149=EDGE_CURVE('',#202,#204,#244,.T.);
#150=EDGE_CURVE('',#205,#189,#245,.T.);
#151=EDGE_CURVE('',#204,#205,#246,.T.);
#152=EDGE_CURVE('',#203,#205,#247,.T.);
#153=EDGE_CURVE('',#206,#191,#248,.T.);
#154=EDGE_CURVE('',#207,#206,#249,.T.);
#155=EDGE_CURVE('',#207,#193,#250,.T.);
#156=EDGE_CURVE('',#208,#192,#251,.T.);
#157=EDGE_CURVE('',#206,#208,#252,.T.);
#158=EDGE_CURVE('',#208,#207,#253,.T.);
#159=EDGE_CURVE('',#209,#194,#254,.T.);
#160=EDGE_CURVE('',#209,#210,#255,.T.);
#161=EDGE_CURVE('',#210,#195,#256,.T.);
#162=EDGE_CURVE('',#211,#197,#257,.T.);
#163=EDGE_CURVE('',#209,#211,#258,.T.);
#164=EDGE_CURVE('',#212,#196,#259,.T.);
#165=EDGE_CURVE('',#211,#212,#260,.T.);
#166=EDGE_CURVE('',#210,#212,#261,.T.);
#167=EDGE_CURVE('',#213,#183,#262,.T.);
#168=EDGE_CURVE('',#213,#214,#263,.T.);
#169=EDGE_CURVE('',#214,#184,#264,.T.);
#170=EDGE_CURVE('',#215,#186,#265,.T.);
#171=EDGE_CURVE('',#213,#215,#266,.T.);
#172=EDGE_CURVE('',#216,#185,#267,.T.);
#173=EDGE_CURVE('',#215,#216,#268,.T.);
#174=EDGE_CURVE('',#214,#216,#269,.T.);
#175=EDGE_CURVE('',#217,#198,#270,.T.);
#176=EDGE_CURVE('',#217,#218,#271,.T.);
#177=EDGE_CURVE('',#218,#199,#272,.T.);
#178=EDGE_CURVE('',#219,#201,#273,.T.);
#179=EDGE_CURVE('',#217,#219,#274,.T.);
#180=EDGE_CURVE('',#220,#200,#275,.T.);
#181=EDGE_CURVE('',#219,#220,#276,.T.);
#182=EDGE_CURVE('',#218,#220,#277,.T.);
#183=VERTEX_POINT('',#593);
#184=VERTEX_POINT('',#594);
#185=VERTEX_POINT('',#596);
#186=VERTEX_POINT('',#598);
#187=VERTEX_POINT('',#601);
#188=VERTEX_POINT('',#602);
#189=VERTEX_POINT('',#604);
#190=VERTEX_POINT('',#606);
#191=VERTEX_POINT('',#609);
#192=VERTEX_POINT('',#610);
#193=VERTEX_POINT('',#612);
#194=VERTEX_POINT('',#615);
#195=VERTEX_POINT('',#616);
#196=VERTEX_POINT('',#618);
#197=VERTEX_POINT('',#620);
#198=VERTEX_POINT('',#623);
#199=VERTEX_POINT('',#624);
#200=VERTEX_POINT('',#626);
#201=VERTEX_POINT('',#628);
#202=VERTEX_POINT('',#632);
#203=VERTEX_POINT('',#634);
#204=VERTEX_POINT('',#638);
#205=VERTEX_POINT('',#642);
#206=VERTEX_POINT('',#649);
#207=VERTEX_POINT('',#651);
#208=VERTEX_POINT('',#655);
#209=VERTEX_POINT('',#662);
#210=VERTEX_POINT('',#664);
#211=VERTEX_POINT('',#668);
#212=VERTEX_POINT('',#672);
#213=VERTEX_POINT('',#679);
#214=VERTEX_POINT('',#681);
#215=VERTEX_POINT('',#685);
#216=VERTEX_POINT('',#689);
#217=VERTEX_POINT('',#696);
#218=VERTEX_POINT('',#698);
#219=VERTEX_POINT('',#702);
#220=VERTEX_POINT('',#706);
#221=LINE('',#592,#278);
#222=LINE('',#595,#279);
#223=LINE('',#597,#280);
#224=LINE('',#599,#281);
#225=LINE('',#600,#282);
#226=LINE('',#603,#283);
#227=LINE('',#605,#284);
#228=LINE('',#607,#285);
#229=LINE('',#608,#286);
#230=LINE('',#611,#287);
#231=LINE('',#613,#288);
#232=LINE('',#614,#289);
#233=LINE('',#617,#290);
#234=LINE('',#619,#291);
#235=LINE('',#621,#292);
#236=LINE('',#622,#293);
#237=LINE('',#625,#294);
#238=LINE('',#627,#295);
#239=LINE('',#629,#296);
#240=LINE('',#631,#297);
#241=LINE('',#633,#298);
#242=LINE('',#635,#299);
#243=LINE('',#637,#300);
#244=LINE('',#639,#301);
#245=LINE('',#641,#302);
#246=LINE('',#643,#303);
#247=LINE('',#645,#304);
#248=LINE('',#648,#305);
#249=LINE('',#650,#306);
#250=LINE('',#652,#307);
#251=LINE('',#654,#308);
#252=LINE('',#656,#309);
#253=LINE('',#658,#310);
#254=LINE('',#661,#311);
#255=LINE('',#663,#312);
#256=LINE('',#665,#313);
#257=LINE('',#667,#314);
#258=LINE('',#669,#315);
#259=LINE('',#671,#316);
#260=LINE('',#673,#317);
#261=LINE('',#675,#318);
#262=LINE('',#678,#319);
#263=LINE('',#680,#320);
#264=LINE('',#682,#321);
#265=LINE('',#684,#322);
#266=LINE('',#686,#323);
#267=LINE('',#688,#324);
#268=LINE('',#690,#325);
#269=LINE('',#692,#326);
#270=LINE('',#695,#327);
#271=LINE('',#697,#328);
#272=LINE('',#699,#329);
#273=LINE('',#701,#330);
#274=LINE('',#703,#331);
#275=LINE('',#705,#332);
#276=LINE('',#707,#333);
#277=LINE('',#709,#334);
#278=VECTOR('',#485,1.);
#279=VECTOR('',#486,1.);
#280=VECTOR('',#487,1.);
#281=VECTOR('',#488,1.);
#282=VECTOR('',#489,1.);
#283=VECTOR('',#490,1.);
#284=VECTOR('',#491,1.);
#285=VECTOR('',#492,1.);
#286=VECTOR('',#493,1.);
#287=VECTOR('',#494,1.);
#288=VECTOR('',#495,1.);
#289=VECTOR('',#496,1.);
#290=VECTOR('',#497,1.);
#291=VECTOR('',#498,1.);
#292=VECTOR('',#499,1.);
#293=VECTOR('',#500,1.);
#294=VECTOR('',#501,1.);
#295=VECTOR('',#502,1.);
#296=VECTOR('',#503,1.);
#297=VECTOR('',#506,1.);
#298=VECTOR('',#507,1.);
#299=VECTOR('',#508,1.);
#300=VECTOR('',#511,1.);
#301=VECTOR('',#512,1.);
#302=VECTOR('',#515,1.);
#303=VECTOR('',#516,1.);
#304=VECTOR('',#519,1.);
#305=VECTOR('',#524,1.);
#306=VECTOR('',#525,1.);
#307=VECTOR('',#526,1.);
#308=VECTOR('',#529,1.);
#309=VECTOR('',#530,1.);
#310=VECTOR('',#533,1.);
#311=VECTOR('',#538,1.);
#312=VECTOR('',#539,1.);
#313=VECTOR('',#540,1.);
#314=VECTOR('',#543,1.);
#315=VECTOR('',#544,1.);
#316=VECTOR('',#547,1.);
#317=VECTOR('',#548,1.);
#318=VECTOR('',#551,1.);
#319=VECTOR('',#556,1.);
#320=VECTOR('',#557,1.);
#321=VECTOR('',#558,1.);
#322=VECTOR('',#561,1.);
#323=VECTOR('',#562,1.);
#324=VECTOR('',#565,1.);
#325=VECTOR('',#566,1.);
#326=VECTOR('',#569,1.);
#327=VECTOR('',#574,1.);
#328=VECTOR('',#575,1.);
#329=VECTOR('',#576,1.);
#330=VECTOR('',#579,1.);
#331=VECTOR('',#580,1.);
#332=VECTOR('',#583,1.);
#333=VECTOR('',#584,1.);
#334=VECTOR('',#587,1.);
#335=EDGE_LOOP('',(#12,#13,#14,#15));
#336=EDGE_LOOP('',(#16,#17,#18,#19));
#337=EDGE_LOOP('',(#20,#21,#22));
#338=EDGE_LOOP('',(#23,#24,#25,#26));
#339=EDGE_LOOP('',(#27,#28,#29,#30));
#340=EDGE_LOOP('',(#31,#32,#33,#34));
#341=EDGE_LOOP('',(#35,#36,#37,#38));
#342=EDGE_LOOP('',(#39,#40,#41,#42));
#343=EDGE_LOOP('',(#43,#44,#45,#46));
#344=EDGE_LOOP('',(#47,#48,#49,#50));
#345=EDGE_LOOP('',(#51,#52,#53,#54));
#346=EDGE_LOOP('',(#55,#56,#57,#58));
#347=EDGE_LOOP('',(#59,#60,#61,#62));
#348=EDGE_LOOP('',(#63,#64,#65));
#349=EDGE_LOOP('',(#66,#67,#68,#69));
#350=EDGE_LOOP('',(#70,#71,#72,#73));
#351=EDGE_LOOP('',(#74,#75,#76,#77));
#352=EDGE_LOOP('',(#78,#79,#80,#81));
#353=EDGE_LOOP('',(#82,#83,#84,#85));
#354=EDGE_LOOP('',(#86,#87,#88,#89));
#355=EDGE_LOOP('',(#90,#91,#92,#93));
#356=EDGE_LOOP('',(#94,#95,#96,#97));
#357=EDGE_LOOP('',(#98,#99,#100,#101));
#358=EDGE_LOOP('',(#102,#103,#104,#105));
#359=EDGE_LOOP('',(#106,#107,#108,#109));
#360=EDGE_LOOP('',(#110,#111,#112,#113));
#361=EDGE_LOOP('',(#114,#115,#116,#117));
#362=EDGE_LOOP('',(#118,#119,#120,#121));
#363=EDGE_LOOP('',(#122,#123,#124,#125));
#364=FACE_BOUND('',#335,.T.);
#365=FACE_BOUND('',#336,.T.);
#366=FACE_BOUND('',#337,.T.);
#367=FACE_BOUND('',#338,.T.);
#368=FACE_BOUND('',#339,.T.);
#369=FACE_BOUND('',#340,.T.);
#370=FACE_BOUND('',#341,.T.);
#371=FACE_BOUND('',#342,.T.);
#372=FACE_BOUND('',#343,.T.);
#373=FACE_BOUND('',#344,.T.);
#374=FACE_BOUND('',#345,.T.);
#375=FACE_BOUND('',#346,.T.);
#376=FACE_BOUND('',#347,.T.);
#377=FACE_BOUND('',#348,.T.);
#378=FACE_BOUND('',#349,.T.);
#379=FACE_BOUND('',#350,.T.);
#380=FACE_BOUND('',#351,.T.);
#381=FACE_BOUND('',#352,.T.);
#382=FACE_BOUND('',#353,.T.);
#383=FACE_BOUND('',#354,.T.);
#384=FACE_BOUND('',#355,.T.);
#385=FACE_BOUND('',#356,.T.);
#386=FACE_BOUND('',#357,.T.);
#387=FACE_BOUND('',#358,.T.);
#388=FACE_BOUND('',#359,.T.);
#389=FACE_BOUND('',#360,.T.);
#390=FACE_BOUND('',#361,.T.);
#391=FACE_BOUND('',#362,.T.);
#392=FACE_BOUND('',#363,.T.);
#393=PLANE('',#456);
#394=PLANE('',#457);
#395=PLANE('',#458);
#396=PLANE('',#459);
#397=PLANE('',#460);
#398=PLANE('',#461);
#399=PLANE('',#462);
#400=PLANE('',#463);
#401=PLANE('',#464);
#402=PLANE('',#465);
#403=PLANE('',#466);
#404=PLANE('',#467);
#405=PLANE('',#468);
#406=PLANE('',#469);
#407=PLANE('',#470);
#408=PLANE('',#471);
#409=PLANE('',#472);
#410=PLANE('',#473);
#411=PLANE('',#474);
#412=PLANE('',#475);
#413=PLANE('',#476);
#414=PLANE('',#477);
#415=PLANE('',#478);
#416=PLANE('',#479);
#417=PLANE('',#480);
#418=ADVANCED_FACE('',(#364,#365,#366,#367,#368),#393,.F.);
#419=ADVANCED_FACE('',(#369),#394,.T.);
#420=ADVANCED_FACE('',(#370),#395,.F.);
#421=ADVANCED_FACE('',(#371),#396,.F.);
#422=ADVANCED_FACE('',(#372),#397,.T.);
#423=ADVANCED_FACE('',(#373),#398,.T.);
#424=ADVANCED_FACE('',(#374),#399,.F.);
#425=ADVANCED_FACE('',(#375),#400,.F.);
#426=ADVANCED_FACE('',(#376),#401,.F.);
#427=ADVANCED_FACE('',(#377),#402,.T.);
#428=ADVANCED_FACE('',(#378),#403,.T.);
#429=ADVANCED_FACE('',(#379),#404,.F.);
#430=ADVANCED_FACE('',(#380),#405,.F.);
#431=ADVANCED_FACE('',(#381),#406,.T.);
#432=ADVANCED_FACE('',(#382),#407,.T.);
#433=ADVANCED_FACE('',(#383),#408,.T.);
#434=ADVANCED_FACE('',(#384),#409,.F.);
#435=ADVANCED_FACE('',(#385),#410,.F.);
#436=ADVANCED_FACE('',(#386),#411,.T.);
#437=ADVANCED_FACE('',(#387),#412,.T.);
#438=ADVANCED_FACE('',(#388),#413,.T.);
#439=ADVANCED_FACE('',(#389),#414,.F.);
#440=ADVANCED_FACE('',(#390),#415,.F.);
#441=ADVANCED_FACE('',(#391),#416,.T.);
#442=ADVANCED_FACE('',(#392),#417,.T.);
#443=CLOSED_SHELL('',(#418,#419,#420,#421,#422,#423,#424,#425,#426,#427,
#428,#429,#430,#431,#432,#433,#434,#435,#436,#437,#438,#439,#440,#441,#442));
#444=STYLED_ITEM('',(#445),#452);
#445=PRESENTATION_STYLE_ASSIGNMENT((#446));
#446=SURFACE_STYLE_USAGE(.BOTH.,#447);
#447=SURFACE_SIDE_STYLE('',(#448));
#448=SURFACE_STYLE_FILL_AREA(#449);
#449=FILL_AREA_STYLE('',(#450));
#450=FILL_AREA_STYLE_COLOUR('',#451);
#451=COLOUR_RGB('',0.615686274509804,0.811764705882353,0.929411764705882);
#452=MANIFOLD_SOLID_BREP('Part 1',#443);
#453=SHAPE_DEFINITION_REPRESENTATION(#717,#454);
#454=SHAPE_REPRESENTATION('Part 1',(#455),#712);
#455=AXIS2_PLACEMENT_3D('',#590,#481,#482);
#456=AXIS2_PLACEMENT_3D('',#591,#483,#484);
#457=AXIS2_PLACEMENT_3D('',#630,#504,#505);
#458=AXIS2_PLACEMENT_3D('',#636,#509,#510);
#459=AXIS2_PLACEMENT_3D('',#640,#513,#514);
#460=AXIS2_PLACEMENT_3D('',#644,#517,#518);
#461=AXIS2_PLACEMENT_3D('',#646,#520,#521);
#462=AXIS2_PLACEMENT_3D('',#647,#522,#523);
#463=AXIS2_PLACEMENT_3D('',#653,#527,#528);
#464=AXIS2_PLACEMENT_3D('',#657,#531,#532);
#465=AXIS2_PLACEMENT_3D('',#659,#534,#535);
#466=AXIS2_PLACEMENT_3D('',#660,#536,#537);
#467=AXIS2_PLACEMENT_3D('',#666,#541,#542);
#468=AXIS2_PLACEMENT_3D('',#670,#545,#546);
#469=AXIS2_PLACEMENT_3D('',#674,#549,#550);
#470=AXIS2_PLACEMENT_3D('',#676,#552,#553);
#471=AXIS2_PLACEMENT_3D('',#677,#554,#555);
#472=AXIS2_PLACEMENT_3D('',#683,#559,#560);
#473=AXIS2_PLACEMENT_3D('',#687,#563,#564);
#474=AXIS2_PLACEMENT_3D('',#691,#567,#568);
#475=AXIS2_PLACEMENT_3D('',#693,#570,#571);
#476=AXIS2_PLACEMENT_3D('',#694,#572,#573);
#477=AXIS2_PLACEMENT_3D('',#700,#577,#578);
#478=AXIS2_PLACEMENT_3D('',#704,#581,#582);
#479=AXIS2_PLACEMENT_3D('',#708,#585,#586);
#480=AXIS2_PLACEMENT_3D('',#710,#588,#589);
#481=DIRECTION('',(0.,0.,1.));
#482=DIRECTION('',(1.,0.,0.));
#483=DIRECTION('',(0.,-1.,0.));
#484=DIRECTION('',(1.,0.,0.));
#485=DIRECTION('',(-1.,0.,0.));
#486=DIRECTION('',(0.,0.,-1.));
#487=DIRECTION('',(-1.,0.,0.));
#488=DIRECTION('',(0.,0.,-1.));
#489=DIRECTION('',(1.38777878078145E-16,0.,-1.));
#490=DIRECTION('',(-1.,0.,0.));
#491=DIRECTION('',(1.38777878078145E-16,0.,-1.));
#492=DIRECTION('',(-1.,0.,0.));
#493=DIRECTION('',(0.,0.,-1.));
#494=DIRECTION('',(0.866025403784438,0.,0.5));
#495=DIRECTION('',(-0.866025403784439,0.,0.5));
#496=DIRECTION('',(-0.984807753012208,0.,-0.17364817766693));
#497=DIRECTION('',(0.17364817766693,0.,-0.984807753012208));
#498=DIRECTION('',(-0.984807753012208,0.,-0.17364817766693));
#499=DIRECTION('',(0.17364817766693,0.,-0.984807753012208));
#500=DIRECTION('',(-1.,0.,0.));
#501=DIRECTION('',(0.,0.,-1.));
#502=DIRECTION('',(-1.,0.,0.));
#503=DIRECTION('',(0.,0.,-1.));
#504=DIRECTION('',(1.,0.,1.38777878078145E-16));
#505=DIRECTION('',(1.38777878078145E-16,0.,-1.));
#506=DIRECTION('',(0.,1.,0.));
#507=DIRECTION('',(1.38777878078145E-16,0.,-1.));
#508=DIRECTION('',(0.,1.,0.));
#509=DIRECTION('',(0.,0.,-1.));
#510=DIRECTION('',(-1.,0.,0.));
#511=DIRECTION('',(0.,1.,0.));
#512=DIRECTION('',(-1.,0.,0.));
#513=DIRECTION('',(1.,0.,1.38777878078145E-16));
#514=DIRECTION('',(1.38777878078145E-16,0.,-1.));
#515=DIRECTION('',(0.,1.,0.));
#516=DIRECTION('',(1.38777878078145E-16,0.,-1.));
#517=DIRECTION('',(0.,0.,-1.));
#518=DIRECTION('',(-1.,0.,0.));
#519=DIRECTION('',(-1.,0.,0.));
#520=DIRECTION('',(0.,-1.,0.));
#521=DIRECTION('',(1.,0.,0.));
#522=DIRECTION('',(-0.5,0.,0.866025403784438));
#523=DIRECTION('',(0.866025403784439,0.,0.5));
#524=DIRECTION('',(0.,1.,0.));
#525=DIRECTION('',(0.866025403784438,0.,0.5));
#526=DIRECTION('',(0.,1.,0.));
#527=DIRECTION('',(1.,0.,0.));
#528=DIRECTION('',(0.,0.,-1.));
#529=DIRECTION('',(0.,1.,0.));
#530=DIRECTION('',(0.,0.,-1.));
#531=DIRECTION('',(-0.5,0.,-0.866025403784439));
#532=DIRECTION('',(-0.866025403784439,0.,0.5));
#533=DIRECTION('',(-0.866025403784439,0.,0.5));
#534=DIRECTION('',(0.,1.,0.));
#535=DIRECTION('',(-1.,0.,0.));
#536=DIRECTION('',(0.17364817766693,0.,-0.984807753012208));
#537=DIRECTION('',(-0.984807753012208,0.,-0.17364817766693));
#538=DIRECTION('',(0.,1.,0.));
#539=DIRECTION('',(-0.984807753012208,0.,-0.17364817766693));
#540=DIRECTION('',(0.,1.,0.));
#541=DIRECTION('',(0.984807753012208,0.,0.17364817766693));
#542=DIRECTION('',(0.17364817766693,0.,-0.984807753012208));
#543=DIRECTION('',(0.,1.,0.));
#544=DIRECTION('',(0.17364817766693,0.,-0.984807753012208));
#545=DIRECTION('',(0.17364817766693,0.,-0.984807753012208));
#546=DIRECTION('',(-0.984807753012208,0.,-0.17364817766693));
#547=DIRECTION('',(0.,1.,0.));
#548=DIRECTION('',(-0.984807753012208,0.,-0.17364817766693));
#549=DIRECTION('',(0.984807753012208,0.,0.17364817766693));
#550=DIRECTION('',(0.17364817766693,0.,-0.984807753012208));
#551=DIRECTION('',(0.17364817766693,0.,-0.984807753012208));
#552=DIRECTION('',(0.,1.,0.));
#553=DIRECTION('',(-1.,0.,0.));
#554=DIRECTION('',(0.,0.,-1.));
#555=DIRECTION('',(-1.,0.,0.));
#556=DIRECTION('',(0.,1.,0.));
#557=DIRECTION('',(-1.,0.,0.));
#558=DIRECTION('',(0.,1.,0.));
#559=DIRECTION('',(1.,0.,0.));
#560=DIRECTION('',(0.,0.,-1.));
#561=DIRECTION('',(0.,1.,0.));
#562=DIRECTION('',(0.,0.,-1.));
#563=DIRECTION('',(0.,0.,-1.));
#564=DIRECTION('',(-1.,0.,0.));
#565=DIRECTION('',(0.,1.,0.));
#566=DIRECTION('',(-1.,0.,0.));
#567=DIRECTION('',(1.,0.,0.));
#568=DIRECTION('',(0.,0.,-1.));
#569=DIRECTION('',(0.,0.,-1.));
#570=DIRECTION('',(0.,1.,0.));
#571=DIRECTION('',(-1.,0.,0.));
#572=DIRECTION('',(0.,0.,-1.));
#573=DIRECTION('',(-1.,0.,0.));
#574=DIRECTION('',(0.,1.,0.));
#575=DIRECTION('',(-1.,0.,0.));
#576=DIRECTION('',(0.,1.,0.));
#577=DIRECTION('',(1.,0.,0.));
#578=DIRECTION('',(0.,0.,-1.));
#579=DIRECTION('',(0.,1.,0.));
#580=DIRECTION('',(0.,0.,-1.));
#581=DIRECTION('',(0.,0.,-1.));
#582=DIRECTION('',(-1.,0.,0.));
#583=DIRECTION('',(0.,1.,0.));
#584=DIRECTION('',(-1.,0.,0.));
#585=DIRECTION('',(1.,0.,0.));
#586=DIRECTION('',(0.,0.,-1.));
#587=DIRECTION('',(0.,0.,-1.));
#588=DIRECTION('',(0.,1.,0.));
#589=DIRECTION('',(-1.,0.,0.));
#590=CARTESIAN_POINT('',(0.,0.,0.));
#591=CARTESIAN_POINT('',(0.,0.,0.));
#592=CARTESIAN_POINT('',(-0.00241727981483564,0.,0.00212239110320806));
#593=CARTESIAN_POINT('',(-0.00186964415479452,0.,0.00212239110320806));
#594=CARTESIAN_POINT('',(-0.00296491547487676,0.,0.00212239110320806));
#595=CARTESIAN_POINT('',(-0.00296491547487676,0.,-0.000259824009239674));
#596=CARTESIAN_POINT('',(-0.00296491547487676,0.,-0.00264203912168741));
#597=CARTESIAN_POINT('',(-0.00241727981483564,0.,-0.00264203912168741));
#598=CARTESIAN_POINT('',(-0.00186964415479452,0.,-0.00264203912168741));
#599=CARTESIAN_POINT('',(-0.00186964415479452,0.,-0.000259824009239674));
#600=CARTESIAN_POINT('',(0.00625,0.,0.));
#601=CARTESIAN_POINT('',(0.00625,0.,0.00625));
#602=CARTESIAN_POINT('',(0.00625,0.,-0.00625));
#603=CARTESIAN_POINT('',(8.67361737988404E-19,0.,-0.00625));
#604=CARTESIAN_POINT('',(-0.00625,0.,-0.00625));
#605=CARTESIAN_POINT('',(-0.00625,0.,0.));
#606=CARTESIAN_POINT('',(-0.00625,0.,0.00625));
#607=CARTESIAN_POINT('',(-8.67361737988404E-19,0.,0.00625));
#608=CARTESIAN_POINT('',(0.00525,0.,-2.69944473736332E-5));
#609=CARTESIAN_POINT('',(0.00525,0.,0.00234210155764573));
#610=CARTESIAN_POINT('',(0.00525,0.,-0.00239609045239299));
#611=CARTESIAN_POINT('',(0.00319830267564901,0.,0.00115755355513604));
#612=CARTESIAN_POINT('',(0.00114660535129802,0.,-2.69944473736345E-5));
#613=CARTESIAN_POINT('',(0.00319830267564902,0.,-0.00121154244988331));
#614=CARTESIAN_POINT('',(-0.000623014836549342,0.,0.00411156863537522));
#615=CARTESIAN_POINT('',(1.64157307921747E-6,0.,0.00422171241406521));
#616=CARTESIAN_POINT('',(-0.0012476712461779,0.,0.00400142485668522));
#617=CARTESIAN_POINT('',(-0.000567653214821058,0.,0.00014485095843893));
#618=CARTESIAN_POINT('',(0.000112364816535785,0.,-0.00371172293980736));
#619=CARTESIAN_POINT('',(0.000737021226164344,0.,-0.00360157916111736));
#620=CARTESIAN_POINT('',(0.0013616776357929,0.,-0.00349143538242737));
#621=CARTESIAN_POINT('',(0.00068165960443606,0.,0.000365138515818918));
#622=CARTESIAN_POINT('',(-0.00441615004092455,0.,0.00212239110320806));
#623=CARTESIAN_POINT('',(-0.00389589602127672,0.,0.00212239110320806));
#624=CARTESIAN_POINT('',(-0.00493640406057239,0.,0.00212239110320806));
#625=CARTESIAN_POINT('',(-0.00493640406057239,0.,-0.000259824009239674));
#626=CARTESIAN_POINT('',(-0.00493640406057239,0.,-0.00264203912168741));
#627=CARTESIAN_POINT('',(-0.00441615004092455,0.,-0.00264203912168741));
#628=CARTESIAN_POINT('',(-0.00389589602127672,0.,-0.00264203912168741));
#629=CARTESIAN_POINT('',(-0.00389589602127672,0.,-0.000259824009239674));
#630=CARTESIAN_POINT('',(0.00625,-0.005,0.));
#631=CARTESIAN_POINT('',(0.00625,-0.005,0.00625));
#632=CARTESIAN_POINT('',(0.00625,-0.005,0.00625));
#633=CARTESIAN_POINT('',(0.00625,-0.005,0.));
#634=CARTESIAN_POINT('',(0.00625,-0.005,-0.00625));
#635=CARTESIAN_POINT('',(0.00625,-0.005,-0.00625));
#636=CARTESIAN_POINT('',(-8.67361737988404E-19,-0.005,0.00625));
#637=CARTESIAN_POINT('',(-0.00625,-0.005,0.00625));
#638=CARTESIAN_POINT('',(-0.00625,-0.005,0.00625));
#639=CARTESIAN_POINT('',(-8.67361737988404E-19,-0.005,0.00625));
#640=CARTESIAN_POINT('',(-0.00625,-0.005,0.));
#641=CARTESIAN_POINT('',(-0.00625,-0.005,-0.00625));
#642=CARTESIAN_POINT('',(-0.00625,-0.005,-0.00625));
#643=CARTESIAN_POINT('',(-0.00625,-0.005,0.));
#644=CARTESIAN_POINT('',(8.67361737988404E-19,-0.005,-0.00625));
#645=CARTESIAN_POINT('',(8.67361737988404E-19,-0.005,-0.00625));
#646=CARTESIAN_POINT('',(0.,-0.005,0.));
#647=CARTESIAN_POINT('',(0.00319830267564901,-0.001,0.00115755355513604));
#648=CARTESIAN_POINT('',(0.00525,-0.001,0.00234210155764573));
#649=CARTESIAN_POINT('',(0.00525,-0.001,0.00234210155764573));
#650=CARTESIAN_POINT('',(0.00319830267564901,-0.001,0.00115755355513604));
#651=CARTESIAN_POINT('',(0.00114660535129802,-0.001,-2.69944473736345E-5));
#652=CARTESIAN_POINT('',(0.00114660535129802,-0.001,-2.69944473736345E-5));
#653=CARTESIAN_POINT('',(0.00525,-0.001,-2.69944473736332E-5));
#654=CARTESIAN_POINT('',(0.00525,-0.001,-0.00239609045239299));
#655=CARTESIAN_POINT('',(0.00525,-0.001,-0.00239609045239299));
#656=CARTESIAN_POINT('',(0.00525,-0.001,-2.69944473736332E-5));
#657=CARTESIAN_POINT('',(0.00319830267564902,-0.001,-0.00121154244988331));
#658=CARTESIAN_POINT('',(0.00319830267564902,-0.001,-0.00121154244988331));
#659=CARTESIAN_POINT('',(0.,-0.001,0.));
#660=CARTESIAN_POINT('',(-0.000623014836549342,-0.001,0.00411156863537522));
#661=CARTESIAN_POINT('',(1.64157307921747E-6,-0.001,0.00422171241406521));
#662=CARTESIAN_POINT('',(1.64157307921747E-6,-0.001,0.00422171241406521));
#663=CARTESIAN_POINT('',(-0.000623014836549342,-0.001,0.00411156863537522));
#664=CARTESIAN_POINT('',(-0.0012476712461779,-0.001,0.00400142485668522));
#665=CARTESIAN_POINT('',(-0.0012476712461779,-0.001,0.00400142485668522));
#666=CARTESIAN_POINT('',(0.00068165960443606,-0.001,0.000365138515818918));
#667=CARTESIAN_POINT('',(0.0013616776357929,-0.001,-0.00349143538242737));
#668=CARTESIAN_POINT('',(0.0013616776357929,-0.001,-0.00349143538242737));
#669=CARTESIAN_POINT('',(0.00068165960443606,-0.001,0.000365138515818918));
#670=CARTESIAN_POINT('',(0.000737021226164344,-0.001,-0.00360157916111736));
#671=CARTESIAN_POINT('',(0.000112364816535785,-0.001,-0.00371172293980736));
#672=CARTESIAN_POINT('',(0.000112364816535785,-0.001,-0.00371172293980736));
#673=CARTESIAN_POINT('',(0.000737021226164344,-0.001,-0.00360157916111736));
#674=CARTESIAN_POINT('',(-0.000567653214821058,-0.001,0.00014485095843893));
#675=CARTESIAN_POINT('',(-0.000567653214821058,-0.001,0.00014485095843893));
#676=CARTESIAN_POINT('',(0.,-0.001,0.));
#677=CARTESIAN_POINT('',(-0.00241727981483564,-0.001,0.00212239110320806));
#678=CARTESIAN_POINT('',(-0.00186964415479452,-0.001,0.00212239110320806));
#679=CARTESIAN_POINT('',(-0.00186964415479452,-0.001,0.00212239110320806));
#680=CARTESIAN_POINT('',(-0.00241727981483564,-0.001,0.00212239110320806));
#681=CARTESIAN_POINT('',(-0.00296491547487676,-0.001,0.00212239110320806));
#682=CARTESIAN_POINT('',(-0.00296491547487676,-0.001,0.00212239110320806));
#683=CARTESIAN_POINT('',(-0.00186964415479452,-0.001,-0.000259824009239674));
#684=CARTESIAN_POINT('',(-0.00186964415479452,-0.001,-0.00264203912168741));
#685=CARTESIAN_POINT('',(-0.00186964415479452,-0.001,-0.00264203912168741));
#686=CARTESIAN_POINT('',(-0.00186964415479452,-0.001,-0.000259824009239674));
#687=CARTESIAN_POINT('',(-0.00241727981483564,-0.001,-0.00264203912168741));
#688=CARTESIAN_POINT('',(-0.00296491547487676,-0.001,-0.00264203912168741));
#689=CARTESIAN_POINT('',(-0.00296491547487676,-0.001,-0.00264203912168741));
#690=CARTESIAN_POINT('',(-0.00241727981483564,-0.001,-0.00264203912168741));
#691=CARTESIAN_POINT('',(-0.00296491547487676,-0.001,-0.000259824009239674));
#692=CARTESIAN_POINT('',(-0.00296491547487676,-0.001,-0.000259824009239674));
#693=CARTESIAN_POINT('',(0.,-0.001,0.));
#694=CARTESIAN_POINT('',(-0.00441615004092455,-0.001,0.00212239110320806));
#695=CARTESIAN_POINT('',(-0.00389589602127672,-0.001,0.00212239110320806));
#696=CARTESIAN_POINT('',(-0.00389589602127672,-0.001,0.00212239110320806));
#697=CARTESIAN_POINT('',(-0.00441615004092455,-0.001,0.00212239110320806));
#698=CARTESIAN_POINT('',(-0.00493640406057239,-0.001,0.00212239110320806));
#699=CARTESIAN_POINT('',(-0.00493640406057239,-0.001,0.00212239110320806));
#700=CARTESIAN_POINT('',(-0.00389589602127672,-0.001,-0.000259824009239674));
#701=CARTESIAN_POINT('',(-0.00389589602127672,-0.001,-0.00264203912168741));
#702=CARTESIAN_POINT('',(-0.00389589602127672,-0.001,-0.00264203912168741));
#703=CARTESIAN_POINT('',(-0.00389589602127672,-0.001,-0.000259824009239674));
#704=CARTESIAN_POINT('',(-0.00441615004092455,-0.001,-0.00264203912168741));
#705=CARTESIAN_POINT('',(-0.00493640406057239,-0.001,-0.00264203912168741));
#706=CARTESIAN_POINT('',(-0.00493640406057239,-0.001,-0.00264203912168741));
#707=CARTESIAN_POINT('',(-0.00441615004092455,-0.001,-0.00264203912168741));
#708=CARTESIAN_POINT('',(-0.00493640406057239,-0.001,-0.000259824009239674));
#709=CARTESIAN_POINT('',(-0.00493640406057239,-0.001,-0.000259824009239674));
#710=CARTESIAN_POINT('',(0.,-0.001,0.));
#711=MECHANICAL_DESIGN_GEOMETRIC_PRESENTATION_REPRESENTATION('',(#444),
#712);
#712=(
GEOMETRIC_REPRESENTATION_CONTEXT(3)
GLOBAL_UNCERTAINTY_ASSIGNED_CONTEXT((#713))
GLOBAL_UNIT_ASSIGNED_CONTEXT((#716,#715,#714))
REPRESENTATION_CONTEXT('Part 1','TOP_LEVEL_ASSEMBLY_PART')
);
#713=UNCERTAINTY_MEASURE_WITH_UNIT(LENGTH_MEASURE(1.E-8),#716,
'DISTANCE_ACCURACY_VALUE','Maximum Tolerance applied to model');
#714=(
NAMED_UNIT(*)
SI_UNIT($,.STERADIAN.)
SOLID_ANGLE_UNIT()
);
#715=(
NAMED_UNIT(*)
PLANE_ANGLE_UNIT()
SI_UNIT($,.RADIAN.)
);
#716=(
LENGTH_UNIT()
NAMED_UNIT(*)
SI_UNIT($,.METRE.)
);
#717=PRODUCT_DEFINITION_SHAPE('','',#718);
#718=PRODUCT_DEFINITION('','',#720,#719);
#719=PRODUCT_DEFINITION_CONTEXT('',#726,'design');
#720=PRODUCT_DEFINITION_FORMATION_WITH_SPECIFIED_SOURCE('','',#722,
 .NOT_KNOWN.);
#721=PRODUCT_RELATED_PRODUCT_CATEGORY('','',(#722));
#722=PRODUCT('Part 1','Part 1','Part 1',(#724));
#723=PRODUCT_CATEGORY('','');
#724=PRODUCT_CONTEXT('',#726,'mechanical');
#725=APPLICATION_PROTOCOL_DEFINITION('international standard',
'ap242_managed_model_based_3d_engineering',2020,#726);
#726=APPLICATION_CONTEXT('managed model based 3d engineering');
ENDSEC;
END-ISO-10303-21;
