ISO-10303-21;
HEADER;
/* Generated by software containing ST-Developer
 * from STEP Tools, Inc. (www.steptools.com) 
 */
/* OPTION: using custom renumber hook */

FILE_DESCRIPTION(
/* description */ ('STEP AP242 Edition 2',
'CAx-IF Rec.Pracs.---Representation and Presentation of Product Manufa
cturing Information (PMI)---4.0---2014-10-13',
'CAx-IF Rec.Pracs.---3D Tessellated Geometry---0.4---2014-09-14','2;1',
'CAx-IF Rec.Pracs.---User Defined Attributes---1.5---2016-08-15'),
/* implementation_level */ '2;1');

FILE_NAME(
/* name */ 'Part Studio 1',
/* time_stamp */ '2026-08-09T02:52:20Z',
/* author */ (''),
/* organization */ (''),
/* preprocessor_version */ 'ST-DEVELOPER v20',
/* originating_system */ 'ONSHAPE BY PTC INC, 1.219',
/* authorisation */ '  ');

FILE_SCHEMA (('AP242_MANAGED_MODEL_BASED_3D_ENGINEERING_MIM_LF { 1 0 10303 442 3 1 4 }'));
ENDSEC;

DATA;
#10=SHAPE_REPRESENTATION_RELATIONSHIP('','',#317,#11);
#11=ADVANCED_BREP_SHAPE_REPRESENTATION('',(#315),#519);
#12=ELLIPSE('',#331,0.00565685424949238,0.004);
#13=ELLIPSE('',#332,0.00565685424949238,0.004);
#14=ELLIPSE('',#334,0.00565685424949238,0.004);
#15=ELLIPSE('',#336,0.00565685424949238,0.004);
#16=ELLIPSE('',#339,0.000707106781186547,0.0005);
#17=ELLIPSE('',#340,0.000707106781186548,0.0005);
#18=ELLIPSE('',#342,0.000707106781186547,0.0005);
#19=ELLIPSE('',#344,0.000707106781186548,0.0005);
#20=CYLINDRICAL_SURFACE('',#330,0.004);
#21=CYLINDRICAL_SURFACE('',#333,0.004);
#22=CYLINDRICAL_SURFACE('',#335,0.004);
#23=CYLINDRICAL_SURFACE('',#337,0.004);
#24=CYLINDRICAL_SURFACE('',#338,0.0005);
#25=CYLINDRICAL_SURFACE('',#341,0.0005);
#26=CYLINDRICAL_SURFACE('',#343,0.0005);
#27=CYLINDRICAL_SURFACE('',#345,0.0005);
#28=ORIENTED_EDGE('',*,*,#108,.F.);
#29=ORIENTED_EDGE('',*,*,#109,.T.);
#30=ORIENTED_EDGE('',*,*,#110,.T.);
#31=ORIENTED_EDGE('',*,*,#111,.F.);
#32=ORIENTED_EDGE('',*,*,#112,.F.);
#33=ORIENTED_EDGE('',*,*,#113,.T.);
#34=ORIENTED_EDGE('',*,*,#108,.T.);
#35=ORIENTED_EDGE('',*,*,#114,.T.);
#36=ORIENTED_EDGE('',*,*,#115,.F.);
#37=ORIENTED_EDGE('',*,*,#116,.T.);
#38=ORIENTED_EDGE('',*,*,#112,.T.);
#39=ORIENTED_EDGE('',*,*,#117,.T.);
#40=ORIENTED_EDGE('',*,*,#110,.F.);
#41=ORIENTED_EDGE('',*,*,#118,.T.);
#42=ORIENTED_EDGE('',*,*,#115,.T.);
#43=ORIENTED_EDGE('',*,*,#119,.F.);
#44=ORIENTED_EDGE('',*,*,#120,.T.);
#45=ORIENTED_EDGE('',*,*,#121,.T.);
#46=ORIENTED_EDGE('',*,*,#122,.T.);
#47=ORIENTED_EDGE('',*,*,#123,.T.);
#48=ORIENTED_EDGE('',*,*,#124,.T.);
#49=ORIENTED_EDGE('',*,*,#125,.T.);
#50=ORIENTED_EDGE('',*,*,#126,.T.);
#51=ORIENTED_EDGE('',*,*,#127,.T.);
#52=ORIENTED_EDGE('',*,*,#111,.T.);
#53=ORIENTED_EDGE('',*,*,#119,.T.);
#54=ORIENTED_EDGE('',*,*,#117,.F.);
#55=ORIENTED_EDGE('',*,*,#114,.F.);
#56=ORIENTED_EDGE('',*,*,#128,.T.);
#57=ORIENTED_EDGE('',*,*,#129,.T.);
#58=ORIENTED_EDGE('',*,*,#130,.F.);
#59=ORIENTED_EDGE('',*,*,#131,.F.);
#60=ORIENTED_EDGE('',*,*,#132,.T.);
#61=ORIENTED_EDGE('',*,*,#133,.T.);
#62=ORIENTED_EDGE('',*,*,#128,.F.);
#63=ORIENTED_EDGE('',*,*,#134,.T.);
#64=ORIENTED_EDGE('',*,*,#135,.T.);
#65=ORIENTED_EDGE('',*,*,#136,.T.);
#66=ORIENTED_EDGE('',*,*,#132,.F.);
#67=ORIENTED_EDGE('',*,*,#137,.T.);
#68=ORIENTED_EDGE('',*,*,#130,.T.);
#69=ORIENTED_EDGE('',*,*,#138,.T.);
#70=ORIENTED_EDGE('',*,*,#135,.F.);
#71=ORIENTED_EDGE('',*,*,#139,.F.);
#72=ORIENTED_EDGE('',*,*,#131,.T.);
#73=ORIENTED_EDGE('',*,*,#139,.T.);
#74=ORIENTED_EDGE('',*,*,#137,.F.);
#75=ORIENTED_EDGE('',*,*,#134,.F.);
#76=ORIENTED_EDGE('',*,*,#140,.F.);
#77=ORIENTED_EDGE('',*,*,#120,.F.);
#78=ORIENTED_EDGE('',*,*,#141,.F.);
#79=ORIENTED_EDGE('',*,*,#113,.F.);
#80=ORIENTED_EDGE('',*,*,#141,.T.);
#81=ORIENTED_EDGE('',*,*,#123,.F.);
#82=ORIENTED_EDGE('',*,*,#142,.F.);
#83=ORIENTED_EDGE('',*,*,#109,.F.);
#84=ORIENTED_EDGE('',*,*,#140,.T.);
#85=ORIENTED_EDGE('',*,*,#116,.F.);
#86=ORIENTED_EDGE('',*,*,#143,.F.);
#87=ORIENTED_EDGE('',*,*,#121,.F.);
#88=ORIENTED_EDGE('',*,*,#142,.T.);
#89=ORIENTED_EDGE('',*,*,#122,.F.);
#90=ORIENTED_EDGE('',*,*,#143,.T.);
#91=ORIENTED_EDGE('',*,*,#118,.F.);
#92=ORIENTED_EDGE('',*,*,#144,.F.);
#93=ORIENTED_EDGE('',*,*,#138,.F.);
#94=ORIENTED_EDGE('',*,*,#145,.F.);
#95=ORIENTED_EDGE('',*,*,#127,.F.);
#96=ORIENTED_EDGE('',*,*,#145,.T.);
#97=ORIENTED_EDGE('',*,*,#129,.F.);
#98=ORIENTED_EDGE('',*,*,#146,.F.);
#99=ORIENTED_EDGE('',*,*,#124,.F.);
#100=ORIENTED_EDGE('',*,*,#144,.T.);
#101=ORIENTED_EDGE('',*,*,#126,.F.);
#102=ORIENTED_EDGE('',*,*,#147,.F.);
#103=ORIENTED_EDGE('',*,*,#136,.F.);
#104=ORIENTED_EDGE('',*,*,#146,.T.);
#105=ORIENTED_EDGE('',*,*,#133,.F.);
#106=ORIENTED_EDGE('',*,*,#147,.T.);
#107=ORIENTED_EDGE('',*,*,#125,.F.);
#108=EDGE_CURVE('',#148,#149,#172,.T.);
#109=EDGE_CURVE('',#148,#150,#173,.T.);
#110=EDGE_CURVE('',#150,#151,#174,.T.);
#111=EDGE_CURVE('',#149,#151,#175,.T.);
#112=EDGE_CURVE('',#152,#153,#176,.T.);
#113=EDGE_CURVE('',#152,#148,#177,.F.);
#114=EDGE_CURVE('',#149,#153,#178,.T.);
#115=EDGE_CURVE('',#154,#155,#179,.T.);
#116=EDGE_CURVE('',#154,#152,#180,.F.);
#117=EDGE_CURVE('',#153,#155,#181,.T.);
#118=EDGE_CURVE('',#150,#154,#182,.T.);
#119=EDGE_CURVE('',#151,#155,#183,.T.);
#120=EDGE_CURVE('',#156,#157,#184,.T.);
#121=EDGE_CURVE('',#157,#158,#185,.T.);
#122=EDGE_CURVE('',#158,#159,#186,.F.);
#123=EDGE_CURVE('',#159,#156,#187,.F.);
#124=EDGE_CURVE('',#160,#161,#188,.F.);
#125=EDGE_CURVE('',#161,#162,#189,.T.);
#126=EDGE_CURVE('',#162,#163,#190,.T.);
#127=EDGE_CURVE('',#163,#160,#191,.F.);
#128=EDGE_CURVE('',#164,#165,#192,.T.);
#129=EDGE_CURVE('',#165,#166,#193,.T.);
#130=EDGE_CURVE('',#167,#166,#194,.T.);
#131=EDGE_CURVE('',#164,#167,#195,.T.);
#132=EDGE_CURVE('',#168,#169,#196,.T.);
#133=EDGE_CURVE('',#169,#165,#197,.F.);
#134=EDGE_CURVE('',#164,#168,#198,.T.);
#135=EDGE_CURVE('',#170,#171,#199,.T.);
#136=EDGE_CURVE('',#171,#169,#200,.F.);
#137=EDGE_CURVE('',#168,#170,#201,.T.);
#138=EDGE_CURVE('',#166,#171,#202,.T.);
#139=EDGE_CURVE('',#167,#170,#203,.T.);
#140=EDGE_CURVE('',#157,#152,#12,.F.);
#141=EDGE_CURVE('',#148,#156,#13,.T.);
#142=EDGE_CURVE('',#150,#159,#14,.T.);
#143=EDGE_CURVE('',#158,#154,#15,.F.);
#144=EDGE_CURVE('',#171,#163,#16,.T.);
#145=EDGE_CURVE('',#160,#166,#17,.F.);
#146=EDGE_CURVE('',#161,#165,#18,.F.);
#147=EDGE_CURVE('',#169,#162,#19,.T.);
#148=VERTEX_POINT('',#437);
#149=VERTEX_POINT('',#438);
#150=VERTEX_POINT('',#440);
#151=VERTEX_POINT('',#442);
#152=VERTEX_POINT('',#446);
#153=VERTEX_POINT('',#447);
#154=VERTEX_POINT('',#452);
#155=VERTEX_POINT('',#453);
#156=VERTEX_POINT('',#461);
#157=VERTEX_POINT('',#462);
#158=VERTEX_POINT('',#464);
#159=VERTEX_POINT('',#466);
#160=VERTEX_POINT('',#470);
#161=VERTEX_POINT('',#471);
#162=VERTEX_POINT('',#473);
#163=VERTEX_POINT('',#475);
#164=VERTEX_POINT('',#479);
#165=VERTEX_POINT('',#480);
#166=VERTEX_POINT('',#482);
#167=VERTEX_POINT('',#484);
#168=VERTEX_POINT('',#488);
#169=VERTEX_POINT('',#489);
#170=VERTEX_POINT('',#494);
#171=VERTEX_POINT('',#495);
#172=LINE('',#436,#204);
#173=LINE('',#439,#205);
#174=LINE('',#441,#206);
#175=LINE('',#443,#207);
#176=LINE('',#445,#208);
#177=LINE('',#448,#209);
#178=LINE('',#449,#210);
#179=LINE('',#451,#211);
#180=LINE('',#454,#212);
#181=LINE('',#455,#213);
#182=LINE('',#457,#214);
#183=LINE('',#458,#215);
#184=LINE('',#460,#216);
#185=LINE('',#463,#217);
#186=LINE('',#465,#218);
#187=LINE('',#467,#219);
#188=LINE('',#469,#220);
#189=LINE('',#472,#221);
#190=LINE('',#474,#222);
#191=LINE('',#476,#223);
#192=LINE('',#478,#224);
#193=LINE('',#481,#225);
#194=LINE('',#483,#226);
#195=LINE('',#485,#227);
#196=LINE('',#487,#228);
#197=LINE('',#490,#229);
#198=LINE('',#491,#230);
#199=LINE('',#493,#231);
#200=LINE('',#496,#232);
#201=LINE('',#497,#233);
#202=LINE('',#499,#234);
#203=LINE('',#500,#235);
#204=VECTOR('',#350,1.);
#205=VECTOR('',#351,1.);
#206=VECTOR('',#352,1.);
#207=VECTOR('',#353,1.);
#208=VECTOR('',#356,1.);
#209=VECTOR('',#357,1.);
#210=VECTOR('',#358,1.);
#211=VECTOR('',#361,1.);
#212=VECTOR('',#362,1.);
#213=VECTOR('',#363,1.);
#214=VECTOR('',#366,1.);
#215=VECTOR('',#367,1.);
#216=VECTOR('',#370,1.);
#217=VECTOR('',#371,1.);
#218=VECTOR('',#372,1.);
#219=VECTOR('',#373,1.);
#220=VECTOR('',#376,1.);
#221=VECTOR('',#377,1.);
#222=VECTOR('',#378,1.);
#223=VECTOR('',#379,1.);
#224=VECTOR('',#382,1.);
#225=VECTOR('',#383,1.);
#226=VECTOR('',#384,1.);
#227=VECTOR('',#385,1.);
#228=VECTOR('',#388,1.);
#229=VECTOR('',#389,1.);
#230=VECTOR('',#390,1.);
#231=VECTOR('',#393,1.);
#232=VECTOR('',#394,1.);
#233=VECTOR('',#395,1.);
#234=VECTOR('',#398,1.);
#235=VECTOR('',#399,1.);
#236=EDGE_LOOP('',(#28,#29,#30,#31));
#237=EDGE_LOOP('',(#32,#33,#34,#35));
#238=EDGE_LOOP('',(#36,#37,#38,#39));
#239=EDGE_LOOP('',(#40,#41,#42,#43));
#240=EDGE_LOOP('',(#44,#45,#46,#47));
#241=EDGE_LOOP('',(#48,#49,#50,#51));
#242=EDGE_LOOP('',(#52,#53,#54,#55));
#243=EDGE_LOOP('',(#56,#57,#58,#59));
#244=EDGE_LOOP('',(#60,#61,#62,#63));
#245=EDGE_LOOP('',(#64,#65,#66,#67));
#246=EDGE_LOOP('',(#68,#69,#70,#71));
#247=EDGE_LOOP('',(#72,#73,#74,#75));
#248=EDGE_LOOP('',(#76,#77,#78,#79));
#249=EDGE_LOOP('',(#80,#81,#82,#83));
#250=EDGE_LOOP('',(#84,#85,#86,#87));
#251=EDGE_LOOP('',(#88,#89,#90,#91));
#252=EDGE_LOOP('',(#92,#93,#94,#95));
#253=EDGE_LOOP('',(#96,#97,#98,#99));
#254=EDGE_LOOP('',(#100,#101,#102,#103));
#255=EDGE_LOOP('',(#104,#105,#106,#107));
#256=FACE_BOUND('',#236,.T.);
#257=FACE_BOUND('',#237,.T.);
#258=FACE_BOUND('',#238,.T.);
#259=FACE_BOUND('',#239,.T.);
#260=FACE_BOUND('',#240,.T.);
#261=FACE_BOUND('',#241,.T.);
#262=FACE_BOUND('',#242,.T.);
#263=FACE_BOUND('',#243,.T.);
#264=FACE_BOUND('',#244,.T.);
#265=FACE_BOUND('',#245,.T.);
#266=FACE_BOUND('',#246,.T.);
#267=FACE_BOUND('',#247,.T.);
#268=FACE_BOUND('',#248,.T.);
#269=FACE_BOUND('',#249,.T.);
#270=FACE_BOUND('',#250,.T.);
#271=FACE_BOUND('',#251,.T.);
#272=FACE_BOUND('',#252,.T.);
#273=FACE_BOUND('',#253,.T.);
#274=FACE_BOUND('',#254,.T.);
#275=FACE_BOUND('',#255,.T.);
#276=PLANE('',#319);
#277=PLANE('',#320);
#278=PLANE('',#321);
#279=PLANE('',#322);
#280=PLANE('',#323);
#281=PLANE('',#324);
#282=PLANE('',#325);
#283=PLANE('',#326);
#284=PLANE('',#327);
#285=PLANE('',#328);
#286=PLANE('',#329);
#287=ADVANCED_FACE('',(#256),#276,.T.);
#288=ADVANCED_FACE('',(#257),#277,.F.);
#289=ADVANCED_FACE('',(#258),#278,.F.);
#290=ADVANCED_FACE('',(#259),#279,.T.);
#291=ADVANCED_FACE('',(#260),#280,.T.);
#292=ADVANCED_FACE('',(#261,#262),#281,.F.);
#293=ADVANCED_FACE('',(#263),#282,.F.);
#294=ADVANCED_FACE('',(#264),#283,.T.);
#295=ADVANCED_FACE('',(#265),#284,.T.);
#296=ADVANCED_FACE('',(#266),#285,.F.);
#297=ADVANCED_FACE('',(#267),#286,.F.);
#298=ADVANCED_FACE('',(#268),#20,.T.);
#299=ADVANCED_FACE('',(#269),#21,.T.);
#300=ADVANCED_FACE('',(#270),#22,.T.);
#301=ADVANCED_FACE('',(#271),#23,.T.);
#302=ADVANCED_FACE('',(#272),#24,.T.);
#303=ADVANCED_FACE('',(#273),#25,.T.);
#304=ADVANCED_FACE('',(#274),#26,.T.);
#305=ADVANCED_FACE('',(#275),#27,.T.);
#306=CLOSED_SHELL('',(#287,#288,#289,#290,#291,#292,#293,#294,#295,#296,
#297,#298,#299,#300,#301,#302,#303,#304,#305));
#307=STYLED_ITEM('',(#308),#315);
#308=PRESENTATION_STYLE_ASSIGNMENT((#309));
#309=SURFACE_STYLE_USAGE(.BOTH.,#310);
#310=SURFACE_SIDE_STYLE('',(#311));
#311=SURFACE_STYLE_FILL_AREA(#312);
#312=FILL_AREA_STYLE('',(#313));
#313=FILL_AREA_STYLE_COLOUR('',#314);
#314=COLOUR_RGB('',0.615686274509804,0.811764705882353,0.929411764705882);
#315=MANIFOLD_SOLID_BREP('Part 1',#306);
#316=SHAPE_DEFINITION_REPRESENTATION(#524,#317);
#317=SHAPE_REPRESENTATION('Part 1',(#318),#519);
#318=AXIS2_PLACEMENT_3D('',#434,#346,#347);
#319=AXIS2_PLACEMENT_3D('',#435,#348,#349);
#320=AXIS2_PLACEMENT_3D('',#444,#354,#355);
#321=AXIS2_PLACEMENT_3D('',#450,#359,#360);
#322=AXIS2_PLACEMENT_3D('',#456,#364,#365);
#323=AXIS2_PLACEMENT_3D('',#459,#368,#369);
#324=AXIS2_PLACEMENT_3D('',#468,#374,#375);
#325=AXIS2_PLACEMENT_3D('',#477,#380,#381);
#326=AXIS2_PLACEMENT_3D('',#486,#386,#387);
#327=AXIS2_PLACEMENT_3D('',#492,#391,#392);
#328=AXIS2_PLACEMENT_3D('',#498,#396,#397);
#329=AXIS2_PLACEMENT_3D('',#501,#400,#401);
#330=AXIS2_PLACEMENT_3D('',#502,#402,#403);
#331=AXIS2_PLACEMENT_3D('',#503,#404,#405);
#332=AXIS2_PLACEMENT_3D('',#504,#406,#407);
#333=AXIS2_PLACEMENT_3D('',#505,#408,#409);
#334=AXIS2_PLACEMENT_3D('',#506,#410,#411);
#335=AXIS2_PLACEMENT_3D('',#507,#412,#413);
#336=AXIS2_PLACEMENT_3D('',#508,#414,#415);
#337=AXIS2_PLACEMENT_3D('',#509,#416,#417);
#338=AXIS2_PLACEMENT_3D('',#510,#418,#419);
#339=AXIS2_PLACEMENT_3D('',#511,#420,#421);
#340=AXIS2_PLACEMENT_3D('',#512,#422,#423);
#341=AXIS2_PLACEMENT_3D('',#513,#424,#425);
#342=AXIS2_PLACEMENT_3D('',#514,#426,#427);
#343=AXIS2_PLACEMENT_3D('',#515,#428,#429);
#344=AXIS2_PLACEMENT_3D('',#516,#430,#431);
#345=AXIS2_PLACEMENT_3D('',#517,#432,#433);
#346=DIRECTION('',(0.,0.,1.));
#347=DIRECTION('',(1.,0.,0.));
#348=DIRECTION('',(0.,0.,1.));
#349=DIRECTION('',(1.,0.,0.));
#350=DIRECTION('',(0.,1.,0.));
#351=DIRECTION('',(1.,0.,0.));
#352=DIRECTION('',(0.,1.,0.));
#353=DIRECTION('',(1.,0.,0.));
#354=DIRECTION('',(1.,0.,0.));
#355=DIRECTION('',(0.,0.,-1.));
#356=DIRECTION('',(0.,1.,0.));
#357=DIRECTION('',(0.,0.,-1.));
#358=DIRECTION('',(0.,0.,-1.));
#359=DIRECTION('',(0.,0.,1.));
#360=DIRECTION('',(1.,0.,0.));
#361=DIRECTION('',(0.,1.,0.));
#362=DIRECTION('',(1.,0.,0.));
#363=DIRECTION('',(1.,0.,0.));
#364=DIRECTION('',(1.,0.,0.));
#365=DIRECTION('',(0.,0.,-1.));
#366=DIRECTION('',(0.,0.,-1.));
#367=DIRECTION('',(0.,0.,-1.));
#368=DIRECTION('',(0.,-1.,0.));
#369=DIRECTION('',(1.,0.,0.));
#370=DIRECTION('',(0.,0.,-1.));
#371=DIRECTION('',(1.,0.,0.));
#372=DIRECTION('',(0.,0.,-1.));
#373=DIRECTION('',(1.,0.,0.));
#374=DIRECTION('',(0.,-1.,0.));
#375=DIRECTION('',(1.,0.,0.));
#376=DIRECTION('',(3.33600668457078E-16,0.,-1.));
#377=DIRECTION('',(-1.,0.,0.));
#378=DIRECTION('',(3.33600668457078E-16,0.,-1.));
#379=DIRECTION('',(-1.,0.,0.));
#380=DIRECTION('',(1.,0.,3.33600668457078E-16));
#381=DIRECTION('',(3.33600668457078E-16,0.,-1.));
#382=DIRECTION('',(0.,1.,0.));
#383=DIRECTION('',(3.33600668457078E-16,0.,-1.));
#384=DIRECTION('',(0.,1.,0.));
#385=DIRECTION('',(3.33600668457078E-16,0.,-1.));
#386=DIRECTION('',(0.,0.,-1.));
#387=DIRECTION('',(-1.,0.,0.));
#388=DIRECTION('',(0.,1.,0.));
#389=DIRECTION('',(-1.,0.,0.));
#390=DIRECTION('',(-1.,0.,0.));
#391=DIRECTION('',(1.,0.,3.33600668457078E-16));
#392=DIRECTION('',(3.33600668457078E-16,0.,-1.));
#393=DIRECTION('',(0.,1.,0.));
#394=DIRECTION('',(3.33600668457078E-16,0.,-1.));
#395=DIRECTION('',(3.33600668457078E-16,0.,-1.));
#396=DIRECTION('',(0.,0.,-1.));
#397=DIRECTION('',(-1.,0.,0.));
#398=DIRECTION('',(-1.,0.,0.));
#399=DIRECTION('',(-1.,0.,0.));
#400=DIRECTION('',(0.,-1.,0.));
#401=DIRECTION('',(1.,0.,0.));
#402=DIRECTION('',(0.,0.,1.));
#403=DIRECTION('',(1.,0.,0.));
#404=DIRECTION('',(-0.707106781186548,0.,0.707106781186548));
#405=DIRECTION('',(-0.707106781186548,0.,-0.707106781186548));
#406=DIRECTION('',(0.707106781186548,0.,0.707106781186548));
#407=DIRECTION('',(0.707106781186548,0.,-0.707106781186548));
#408=DIRECTION('',(1.,0.,0.));
#409=DIRECTION('',(0.,0.,-1.));
#410=DIRECTION('',(0.707106781186548,0.,-0.707106781186548));
#411=DIRECTION('',(0.707106781186548,0.,0.707106781186548));
#412=DIRECTION('',(-1.,0.,0.));
#413=DIRECTION('',(0.,0.,1.));
#414=DIRECTION('',(-0.707106781186548,0.,-0.707106781186548));
#415=DIRECTION('',(-0.707106781186548,0.,0.707106781186548));
#416=DIRECTION('',(0.,0.,-1.));
#417=DIRECTION('',(-1.,0.,0.));
#418=DIRECTION('',(-1.,0.,0.));
#419=DIRECTION('',(0.,0.,1.));
#420=DIRECTION('',(-0.707106781186548,0.,0.707106781186547));
#421=DIRECTION('',(-0.707106781186547,0.,-0.707106781186548));
#422=DIRECTION('',(-0.707106781186547,0.,-0.707106781186548));
#423=DIRECTION('',(0.707106781186548,0.,-0.707106781186547));
#424=DIRECTION('',(3.33600668457078E-16,0.,-1.));
#425=DIRECTION('',(-1.,0.,-3.33600668457078E-16));
#426=DIRECTION('',(0.707106781186548,0.,-0.707106781186547));
#427=DIRECTION('',(0.707106781186547,0.,0.707106781186548));
#428=DIRECTION('',(-3.33600668457078E-16,0.,1.));
#429=DIRECTION('',(1.,0.,3.33600668457078E-16));
#430=DIRECTION('',(0.707106781186547,0.,0.707106781186548));
#431=DIRECTION('',(0.707106781186548,0.,-0.707106781186547));
#432=DIRECTION('',(1.,0.,0.));
#433=DIRECTION('',(0.,0.,-1.));
#434=CARTESIAN_POINT('',(0.,0.,0.));
#435=CARTESIAN_POINT('',(0.,-0.0115,0.0125));
#436=CARTESIAN_POINT('',(-0.00455031209877485,-0.0115,0.0125));
#437=CARTESIAN_POINT('',(-0.00455031209877485,-0.0075,0.0125));
#438=CARTESIAN_POINT('',(-0.00455031209877485,0.,0.0125));
#439=CARTESIAN_POINT('',(0.,-0.0075,0.0125));
#440=CARTESIAN_POINT('',(0.00455031209877485,-0.0075,0.0125));
#441=CARTESIAN_POINT('',(0.00455031209877485,-0.0115,0.0125));
#442=CARTESIAN_POINT('',(0.00455031209877485,0.,0.0125));
#443=CARTESIAN_POINT('',(0.,0.,0.0125));
#444=CARTESIAN_POINT('',(-0.00455031209877485,-0.0115,0.));
#445=CARTESIAN_POINT('',(-0.00455031209877485,-0.0115,-0.0125));
#446=CARTESIAN_POINT('',(-0.00455031209877485,-0.0075,-0.0125));
#447=CARTESIAN_POINT('',(-0.00455031209877485,0.,-0.0125));
#448=CARTESIAN_POINT('',(-0.00455031209877485,-0.0075,0.0125));
#449=CARTESIAN_POINT('',(-0.00455031209877485,0.,0.));
#450=CARTESIAN_POINT('',(0.,-0.0115,-0.0125));
#451=CARTESIAN_POINT('',(0.00455031209877485,-0.0115,-0.0125));
#452=CARTESIAN_POINT('',(0.00455031209877485,-0.0075,-0.0125));
#453=CARTESIAN_POINT('',(0.00455031209877485,0.,-0.0125));
#454=CARTESIAN_POINT('',(-0.00455031209877485,-0.0075,-0.0125));
#455=CARTESIAN_POINT('',(0.,0.,-0.0125));
#456=CARTESIAN_POINT('',(0.00455031209877485,-0.0115,0.));
#457=CARTESIAN_POINT('',(0.00455031209877485,-0.0075,0.));
#458=CARTESIAN_POINT('',(0.00455031209877485,0.,0.));
#459=CARTESIAN_POINT('',(0.,-0.0115,0.));
#460=CARTESIAN_POINT('',(-0.000550312098774853,-0.0115,-0.0125));
#461=CARTESIAN_POINT('',(-0.000550312098774853,-0.0115,0.0085));
#462=CARTESIAN_POINT('',(-0.000550312098774853,-0.0115,-0.0085));
#463=CARTESIAN_POINT('',(0.00455031209877485,-0.0115,-0.0085));
#464=CARTESIAN_POINT('',(0.000550312098774853,-0.0115,-0.0085));
#465=CARTESIAN_POINT('',(0.000550312098774853,-0.0115,0.));
#466=CARTESIAN_POINT('',(0.000550312098774853,-0.0115,0.0085));
#467=CARTESIAN_POINT('',(0.,-0.0115,0.0085));
#468=CARTESIAN_POINT('',(0.,0.,0.));
#469=CARTESIAN_POINT('',(0.00275,0.,9.17401838256964E-19));
#470=CARTESIAN_POINT('',(0.00275,0.,-0.00115));
#471=CARTESIAN_POINT('',(0.00275,0.,0.00115));
#472=CARTESIAN_POINT('',(-0.00225,0.,0.00115));
#473=CARTESIAN_POINT('',(-0.00275,0.,0.00115));
#474=CARTESIAN_POINT('',(-0.00275,0.,-0.00065));
#475=CARTESIAN_POINT('',(-0.00275,0.,-0.00115));
#476=CARTESIAN_POINT('',(0.,0.,-0.00115));
#477=CARTESIAN_POINT('',(0.00225,-0.009,0.));
#478=CARTESIAN_POINT('',(0.00225,-0.009,0.00065));
#479=CARTESIAN_POINT('',(0.00225,-0.009,0.00065));
#480=CARTESIAN_POINT('',(0.00225,-0.0005,0.00065));
#481=CARTESIAN_POINT('',(0.00225,-0.0005,0.));
#482=CARTESIAN_POINT('',(0.00225,-0.0005,-0.00065));
#483=CARTESIAN_POINT('',(0.00225,-0.009,-0.00065));
#484=CARTESIAN_POINT('',(0.00225,-0.009,-0.00065));
#485=CARTESIAN_POINT('',(0.00225,-0.009,0.));
#486=CARTESIAN_POINT('',(0.,-0.009,0.00065));
#487=CARTESIAN_POINT('',(-0.00225,-0.009,0.00065));
#488=CARTESIAN_POINT('',(-0.00225,-0.009,0.00065));
#489=CARTESIAN_POINT('',(-0.00225,-0.0005,0.00065));
#490=CARTESIAN_POINT('',(0.00225,-0.0005,0.00065));
#491=CARTESIAN_POINT('',(0.,-0.009,0.00065));
#492=CARTESIAN_POINT('',(-0.00225,-0.009,0.));
#493=CARTESIAN_POINT('',(-0.00225,-0.009,-0.00065));
#494=CARTESIAN_POINT('',(-0.00225,-0.009,-0.00065));
#495=CARTESIAN_POINT('',(-0.00225,-0.0005,-0.00065));
#496=CARTESIAN_POINT('',(-0.00225,-0.0005,0.00065));
#497=CARTESIAN_POINT('',(-0.00225,-0.009,0.));
#498=CARTESIAN_POINT('',(4.33680868994202E-19,-0.009,-0.00065));
#499=CARTESIAN_POINT('',(4.33680868994202E-19,-0.0005,-0.00065));
#500=CARTESIAN_POINT('',(4.33680868994202E-19,-0.009,-0.00065));
#501=CARTESIAN_POINT('',(8.67361737988404E-19,-0.009,0.));
#502=CARTESIAN_POINT('',(-0.000550312098774853,-0.0075,0.));
#503=CARTESIAN_POINT('',(-0.000550312098774853,-0.0075,-0.0085));
#504=CARTESIAN_POINT('',(-0.000550312098774853,-0.0075,0.0085));
#505=CARTESIAN_POINT('',(0.,-0.0075,0.0085));
#506=CARTESIAN_POINT('',(0.000550312098774853,-0.0075,0.0085));
#507=CARTESIAN_POINT('',(0.,-0.0075,-0.0085));
#508=CARTESIAN_POINT('',(0.000550312098774853,-0.0075,-0.0085));
#509=CARTESIAN_POINT('',(0.000550312098774853,-0.0075,0.));
#510=CARTESIAN_POINT('',(4.33680868994202E-19,-0.0005,-0.00115));
#511=CARTESIAN_POINT('',(-0.00275,-0.0005,-0.00115));
#512=CARTESIAN_POINT('',(0.00275,-0.0005,-0.00115));
#513=CARTESIAN_POINT('',(0.00275,-0.0005,1.66800334228539E-19));
#514=CARTESIAN_POINT('',(0.00275,-0.0005,0.00115));
#515=CARTESIAN_POINT('',(-0.00275,-0.0005,-9.17401838256964E-19));
#516=CARTESIAN_POINT('',(-0.00275,-0.0005,0.00115));
#517=CARTESIAN_POINT('',(0.,-0.0005,0.00115));
#518=MECHANICAL_DESIGN_GEOMETRIC_PRESENTATION_REPRESENTATION('',(#307),
#519);
#519=(
GEOMETRIC_REPRESENTATION_CONTEXT(3)
GLOBAL_UNCERTAINTY_ASSIGNED_CONTEXT((#520))
GLOBAL_UNIT_ASSIGNED_CONTEXT((#523,#522,#521))
REPRESENTATION_CONTEXT('Part 1','TOP_LEVEL_ASSEMBLY_PART')
);
#520=UNCERTAINTY_MEASURE_WITH_UNIT(LENGTH_MEASURE(1.E-8),#523,
'DISTANCE_ACCURACY_VALUE','Maximum Tolerance applied to model');
#521=(
NAMED_UNIT(*)
SI_UNIT($,.STERADIAN.)
SOLID_ANGLE_UNIT()
);
#522=(
NAMED_UNIT(*)
PLANE_ANGLE_UNIT()
SI_UNIT($,.RADIAN.)
);
#523=(
LENGTH_UNIT()
NAMED_UNIT(*)
SI_UNIT($,.METRE.)
);
#524=PRODUCT_DEFINITION_SHAPE('','',#525);
#525=PRODUCT_DEFINITION('','',#527,#526);
#526=PRODUCT_DEFINITION_CONTEXT('',#533,'design');
#527=PRODUCT_DEFINITION_FORMATION_WITH_SPECIFIED_SOURCE('','',#529,
 .NOT_KNOWN.);
#528=PRODUCT_RELATED_PRODUCT_CATEGORY('','',(#529));
#529=PRODUCT('Part 1','Part 1','Part 1',(#531));
#530=PRODUCT_CATEGORY('','');
#531=PRODUCT_CONTEXT('',#533,'mechanical');
#532=APPLICATION_PROTOCOL_DEFINITION('international standard',
'ap242_managed_model_based_3d_engineering',2020,#533);
#533=APPLICATION_CONTEXT('managed model based 3d engineering');
ENDSEC;
END-ISO-10303-21;
